<svg width="1066" height="2343" viewBox="0 0 1066 2343" fill="none" xmlns="http://www.w3.org/2000/svg">
<g clip-path="url(#clip0_19_12)">
<mask id="mask0_19_12" style="mask-type:luminance" maskUnits="userSpaceOnUse" x="0" y="0" width="1066" height="2343">
<path d="M0.000244141 2343L1066 2343L1066 0L3.93091e-05 9.31927e-05L0.000244141 2343Z" fill="white"/>
</mask>
<g mask="url(#mask0_19_12)">
<path d="M1066 2343L0.000206411 2343L1.57932e-06 0.000187666L1066 9.44734e-05L1066 2343Z" fill="url(#paint0_linear_19_12)"/>
<path d="M1065.86 -1925.69C601.751 -1925.69 225.517 -1063.53 225.517 -0.000219281C225.517 1063.53 601.752 1925.69 1065.86 1925.69C1529.97 1925.69 1906.2 1063.53 1906.2 -0.000366211C1906.2 -1063.53 1529.97 -1925.69 1065.86 -1925.69Z" fill="url(#paint1_radial_19_12)"/>
<path d="M473.161 -217.63C219.357 -725.735 -151.81 -144.157 -355.863 1081.36C-559.916 2306.88 -519.585 3712.26 -265.781 4220.36C-11.9765 4728.47 359.19 4146.89 563.243 2921.37C767.297 1695.85 726.965 290.475 473.161 -217.63Z" fill="url(#paint2_radial_19_12)"/>
</g>
</g>
<defs>
<linearGradient id="paint0_linear_19_12" x1="1045.89" y1="2214.78" x2="-304.965" y2="1980.81" gradientUnits="userSpaceOnUse">
<stop stop-color="#80A203"/>
<stop offset="1" stop-color="#156728"/>
</linearGradient>
<radialGradient id="paint1_radial_19_12" cx="0" cy="0" r="1" gradientUnits="userSpaceOnUse" gradientTransform="translate(1065.86 -0.000292746) rotate(-90) scale(1925.69 840.343)">
<stop offset="0.14835" stop-color="#003422"/>
<stop offset="1" stop-color="#20685A" stop-opacity="0"/>
</radialGradient>
<radialGradient id="paint2_radial_19_12" cx="0" cy="0" r="1" gradientUnits="userSpaceOnUse" gradientTransform="translate(103.69 2001.36) rotate(-80.5468) scale(2249.54 604.417)">
<stop offset="0.21875" stop-color="#005040"/>
<stop offset="1" stop-color="#20685A" stop-opacity="0"/>
</radialGradient>
<clipPath id="clip0_19_12">
<rect width="1066" height="2343" fill="white" transform="translate(1066 2343) rotate(180)"/>
</clipPath>
</defs>
</svg>
