<svg width="1759" height="1655" viewBox="0 0 1759 1655" fill="none" xmlns="http://www.w3.org/2000/svg">
<g opacity="0.5">
<g clip-path="url(#clip0_19_36)">
<mask id="mask0_19_36" style="mask-type:luminance" maskUnits="userSpaceOnUse" x="129" y="1274" width="221" height="221">
<path d="M239.463 1494.93L349.926 1384.46L239.463 1274L129 1384.46L239.463 1494.93Z" fill="white"/>
</mask>
<g mask="url(#mask0_19_36)">
<path d="M349.926 1384.46L239.463 1494.93L129 1384.46L239.463 1274L349.926 1384.46Z" fill="url(#paint0_linear_19_36)"/>
<path d="M148.66 1183.23C100.568 1231.32 102.228 1310.95 152.369 1361.09C202.51 1411.23 282.144 1412.9 330.237 1364.8C378.33 1316.71 376.669 1237.08 326.528 1186.93C276.387 1136.79 196.753 1135.13 148.66 1183.23Z" fill="url(#paint1_radial_19_36)" fill-opacity="0.5"/>
<path d="M167.77 1325.17C117.515 1327.52 106.473 1393.4 143.106 1472.32C179.739 1551.24 250.176 1613.32 300.432 1610.98C350.687 1608.63 361.73 1542.75 325.096 1463.83C288.463 1384.9 218.026 1322.83 167.77 1325.17Z" fill="url(#paint2_radial_19_36)" fill-opacity="0.5"/>
</g>
</g>
</g>
<g clip-path="url(#clip1_19_36)">
<mask id="mask1_19_36" style="mask-type:luminance" maskUnits="userSpaceOnUse" x="95" y="969" width="163" height="163">
<path d="M257.694 1050.23L176.463 969L95.2314 1050.23L176.463 1131.46L257.694 1050.23Z" fill="white"/>
</mask>
<g mask="url(#mask1_19_36)">
<path d="M176.463 969L257.694 1050.23L176.463 1131.46L95.2314 1050.23L176.463 969Z" fill="url(#paint3_linear_19_36)"/>
<path d="M28.4791 1117.01C63.8452 1152.37 122.406 1151.15 159.278 1114.28C196.151 1077.41 197.372 1018.85 162.006 983.479C126.64 948.113 68.0788 949.334 31.2065 986.207C-5.66586 1023.08 -6.88693 1081.64 28.4791 1117.01Z" fill="url(#paint4_radial_19_36)" fill-opacity="0.5"/>
<path d="M132.862 1102.95C134.587 1139.91 183.034 1148.03 241.071 1121.09C299.109 1094.15 344.76 1042.35 343.036 1005.4C341.311 968.44 292.864 960.32 234.826 987.259C176.789 1014.2 131.138 1066 132.862 1102.95Z" fill="url(#paint5_radial_19_36)" fill-opacity="0.5"/>
</g>
</g>
<path d="M355 1517.21C340.485 1517.27 326.515 1511.68 316.05 1501.62L145.26 1336.32C140.16 1331.46 136.1 1325.61 133.326 1319.13C130.551 1312.65 129.121 1305.67 129.121 1298.62C129.121 1291.58 130.551 1284.6 133.326 1278.12C136.1 1271.64 140.16 1265.79 145.26 1260.93L316.05 1095.63C337.52 1074.85 372.47 1074.85 393.95 1095.63L564.74 1260.93C569.838 1265.8 573.896 1271.65 576.669 1278.12C579.441 1284.6 580.871 1291.58 580.871 1298.62C580.871 1305.67 579.441 1312.65 576.669 1319.13C573.896 1325.6 569.838 1331.45 564.74 1336.32L394 1501.62C383.522 1511.69 369.533 1517.28 355 1517.21ZM355 1084.21C341.625 1084.15 328.752 1089.3 319.11 1098.57L148.31 1263.87C143.61 1268.35 139.869 1273.74 137.313 1279.71C134.757 1285.68 133.439 1292.11 133.439 1298.6C133.439 1305.1 134.757 1311.53 137.313 1317.5C139.869 1323.47 143.61 1328.86 148.31 1333.34L319.11 1498.64C328.782 1507.86 341.635 1513.01 355 1513.01C368.366 1513.01 381.219 1507.86 390.89 1498.64L561.68 1333.34C566.38 1328.86 570.122 1323.47 572.678 1317.5C575.234 1311.53 576.552 1305.1 576.552 1298.6C576.552 1292.11 575.234 1285.68 572.678 1279.71C570.122 1273.74 566.38 1268.35 561.68 1263.87L390.9 1098.59C381.255 1089.32 368.379 1084.17 355 1084.23V1084.21Z" fill="#749B07"/>
<path d="M326.79 1202.46C316.729 1202.51 307.044 1198.64 299.79 1191.67L181.58 1077.22C178.05 1073.85 175.24 1069.8 173.321 1065.31C171.401 1060.83 170.411 1056 170.411 1051.12C170.411 1046.24 171.401 1041.41 173.321 1036.93C175.24 1032.44 178.05 1028.39 181.58 1025.02L299.83 910.58C307.098 903.652 316.754 899.787 326.795 899.787C336.836 899.787 346.492 903.652 353.76 910.58L472 1025C475.53 1028.37 478.34 1032.42 480.26 1036.91C482.179 1041.39 483.169 1046.22 483.169 1051.1C483.169 1055.98 482.179 1060.81 480.26 1065.29C478.34 1069.78 475.53 1073.83 472 1077.2L353.76 1191.67C346.512 1198.63 336.84 1202.5 326.79 1202.46ZM326.79 902.68C317.522 902.655 308.608 906.242 301.94 912.68L183.69 1027.07C180.438 1030.17 177.849 1033.91 176.081 1038.04C174.312 1042.17 173.4 1046.62 173.4 1051.12C173.4 1055.62 174.312 1060.07 176.081 1064.2C177.849 1068.33 180.438 1072.07 183.69 1075.17L301.94 1189.62C308.636 1196.01 317.536 1199.57 326.79 1199.57C336.045 1199.57 344.944 1196.01 351.64 1189.62L469.89 1075.17C473.142 1072.07 475.731 1068.33 477.5 1064.2C479.268 1060.07 480.18 1055.62 480.18 1051.12C480.18 1046.62 479.268 1042.17 477.5 1038.04C475.731 1033.91 473.142 1030.17 469.89 1027.07L351.64 912.63C344.964 906.21 336.052 902.642 326.79 902.68Z" fill="#749B07"/>
<path d="M229.25 1096.16C243.11 1173.49 275.05 1247.76 329.53 1312.5C487.53 1500.29 831.6 1591.5 1088.32 1591.5C1448.23 1591.5 1740 1313.21 1740 1084.65C1740 946.54 1617.5 430.5 1134.5 616.5C985.08 674 908.33 513.59 764.59 473C547.85 411.89 349.93 576.9 278.75 737.86C229.78 848.6 207.72 976.08 229.25 1096.16Z" stroke="#749C07" stroke-width="3" stroke-miterlimit="10"/>
<path d="M314.17 1081.88C327.08 1165.03 356.81 1244.88 407.51 1314.5C554.51 1516.42 874.77 1614.5 1113.69 1614.5C1448.69 1614.5 1720.19 1315.27 1720.19 1069.5C1720.19 920.99 1583.19 658.5 1114.19 636.5C965.29 629.5 946.19 455.5 812.39 411.85C610.69 346.1 426.5 523.53 360.25 696.61C314.67 815.69 294.14 952.76 314.17 1081.88Z" fill="#003E24"/>
<mask id="mask2_19_36" style="mask-type:luminance" maskUnits="userSpaceOnUse" x="306" y="393" width="1415" height="1218">
<path d="M314.17 1077.88C327.08 1161.03 356.81 1240.88 407.51 1310.5C554.51 1512.42 874.77 1610.5 1113.69 1610.5C1448.69 1610.5 1720.19 1311.27 1720.19 1065.5C1720.19 916.99 1583.19 654.5 1114.19 632.5C965.29 625.5 946.19 451.5 812.39 407.85C610.69 342.1 426.5 519.53 360.25 692.61C314.67 811.69 294.14 948.76 314.17 1077.88Z" fill="white"/>
</mask>
<g mask="url(#mask2_19_36)">
<g clip-path="url(#clip2_19_36)">
<mask id="mask3_19_36" style="mask-type:luminance" maskUnits="userSpaceOnUse" x="397" y="1305" width="1343" height="611">
<path d="M397 1305L397 1916L1740 1916L1740 1305L397 1305Z" fill="white"/>
</mask>
<g mask="url(#mask3_19_36)">
<path d="M397 1916L397 1305L1740 1305L1740 1916L397 1916Z" fill="url(#paint6_linear_19_36)"/>
<path d="M2843.8 1915.92C2843.8 1649.91 2349.61 1434.26 1740 1434.26C1130.39 1434.26 636.202 1649.91 636.202 1915.92C636.202 2181.93 1130.39 2397.58 1740 2397.58C2349.61 2397.58 2843.8 2181.93 2843.8 1915.92Z" fill="url(#paint7_radial_19_36)"/>
<path d="M1864.74 1576.2C2155.99 1430.73 1822.63 1217.99 1120.17 1101.03C417.705 984.072 -387.853 1007.19 -679.097 1152.66C-970.341 1298.14 -636.983 1510.88 65.4795 1627.83C767.942 1744.79 1573.5 1721.68 1864.74 1576.2Z" fill="url(#paint8_radial_19_36)"/>
</g>
</g>
</g>
<path d="M1393.08 1197.44C1399.27 1234.25 1384.34 1262.76 1365.3 1291.03C1344.87 1314.58 1323.61 1337.03 1291.46 1348.16C1299.01 1313.71 1306.01 1281.5 1313.14 1249.32C1319.52 1220.55 1326.37 1191.87 1332.44 1163.04C1337.94 1136.9 1326.26 1122.82 1299.91 1123.3C1264.7 1123.97 1229.49 1124.72 1194.3 1125.57L1207.75 1125.25L1191.5 1078.43L1177.5 1125.96C1104.78 1127.65 1032.07 1129.63 959.34 1131.08L995.9 920.68C996.16 921.44 997.46 921.84 999.44 923.23C1019.84 828 1058 737 1057.64 636.79C1081.77 656.028 1107.95 672.532 1135.72 686C1170.94 703.058 1207.22 717.848 1244.33 730.28C1262.68 736.45 1273.12 747.83 1280.43 764.36C1301.05 811.02 1315.31 859.79 1328.58 908.87C1354.33 1004.1 1376.69 1100.06 1393.08 1197.44Z" fill="#749D08"/>
<path d="M1299.91 1123.3C1326.26 1122.82 1337.91 1136.9 1332.44 1163.04C1326.37 1191.87 1319.52 1220.55 1313.14 1249.32C1306.01 1281.5 1299.01 1313.71 1291.46 1348.16L1281.66 1400.8C1279.43 1412.8 1273.07 1423.63 1263.68 1431.43C1254.3 1439.23 1242.48 1443.5 1230.28 1443.5H688.219C676.366 1443.51 664.861 1439.48 655.594 1432.09C646.327 1424.7 639.848 1414.38 637.219 1402.82L617.52 1316C617.302 1314.74 617.018 1313.48 616.67 1312.25C604.76 1268.75 593.52 1225.06 582.15 1181.42C579.86 1172.62 577.62 1163.94 581.03 1154.59C585.27 1142.96 593.03 1137.95 605.18 1137.7C636.12 1137.08 667.05 1135.97 697.99 1135.06H722.76C801.62 1133.75 880.49 1132.65 959.34 1131.06C1032.07 1129.61 1104.78 1127.63 1177.5 1125.94L1194.3 1125.55C1229.5 1124.74 1264.7 1123.99 1299.91 1123.3Z" fill="#AEBCBD"/>
<path d="M1191.5 1078.43L1207.75 1125.25L1194.3 1125.57L1177.5 1125.96L1191.5 1078.43Z" fill="#003E24"/>
<path d="M848.06 481.21L847.64 481.14C846.46 473.61 845.02 466.14 844.13 458.55C836.13 390.33 891.13 318.2 959.34 307.61C978.01 304.71 995.88 308.49 1012.59 316.95C1036.54 329.08 1055.27 348 1074.07 366.46C1084.91 377.1 1088.52 391.84 1089.57 406.94C1091.5 434.47 1089.57 461.83 1085.75 489.08C1085.14 493.44 1085.51 498.52 1080.26 500.82C1078.68 498.18 1073.13 510.82 1073.71 498.99C1074.71 478.7 1075.36 458.36 1070.71 438.35C1069.21 431.95 1067.8 425.44 1065.42 419.35C1058 400.35 1047.94 395.49 1028.65 401.28C986.17 414 944 417.56 902.18 398.81C892.71 394.56 885.33 398.67 879.3 405.7C870.35 416.15 866.91 428.79 865.9 442.21C864.9 455.85 863.97 469.51 862.9 485.35C858 481 852.87 482 848.06 481.21Z" fill="#302827"/>
<path d="M1080.26 500.82C1089.26 516.3 1085.65 538.63 1069.71 552.35C1055.96 564.18 1056.27 581.47 1049.09 595.71L1048.99 595.91C1037.9 605.144 1027.7 615.384 1018.5 626.5C1010.11 636.79 1000.56 645.13 989.87 653C980.162 660.189 968.197 663.656 956.15 662.77C936.29 661.1 919.71 647.34 905.71 633.16C889.97 617.23 875.38 599.59 866.86 578.88H866.15C865.77 569.48 865.06 560.09 864.37 550.72C863.63 540.82 855.95 531.45 851.54 521.79C850.3 519.08 849 485.23 848.06 481.18C852.87 482.01 857.95 480.95 862.87 485.32C863.97 469.48 864.87 455.82 865.87 442.18C866.87 428.76 870.32 416.12 879.27 405.67C885.27 398.67 892.68 394.53 902.15 398.78C943.96 417.53 986.15 413.97 1028.57 401.25C1047.86 395.46 1057.92 400.35 1065.34 419.32C1067.72 425.41 1069.13 431.92 1070.63 438.32C1075.33 458.32 1074.63 478.67 1073.63 498.96C1073.13 510.86 1078.68 498.18 1080.26 500.82Z" fill="#9F634B"/>
<path d="M1057.64 636.79C1058 737 1019.84 828 999.44 923.23C997.44 921.84 996.16 921.44 995.9 920.68C982.55 880.68 968.23 841.06 952.34 802C949.12 794.09 956.02 785.09 961.65 776.43C968.53 765.85 973.51 755.78 955.78 748.84C935.97 741.09 918.7 751.01 911.78 771.48C917.4 776.48 921.93 782.15 924.14 789.48C924.71 791.34 926.19 793.48 925.73 795.02C915.66 829.1 912.39 864.38 907.39 903.36C898.19 871.36 889.39 843.36 882.11 814.91C866.81 755 845.94 696 852.72 632.14L863.72 626.46C861.4 639.73 860.6 653.71 869.31 666.21C882.613 685.488 898.842 702.573 917.41 716.85C928.18 725.09 940.51 731.37 954.19 727.94C992.73 718.25 1021.59 696.94 1037.48 658.82C1041.84 648.35 1042.16 637.36 1042.75 626.46L1057.64 636.79ZM878 771.45L876.76 768.2C876.65 768.55 876.34 769.03 876.46 769.2L878 771.45Z" fill="white"/>
<path d="M1049 595.91C1044.14 605.64 1043.33 616.01 1042.76 626.46C1042.17 637.36 1041.85 648.35 1037.49 658.82C1021.6 696.96 992.74 718.25 954.2 727.94C940.52 731.37 928.2 725.09 917.42 716.85C898.851 702.574 882.623 685.488 869.32 666.21C860.61 653.71 861.41 639.73 863.73 626.46C866.51 610.58 866.8 594.72 866.16 578.91H866.87C875.39 599.62 889.98 617.26 905.72 633.19C919.72 647.37 936.3 661.13 956.16 662.8C968.207 663.675 980.169 660.198 989.87 653C1000.56 645.13 1010.11 636.79 1018.5 626.5C1027.7 615.384 1037.91 605.144 1049 595.91Z" fill="#806255"/>
<path d="M995.9 920.68L959.34 1131.08L907.4 903.34C912.4 864.34 915.67 829.08 925.74 795C926.2 793.44 924.74 791.32 924.15 789.46C921.94 782.15 917.41 776.46 911.79 771.46C918.7 750.99 935.97 741.07 955.79 748.82C973.52 755.76 968.54 765.82 961.66 776.41C956.03 785.07 949.13 794.07 952.35 801.98C968.23 841.06 982.55 880.69 995.9 920.68Z" fill="#003E24"/>
<path d="M907.401 903.34L959.341 1131.08C880.491 1132.65 801.621 1133.75 722.761 1135.08C721.761 1118.87 718.951 1102.99 711.761 1087L698.001 1135.06C667.061 1135.97 636.131 1137.06 605.191 1137.7C593.001 1138 585.271 1143 581.001 1154.59C577.59 1163.94 579.83 1172.59 582.12 1181.42C593.491 1225.06 604.731 1268.75 616.641 1312.25L617.49 1316C618.64 1322.89 615.891 1324.7 607.12 1324.08C590.68 1322.91 575.39 1318.08 560.23 1312.27C515.47 1282 506.541 1236.11 512.771 1188.18C531.871 1041.24 572.901 899.94 628.131 762.54C640.071 732.84 659.791 714.54 689.581 703.96C730.771 689.38 772.26 675.28 811.271 655.2C825.271 648.03 838.701 639.96 852.69 632.14C845.94 696 866.81 755 882.12 814.89C889.4 843.32 898.201 871.35 907.401 903.34Z" fill="#749D08"/>
<path d="M876.729 768.2L877.969 771.45L876.43 769.23C876.31 769 876.619 768.55 876.729 768.2Z" fill="#959496"/>
<path d="M722.76 1135.06H698L711.75 1087C719 1103 721.71 1118.85 722.76 1135.06Z" fill="#003E24"/>
<path d="M654 749C654 749 685 1025.77 698 1041.88" stroke="#1E2023" stroke-width="3" stroke-miterlimit="10"/>
<path d="M1224 741C1224 741 1204.52 1017.38 1191.51 1033.5" stroke="#1E2023" stroke-width="3" stroke-miterlimit="10"/>
<path d="M1177.5 1125.96L1191.5 1078.43L1207.75 1125.25L1194.3 1125.57L1177.5 1125.96Z" stroke="#1E2023" stroke-miterlimit="10"/>
<g opacity="0.47">
<mask id="mask4_19_36" style="mask-type:luminance" maskUnits="userSpaceOnUse" x="888" y="1229" width="153" height="144">
<path d="M959.615 1229.03C958.875 1229.14 958.125 1229.24 957.385 1229.37C953.974 1229.92 950.825 1231.53 948.385 1233.98C941.165 1241.19 933.971 1248.43 926.805 1255.68L917.975 1264.59C912.728 1269.88 907.471 1275.16 902.205 1280.44C899.205 1283.44 896.265 1286.38 893.345 1289.44C890.348 1292.49 888.5 1296.49 888.115 1300.75C887.786 1303.76 888.167 1306.81 889.228 1309.65C890.289 1312.49 892 1315.04 894.225 1317.1C899.075 1321.92 903.845 1326.82 908.655 1331.68L923.655 1346.84C929.375 1352.63 935.115 1358.4 940.795 1364.22C942.926 1366.56 945.442 1368.51 948.235 1370C950.98 1371.37 953.972 1372.19 957.035 1372.39C957.195 1372.41 957.353 1372.44 957.505 1372.5H959.735C959.891 1372.45 960.052 1372.41 960.215 1372.39C965.02 1372.11 969.609 1370.29 973.305 1367.21C974.815 1365.95 976.185 1364.53 977.605 1363.21L997.245 1344.07L1008.42 1333.17L1027.98 1314.11C1031.1 1311.11 1034.22 1308.06 1037.33 1305.01C1038.33 1304.01 1039.22 1303.01 1040.19 1302.01L1039.84 1301.64L1032.84 1294.64C1031.54 1293.31 1029.99 1292.25 1028.27 1291.53C1026.55 1290.81 1024.71 1290.44 1022.84 1290.44C1020.98 1290.44 1019.14 1290.81 1017.42 1291.53C1015.7 1292.25 1014.15 1293.31 1012.84 1294.64C1009.88 1297.61 1006.91 1300.59 1003.94 1303.57C999.905 1307.62 995.861 1311.68 991.815 1315.73C983.975 1323.58 976.135 1331.43 968.295 1339.28C967.125 1340.46 965.733 1341.4 964.2 1342.05C962.666 1342.69 961.02 1343.02 959.357 1343.03C957.694 1343.03 956.046 1342.71 954.508 1342.08C952.97 1341.45 951.572 1340.51 950.395 1339.34C940.648 1329.61 930.911 1319.87 921.185 1310.12C918.652 1307.6 917.215 1304.18 917.185 1300.6C917.103 1298.66 917.431 1296.73 918.148 1294.93C918.865 1293.12 919.954 1291.49 921.345 1290.14C931.865 1279.58 942.405 1269.04 952.965 1258.51C953.767 1257.65 954.739 1256.97 955.82 1256.5C956.9 1256.03 958.066 1255.8 959.242 1255.8C960.419 1255.81 961.581 1256.06 962.655 1256.54C963.73 1257.02 964.693 1257.72 965.485 1258.59L968.995 1262.1C969.838 1262.9 970.511 1263.86 970.97 1264.92C971.429 1265.99 971.666 1267.14 971.666 1268.3C971.666 1269.46 971.429 1270.61 970.97 1271.68C970.511 1272.74 969.838 1273.7 968.995 1274.5L951.735 1291.62C949.559 1293.78 948.3 1296.69 948.218 1299.75C948.136 1302.81 949.238 1305.79 951.295 1308.06C951.795 1308.63 952.355 1309.15 952.875 1309.71C953.85 1310.83 955.052 1311.74 956.402 1312.37C957.751 1313 959.218 1313.34 960.707 1313.36C962.195 1313.39 963.672 1313.1 965.042 1312.51C966.411 1311.93 967.642 1311.06 968.655 1309.97L981.825 1296.8C987.725 1290.89 993.655 1285.02 999.505 1279.07C1001.85 1276.65 1003.14 1273.41 1003.12 1270.04C1003.09 1266.67 1001.74 1263.45 999.355 1261.07C998.135 1259.85 996.925 1258.61 995.715 1257.38C990.575 1252.19 985.438 1247 980.305 1241.8C977.845 1239.32 975.391 1236.83 972.945 1234.33C970.405 1231.7 967.09 1229.95 963.485 1229.33C962.715 1229.2 961.945 1229.11 961.175 1229L959.615 1229.03Z" fill="white"/>
</mask>
<g mask="url(#mask4_19_36)">
<g clip-path="url(#clip3_19_36)">
<mask id="mask5_19_36" style="mask-type:luminance" maskUnits="userSpaceOnUse" x="743" y="951" width="500" height="500">
<path d="M1243 951L743 951L743 1451H1243V951Z" fill="white"/>
</mask>
<g mask="url(#mask5_19_36)">
<path d="M743 951L1243 951V1451H743L743 951Z" fill="url(#paint9_linear_19_36)"/>
<path d="M743.066 1861.95C960.753 1861.95 1137.22 1677.96 1137.22 1451C1137.22 1224.04 960.753 1040.06 743.066 1040.06C525.379 1040.06 348.909 1224.04 348.909 1451C348.909 1677.96 525.379 1861.95 743.066 1861.95Z" fill="url(#paint10_radial_19_36)"/>
<path d="M1021.07 1497.44C1140.11 1605.87 1314.21 1481.76 1409.92 1220.24C1505.63 958.709 1486.71 658.799 1367.66 550.368C1248.62 441.938 1074.53 566.047 978.815 827.575C883.105 1089.1 902.023 1389.01 1021.07 1497.44Z" fill="url(#paint11_radial_19_36)"/>
</g>
</g>
</g>
</g>
<path d="M794.56 655.93C791.313 665.404 788.043 674.867 784.75 684.32L774.86 712.67L773.62 716.22C773.4 716.82 773.24 717.38 773.08 717.94C772.915 718.503 772.794 719.078 772.72 719.66C772.355 721.978 772.578 724.351 773.37 726.56C774.141 728.759 775.436 730.737 777.144 732.323C778.851 733.908 780.92 735.054 783.17 735.66C783.75 735.78 784.27 735.92 784.89 736.02L786.75 736.33L790.45 736.94L797.86 738.15L812.67 740.59L816 741.13L813.27 743.13L792.8 758.33L782.54 765.9L777.44 769.66C775.939 770.806 774.687 772.246 773.76 773.89C772.851 775.536 772.293 777.353 772.121 779.226C771.949 781.098 772.166 782.986 772.76 784.77C773.51 786.668 774.361 788.524 775.31 790.33L778.11 796.05L789.19 819L811.4 864.87L833.5 910.8L855.5 956.8L877.29 1002.87C884.54 1018.24 891.85 1033.57 898.99 1048.99C906.13 1064.41 913.38 1079.77 920.46 1095.22C912.76 1080.08 905.2 1064.86 897.6 1049.67C890 1034.48 882.5 1019.22 874.97 1003.99L852.4 958.25L830.05 912.44L807.82 866.58L785.7 820.66L774.7 797.66L771.95 791.91L770.58 789.04C770.35 788.55 770.12 788.11 769.88 787.53C769.636 786.988 769.429 786.43 769.26 785.86C768.176 782.451 768.182 778.789 769.277 775.383C770.372 771.978 772.502 768.999 775.37 766.86L780.55 763.11L790.89 755.66L811.61 740.83L812.21 743.4L797.44 740.72L790 739.39L786.3 738.72L784.46 738.39C783.84 738.28 783.16 738.09 782.46 737.94C779.87 737.197 777.499 735.835 775.552 733.973C773.605 732.111 772.138 729.804 771.28 727.25C770.425 724.708 770.215 721.993 770.67 719.35C770.774 718.692 770.931 718.043 771.14 717.41C771.33 716.77 771.54 716.14 771.77 715.57L773.1 712.06L783.83 684C787.36 674.62 791 665.28 794.56 655.93Z" fill="#1E2023"/>
<path d="M1107.08 662.93C1110.68 672.28 1114.28 681.62 1117.81 690.98L1128.46 719.06L1129.8 722.57C1130.03 723.14 1130.23 723.77 1130.42 724.41C1130.63 725.043 1130.79 725.692 1130.89 726.35C1131.34 728.993 1131.13 731.708 1130.28 734.25C1129.42 736.805 1127.96 739.113 1126.01 740.975C1124.06 742.837 1121.69 744.198 1119.1 744.94C1118.45 745.09 1117.77 745.28 1117.16 745.39L1115.31 745.72L1111.62 746.39L1104.23 747.73L1089.46 750.41L1090.06 747.84L1110.78 762.67L1121.12 770.12L1126.3 773.87C1129.17 776.009 1131.3 778.988 1132.39 782.393C1133.49 785.799 1133.49 789.461 1132.41 792.87C1132.25 793.442 1132.04 794 1131.79 794.54C1131.55 795.12 1131.32 795.54 1131.1 796.05L1129.72 798.92L1126.98 804.67L1115.98 827.67L1093.86 873.59L1071.63 919.45L1049.27 965.26L1026.7 1011C1019.17 1026.23 1011.7 1041.5 1004.08 1056.68C996.46 1071.86 988.91 1087.09 981.21 1102.23C988.29 1086.78 995.51 1071.4 1002.68 1056C1009.85 1040.6 1017.13 1025.25 1024.38 1009.88L1046.17 963.81L1068.17 917.81L1090.26 871.88L1112.45 826L1123.59 803.07L1126.38 797.35C1127.33 795.544 1128.18 793.688 1128.93 791.79C1129.52 790.006 1129.74 788.118 1129.57 786.246C1129.4 784.373 1128.84 782.556 1127.93 780.91C1127 779.267 1125.76 777.829 1124.26 776.68L1119.15 772.92L1108.89 765.35L1088.42 750.18L1085.69 748.18L1089.02 747.64L1103.83 745.2L1111.24 743.99L1114.95 743.38L1116.8 743.07C1117.42 742.97 1117.94 742.83 1118.52 742.71C1120.77 742.104 1122.84 740.958 1124.55 739.373C1126.25 737.787 1127.55 735.809 1128.32 733.61C1129.11 731.401 1129.33 729.028 1128.97 726.71C1128.9 726.128 1128.77 725.553 1128.61 724.99C1128.45 724.43 1128.29 723.87 1128.07 723.27L1126.83 719.72L1116.95 691.37C1113.58 681.87 1110.33 672.4 1107.08 662.93Z" fill="#1E2023"/>
<path d="M859 721.9C862.53 728.03 865.79 734.29 868.95 740.59C870.56 743.73 872.07 746.91 873.63 750.07L878.16 759.63L880.35 764.44C880.991 765.891 881.896 767.21 883.02 768.33C885.315 770.579 888.396 771.846 891.61 771.86C893.236 771.856 894.846 771.537 896.35 770.92C897.89 770.28 899.53 769.45 901.11 768.74C904.33 767.28 907.54 765.82 910.82 764.48C907.82 766.41 904.82 768.22 901.82 770.04L899.53 771.38C898.75 771.82 898.07 772.28 897.19 772.7C895.485 773.569 893.62 774.08 891.71 774.2C889.759 774.324 887.803 774.049 885.962 773.393C884.12 772.736 882.432 771.711 881 770.38C879.581 769.044 878.437 767.444 877.63 765.67L875.38 760.89L871 751.27C869.59 748.03 868.14 744.82 866.78 741.57C864 735.08 861.37 728.55 859 721.9Z" fill="#C3C2C2"/>
<path d="M1051 708.9C1045.86 716.59 1040.48 724.1 1035 731.54C1032.3 735.28 1029.5 738.96 1026.75 742.66L1022.57 748.18L1020.47 750.93L1019.47 752.31C1019.1 752.77 1018.81 753.21 1018.36 753.71C1016.68 755.602 1014.64 757.137 1012.36 758.22C1010.19 759.309 1007.87 760.103 1005.49 760.58C1000.79 761.568 995.942 761.602 991.23 760.68C988.923 760.185 986.656 759.517 984.45 758.68L977.92 756.36C973.59 754.77 969.24 753.2 964.92 751.49C969.42 752.56 973.92 753.76 978.35 754.95L985.02 756.8C987.18 757.47 989.382 758.001 991.61 758.39C993.817 758.683 996.044 758.796 998.27 758.73C1000.49 758.638 1002.69 758.333 1004.85 757.82C1006.99 757.348 1009.06 756.608 1011.01 755.62C1012.91 754.687 1014.61 753.385 1016.01 751.79C1016.34 751.45 1016.71 750.94 1017.06 750.5L1018.12 749.13L1020.25 746.4L1024.51 740.94C1027.39 737.34 1030.23 733.7 1033.16 730.13C1039 722.94 1044.87 715.83 1051 708.9Z" fill="#C3C2C2"/>
<path d="M136.64 679C136.64 679 137.21 677 138.42 673.27" stroke="#003E24" stroke-width="6" stroke-miterlimit="10"/>
<path d="M142.33 661.87C171.57 580.58 320.97 238.63 758.2 262.87" stroke="#003E24" stroke-width="6" stroke-miterlimit="10" stroke-dasharray="12.06 12.06"/>
<path d="M764.23 263.27C766.23 263.39 768.23 263.53 770.23 263.67" stroke="#003E24" stroke-width="6" stroke-miterlimit="10"/>
<path d="M770.21 202.57L820 272L748 318" stroke="#003E24" stroke-width="6" stroke-miterlimit="10" stroke-dasharray="12 12"/>
<path d="M165 801.44C152.41 823.11 140.15 845.04 133.29 868.21C122.11 864.9 110.95 861.59 99.6797 858.27C105.47 834.85 107.24 811.14 112.23 786.27C130.361 789.209 148.076 794.302 165 801.44Z" fill="#8BC543" stroke="#006738" stroke-width="2.04" stroke-miterlimit="10"/>
<path d="M131.26 814.52C141.26 817.38 146.34 825.91 142.91 833.01C141.072 836.573 138.06 839.393 134.384 840.993C130.707 842.592 126.591 842.874 122.73 841.79C114.83 839.48 109.22 831.5 110.41 823.84C111.6 816.18 121.26 811.72 131.26 814.52Z" fill="#006738"/>
<path d="M99.6299 858.27L108.63 860.92C108.942 859.704 109.012 858.438 108.834 857.195C108.657 855.952 108.237 854.757 107.597 853.676C106.957 852.596 106.11 851.653 105.105 850.9C104.1 850.147 102.957 849.6 101.74 849.29C101.1 852.303 100.397 855.297 99.6299 858.27Z" fill="#006738"/>
<path d="M123.33 824.13C122.05 823.87 121.16 824.67 120.68 826.51C120.2 828.35 120.53 829.44 121.68 829.76C121.987 829.862 122.317 829.872 122.63 829.788C122.943 829.705 123.224 829.532 123.44 829.29C124.265 828.277 124.982 827.181 125.58 826.02C126.286 824.572 127.445 823.393 128.88 822.66C130.242 822.095 131.762 822.042 133.16 822.51C133.98 822.696 134.737 823.095 135.354 823.668C135.97 824.24 136.424 824.966 136.67 825.77C137.159 827.42 137.056 829.188 136.38 830.77C134.77 834.85 132.11 836.63 128.38 836.18C128.65 835 128.93 833.83 129.2 832.65C131.2 832.96 132.59 832.03 133.39 829.85C134.19 827.67 133.68 826.52 131.98 826.03C131.66 825.915 131.318 825.879 130.981 825.926C130.645 825.973 130.325 826.102 130.05 826.3C129.104 827.229 128.317 828.307 127.72 829.49C126.996 830.909 125.905 832.107 124.56 832.96C124.025 833.248 123.439 833.427 122.835 833.487C122.231 833.547 121.621 833.487 121.04 833.31C120.387 833.12 119.782 832.794 119.265 832.352C118.748 831.911 118.33 831.365 118.04 830.75C117.312 829.158 117.195 827.353 117.71 825.68C118.66 821.62 120.88 819.89 124.26 820.6L123.33 824.13Z" fill="#8BC543"/>
<path d="M118.45 823.92C118.19 825.03 117.92 826.14 117.65 827.25L114.05 826.31C114.29 825.19 114.53 824.08 114.76 822.96L118.45 823.92Z" fill="#8BC543"/>
<path d="M139.87 830.05C139.42 831.11 138.97 832.18 138.53 833.24L135.04 832.24C135.45 831.17 135.87 830.09 136.29 829.01L139.87 830.05Z" fill="#8BC543"/>
<path d="M132.71 868.06C133.61 865.06 134.59 862.16 135.62 859.24C133.233 858.494 130.648 858.726 128.432 859.885C126.215 861.044 124.55 863.034 123.8 865.42L132.71 868.06Z" fill="#006738"/>
<path d="M164.14 801.1C159.59 799.23 155.05 797.5 150.47 795.91C148.25 800.91 152.23 806.8 159.42 809.47C161 806.67 162.58 803.89 164.14 801.1Z" fill="#006738"/>
<path d="M112.18 786.24C111.57 789.43 110.99 792.59 110.45 795.74C118.06 797.12 125.08 794.34 126.65 789.04C121.89 787.954 117.067 787.02 112.18 786.24Z" fill="#006738"/>
<path d="M121 847.67C121.414 847.778 121.803 847.969 122.142 848.23C122.482 848.492 122.765 848.819 122.976 849.192C123.187 849.565 123.321 849.976 123.369 850.402C123.418 850.828 123.381 851.259 123.26 851.67C122.99 852.478 122.418 853.15 121.664 853.545C120.909 853.94 120.03 854.026 119.213 853.787C118.396 853.547 117.703 853 117.281 852.26C116.859 851.52 116.74 850.645 116.95 849.82C117.07 849.41 117.27 849.027 117.54 848.696C117.81 848.365 118.144 848.091 118.521 847.89C118.899 847.69 119.312 847.567 119.738 847.529C120.164 847.491 120.593 847.539 121 847.67Z" fill="#006738"/>
<path d="M135.49 802.21C137.94 802.91 139.36 804.91 138.69 806.62C138.02 808.33 135.61 809.15 133.29 808.5C130.97 807.85 129.5 805.92 130.04 804.17C130.58 802.42 133 801.51 135.49 802.21Z" fill="#006738"/>
<path d="M156.9 789.48C147.54 812.73 138.55 836.19 135.08 860.11C123.54 858.43 112.02 856.75 100.39 855.11C102.77 831.11 101.12 807.39 102.49 782.03C120.858 782.337 139.125 784.838 156.9 789.48Z" fill="#8BC543" stroke="#006738" stroke-width="2.04" stroke-miterlimit="10"/>
<path d="M125.43 807.25C135.74 808.65 141.98 816.37 139.61 823.88C138.3 827.669 135.723 830.89 132.315 833.002C128.907 835.113 124.875 835.984 120.9 835.47C112.75 834.3 106.05 827.22 106.13 819.47C106.21 811.72 115.12 805.91 125.43 807.25Z" fill="#006738"/>
<path d="M100.39 855.08L109.64 856.42C109.774 855.172 109.662 853.91 109.308 852.706C108.955 851.502 108.367 850.379 107.58 849.402C106.792 848.425 105.82 847.613 104.718 847.012C103.617 846.411 102.407 846.033 101.16 845.9C101 849 100.73 852 100.39 855.08Z" fill="#006738"/>
<path d="M119 817.9C117.69 817.83 116.93 818.75 116.71 820.64C116.49 822.53 116.98 823.56 118.15 823.71C118.47 823.768 118.8 823.73 119.098 823.602C119.397 823.474 119.652 823.261 119.83 822.99C120.498 821.87 121.047 820.684 121.47 819.45C121.967 817.916 122.945 816.583 124.26 815.65C125.526 814.897 127.021 814.627 128.47 814.89C129.31 814.955 130.118 815.241 130.811 815.719C131.505 816.197 132.06 816.849 132.42 817.61C133.123 819.164 133.271 820.911 132.84 822.56C131.84 826.82 129.45 828.97 125.67 829.05C125.77 827.85 125.87 826.66 125.98 825.46C127.98 825.46 129.25 824.35 129.73 822.07C130.18 819.95 129.54 818.75 127.79 818.5C127.458 818.431 127.114 818.444 126.788 818.538C126.462 818.632 126.164 818.805 125.92 819.04C125.115 820.095 124.487 821.274 124.06 822.53C123.55 824.04 122.641 825.384 121.43 826.42C120.945 826.785 120.391 827.047 119.802 827.193C119.213 827.34 118.6 827.366 118 827.27C117.318 827.184 116.662 826.952 116.077 826.59C115.492 826.227 114.992 825.743 114.61 825.17C113.676 823.682 113.32 821.903 113.61 820.17C113.97 816.01 115.92 813.99 119.37 814.17C119.17 815.46 119.06 816.68 119 817.9Z" fill="#8BC543"/>
<path d="M114.1 818.39C114 819.53 113.89 820.67 113.78 821.8L110.09 821.38C110.16 820.25 110.24 819.11 110.32 817.97L114.1 818.39Z" fill="#8BC543"/>
<path d="M136.17 821.39C135.88 822.51 135.59 823.62 135.31 824.74L131.7 824.2C131.96 823.08 132.21 821.95 132.47 820.83L136.17 821.39Z" fill="#8BC543"/>
<path d="M134.53 860C135.01 856.94 135.55 853.89 136.15 850.85C133.68 850.452 131.152 851.051 129.124 852.515C127.095 853.98 125.73 856.19 125.33 858.66L134.53 860Z" fill="#006738"/>
<path d="M156.05 789.27C151.28 788.07 146.53 787 141.77 786.09C140.3 791.38 145.07 796.61 152.58 798.22L156.05 789.27Z" fill="#006738"/>
<path d="M102.49 782C102.34 785.24 102.23 788.46 102.14 791.64C109.87 791.92 116.42 788.17 117.21 782.7C112.35 782.3 107.443 782.067 102.49 782Z" fill="#006738"/>
<path d="M120 841.53C120.423 841.577 120.832 841.708 121.203 841.915C121.574 842.123 121.9 842.403 122.161 842.738C122.422 843.074 122.613 843.458 122.723 843.869C122.832 844.28 122.859 844.709 122.8 845.13C122.662 845.97 122.198 846.722 121.509 847.222C120.82 847.722 119.961 847.93 119.12 847.8C118.273 847.687 117.503 847.248 116.976 846.575C116.449 845.902 116.206 845.049 116.3 844.2C116.363 843.779 116.509 843.376 116.731 843.013C116.952 842.65 117.243 842.335 117.588 842.086C117.933 841.837 118.324 841.66 118.738 841.564C119.152 841.469 119.581 841.457 120 841.53Z" fill="#006738"/>
<path d="M127.85 794.46C130.38 794.81 132.06 796.58 131.65 798.37C131.24 800.16 128.97 801.37 126.57 801C124.17 800.63 122.46 799 122.73 797.18C123 795.36 125.32 794.12 127.85 794.46Z" fill="#006738"/>
<path d="M100.51 864.7L80.5498 839C80.5498 839 81.0098 831.05 93.8998 831.5C106.79 831.95 120.52 837.5 132.58 838.06C143.65 838.416 154.704 836.97 165.31 833.78L144.44 864.7H100.51Z" fill="#E6E6E7"/>
<path d="M169.82 911.87C163.4 896.1 153.54 879.62 144.44 864.7H100.51C91.2619 879.95 82.8592 895.697 75.3402 911.87C60.1902 945.08 68.8302 956.02 86.6102 963.87C99.8102 969.69 145.35 969.69 158.55 963.87C176.33 956 180.82 938.93 169.82 911.87Z" fill="#E6E6E7"/>
<path d="M130.5 908.36C130.23 905.2 127.32 903.61 121.74 903.59C116.16 903.57 113.34 905.06 113.33 908.03C113.305 908.894 113.551 909.745 114.033 910.462C114.515 911.179 115.21 911.728 116.02 912.03C117.82 912.863 121.443 913.81 126.89 914.87C132.337 915.93 136.337 917.69 138.89 920.15C140.161 921.389 141.156 922.881 141.811 924.53C142.465 926.179 142.765 927.947 142.69 929.72C142.731 931.881 142.176 934.011 141.085 935.878C139.995 937.744 138.412 939.274 136.51 940.3C132.255 942.825 127.377 944.106 122.43 944C109.67 943.947 102.413 939.033 100.66 929.26L111.23 928.44C111.99 933.58 115.753 936.16 122.52 936.18C128.86 936.18 132.037 934.04 132.05 929.76C132.097 928.907 131.907 928.057 131.501 927.306C131.095 926.554 130.489 925.929 129.75 925.5C128.217 924.567 124.613 923.533 118.94 922.4C113.267 921.267 109.17 919.56 106.65 917.28C105.44 916.22 104.477 914.908 103.829 913.436C103.182 911.964 102.864 910.368 102.9 908.76C102.9 905.12 104.55 902.03 107.79 899.52C111.03 897.01 115.79 895.76 121.95 895.79C134.21 895.83 140.623 899.91 141.19 908.03L130.5 908.36Z" fill="#E2A540"/>
<path d="M117.411 887.647L117.376 896.797L127.436 896.836L127.471 887.686L117.411 887.647Z" fill="#E2A540"/>
<path d="M117.221 942.262L117.185 951.412L127.244 951.452L127.281 942.302L117.221 942.262Z" fill="#E2A540"/>
<path d="M148.51 865.65C148.484 865.886 148.412 866.115 148.297 866.323C148.182 866.531 148.027 866.714 147.841 866.861C147.655 867.009 147.442 867.119 147.214 867.184C146.985 867.249 146.746 867.268 146.51 867.24H97.7803C97.5444 867.268 97.3054 867.249 97.0769 867.184C96.8485 867.119 96.6352 867.009 96.4492 866.861C96.2633 866.714 96.1085 866.531 95.9937 866.323C95.8789 866.115 95.8063 865.886 95.7803 865.65V864.34C95.8355 863.864 96.077 863.43 96.4518 863.132C96.8267 862.834 97.3044 862.697 97.7803 862.75H146.55C147.026 862.697 147.504 862.834 147.879 863.132C148.254 863.43 148.495 863.864 148.55 864.34L148.51 865.65Z" fill="#744C29"/>
<path d="M135 961.2C143.11 967.04 157.6 962.08 163 958.27C170.46 952.98 173.87 942.44 173 934.89C172.401 928.094 170.681 921.444 167.91 915.21C166.83 912.71 171.61 922.82 165.8 936.45C161.46 946.62 148.92 949.22 140.6 950.16C134.74 950.81 126.89 955.38 135 961.2Z" fill="#D0D2D3"/>
<path d="M130 861.4C130 861.4 145.39 855.82 153 848C161.57 839.19 144.57 861.39 144.57 861.39L130 861.4Z" fill="#D0D2D3"/>
<path d="M86.4404 840.9C86.4404 840.9 86.7304 841.13 87.2004 841.55C87.6704 841.97 88.3304 842.55 89.0804 843.34C92.6978 847.087 95.8628 851.245 98.5104 855.73C99.0404 856.66 99.4604 857.46 99.7304 858.03C100 858.6 100.14 858.93 100.14 858.93C100.14 858.93 99.8504 858.71 99.3804 858.29C98.9104 857.87 98.2504 857.29 97.5004 856.5C95.6762 854.643 93.979 852.665 92.4204 850.58C90.8404 848.512 89.3909 846.348 88.0804 844.1C87.5504 843.17 87.0804 842.38 86.8504 841.81C86.6204 841.24 86.4404 840.9 86.4404 840.9Z" fill="#F7F7F7"/>
<path d="M101.79 870.45C101.79 870.45 101.54 871.2 101.06 872.45C100.58 873.7 99.8903 875.55 98.9803 877.71C97.1903 882.03 94.5803 887.71 91.7703 893.23C88.9603 898.75 85.9603 904.23 83.5303 908.23C82.3303 910.23 81.2703 911.88 80.5303 913.02C79.7903 914.16 79.3203 914.81 79.3203 914.81C79.3203 914.81 79.5603 914.06 80.0403 912.81C80.5203 911.56 81.2203 909.7 82.1303 907.55C83.9103 903.22 86.5303 897.55 89.3403 892.03C92.1503 886.51 95.1503 881.03 97.5903 877.03C98.7903 875.03 99.8403 873.38 100.59 872.23C101.34 871.08 101.79 870.45 101.79 870.45Z" fill="#F7F7F7"/>
<path d="M99.6297 953.4C98.4473 957.394 96.107 960.948 92.9047 963.612C89.7024 966.276 85.7821 967.93 81.6394 968.366C77.4967 968.802 73.3178 968 69.6313 966.06C65.9447 964.121 62.9161 961.132 60.9284 957.471C58.9406 953.811 58.0832 949.643 58.4644 945.495C58.8456 941.347 60.4483 937.405 63.0699 934.168C65.6915 930.93 69.2142 928.544 73.1925 927.309C77.1707 926.074 81.4259 926.046 85.4197 927.23C90.774 928.816 95.2789 932.465 97.9436 937.372C100.608 942.28 101.215 948.045 99.6297 953.4Z" fill="#E8AF2E"/>
<path d="M96.0003 952.32C95.0311 955.591 93.1137 958.501 90.4905 960.683C87.8673 962.864 84.6562 964.219 81.2632 964.575C77.8702 964.931 74.4477 964.274 71.4284 962.685C68.4092 961.096 65.9289 958.648 64.3011 955.65C62.6733 952.652 61.9711 949.238 62.2834 945.841C62.5956 942.443 63.9083 939.215 66.0554 936.563C68.2025 933.912 71.0876 931.957 74.3458 930.945C77.604 929.934 81.0891 929.911 84.3603 930.88C86.5331 931.522 88.558 932.586 90.3192 934.012C92.0804 935.437 93.5434 937.196 94.6245 939.187C95.7055 941.178 96.3835 943.363 96.6196 945.616C96.8556 947.87 96.6452 950.148 96.0003 952.32Z" fill="#F9CA35"/>
<path d="M84.3797 943.94C84.6497 942.62 83.6597 941.62 81.3797 940.94C79.0997 940.26 77.7797 940.52 77.3797 941.74C77.2525 942.094 77.2432 942.481 77.3531 942.841C77.463 943.201 77.6863 943.516 77.9897 943.74C79.2686 944.695 80.6386 945.523 82.0797 946.21C83.8123 946.977 85.2876 948.227 86.3297 949.81C86.7009 950.469 86.9284 951.199 86.9974 951.952C87.0663 952.705 86.9751 953.464 86.7297 954.18C86.4837 955.049 86.0071 955.835 85.3504 956.454C84.6936 957.074 83.8813 957.505 82.9997 957.7C80.958 958.211 78.814 958.142 76.8097 957.5C71.6097 955.94 69.2497 953.07 69.7197 948.86L74.1197 949.8C73.8197 951.99 75.0397 953.5 77.7997 954.32C80.3797 955.09 81.9297 954.61 82.4597 952.86C82.576 952.519 82.5983 952.154 82.5244 951.802C82.4505 951.45 82.283 951.125 82.0397 950.86C80.8295 949.825 79.4837 948.96 78.0397 948.29C76.2927 947.499 74.7804 946.269 73.6497 944.72C73.2836 944.141 73.0483 943.49 72.9602 942.811C72.8721 942.132 72.9334 941.442 73.1397 940.79C73.3678 940.049 73.7701 939.374 74.3129 938.82C74.8558 938.267 75.5233 937.852 76.2597 937.61C77.8897 936.97 79.9597 937.04 82.4897 937.79C87.483 939.29 89.6063 941.73 88.8597 945.11L84.3797 943.94Z" fill="#C38728"/>
<path d="M81.5611 933.857L80.4385 937.592L84.5373 938.824L85.66 935.089L81.5611 933.857Z" fill="#C38728"/>
<path d="M74.8656 956.204L73.7471 959.93L77.8464 961.16L78.9648 957.435L74.8656 956.204Z" fill="#C38728"/>
<path d="M63.1599 942.91C63.1773 941.258 63.6143 939.637 64.4299 938.2C65.8695 937.381 67.4936 936.94 69.1499 936.92C67.4999 936.92 65.0599 936.27 64.4299 935.64C63.7999 935.01 63.1599 932.58 63.1599 930.93C63.1599 932.63 62.5199 935 61.7999 935.72C61.0799 936.44 58.7999 936.92 57.1699 936.92C58.8199 936.92 61.2599 937.58 61.8799 938.2C62.4999 938.82 63.1599 941.26 63.1599 942.91Z" fill="white"/>
<path d="M67.1595 943.84C67.1671 943.251 67.3218 942.674 67.6095 942.16C68.1226 941.871 68.7005 941.716 69.2895 941.71C68.6978 941.715 68.1162 941.556 67.6095 941.25C67.3076 940.746 67.1518 940.168 67.1595 939.58C67.1708 940.183 67 940.776 66.6695 941.28C66.1758 941.587 65.6004 941.737 65.0195 941.71C65.6098 941.706 66.1902 941.862 66.6995 942.16C67.0053 942.667 67.1645 943.248 67.1595 943.84Z" fill="white"/>
<path d="M59.3502 948.35C59.3618 947.524 59.5857 946.715 60.0002 946C60.7115 945.598 61.5129 945.381 62.3302 945.37C61.5106 945.376 60.705 945.158 60.0002 944.74C59.579 944.037 59.361 943.23 59.3702 942.41C59.3856 943.249 59.1525 944.074 58.7002 944.78C58.0125 945.2 57.2152 945.406 56.4102 945.37C57.2291 945.369 58.0334 945.587 58.7402 946C59.1521 946.714 59.3629 947.526 59.3502 948.35Z" fill="white"/>
<path d="M1309.51 394.3C1318.62 394.3 1326.01 386.913 1326.01 377.8C1326.01 368.687 1318.62 361.3 1309.51 361.3C1300.4 361.3 1293.01 368.687 1293.01 377.8C1293.01 386.913 1300.4 394.3 1309.51 394.3Z" fill="#749D08"/>
<path d="M1350.77 350.28C1359.88 350.28 1367.27 342.892 1367.27 333.78C1367.27 324.667 1359.88 317.28 1350.77 317.28C1341.66 317.28 1334.27 324.667 1334.27 333.78C1334.27 342.892 1341.66 350.28 1350.77 350.28Z" fill="#749D08"/>
<path d="M1287.5 320.03C1293.58 320.03 1298.5 315.105 1298.5 309.03C1298.5 302.955 1293.58 298.03 1287.5 298.03C1281.42 298.03 1276.5 302.955 1276.5 309.03C1276.5 315.105 1281.42 320.03 1287.5 320.03Z" fill="#749D08"/>
<path d="M1308.56 378.11L1284.49 305.91L1351.15 332.86L1350.4 334.71L1287.76 309.39L1310.46 377.48L1308.56 378.11Z" fill="#749D08"/>
<path d="M1021.43 193.89H847.46V199.85H1021.43V193.89Z" fill="#749D08"/>
<path d="M882.05 124.24H854.3V185.97H882.05V124.24Z" fill="#749D08"/>
<path d="M882.06 124.24H868.18V185.97H882.06V124.24Z" fill="#749D08"/>
<path d="M925.78 101.24H898.03V185.97H925.78V101.24Z" fill="#749D08"/>
<path d="M925.78 101.24H911.9V185.97H925.78V101.24Z" fill="#749D08"/>
<path d="M969.51 109.58H941.76V185.97H969.51V109.58Z" fill="#749D08"/>
<path d="M969.51 109.58H955.63V185.97H969.51V109.58Z" fill="#749D08"/>
<path d="M1013.24 80.2002H985.49V185.97H1013.24V80.2002Z" fill="#749D08"/>
<path d="M1013.24 80.2002H999.36V185.97H1013.24V80.2002Z" fill="#749D08"/>
<path d="M867.31 110.37C866.403 110.369 865.521 110.071 864.801 109.52C864.08 108.97 863.56 108.198 863.32 107.324C863.08 106.449 863.134 105.52 863.474 104.68C863.814 103.839 864.42 103.133 865.2 102.67L911.2 75.5898L954.55 84.6998L996.74 49.9398C997.591 49.2799 998.666 48.9778 999.736 49.0974C1000.81 49.2171 1001.79 49.7491 1002.47 50.5807C1003.16 51.4122 1003.49 52.4777 1003.4 53.5511C1003.31 54.6245 1002.81 55.6213 1002 56.3298L956.73 93.6098L912.62 84.3398L869.4 109.8C868.767 110.174 868.045 110.371 867.31 110.37Z" fill="#749D08"/>
<path d="M997.39 70.4298C996.912 70.4295 996.438 70.3449 995.99 70.1798C995.479 69.9964 995.009 69.7141 994.607 69.3488C994.205 68.9836 993.879 68.5426 993.648 68.0513C993.416 67.5599 993.284 67.0278 993.259 66.4853C993.234 65.9428 993.315 65.4006 993.5 64.8898L997.12 54.8898L988.05 55.3298C986.987 55.3307 985.964 54.9227 985.194 54.1902C984.423 53.4577 983.964 52.4568 983.911 51.3951C983.859 50.3333 984.216 49.2919 984.911 48.4867C985.605 47.6815 986.582 47.1742 987.64 47.0698L1009.12 46.0698L1001.28 67.7698C1000.98 68.5554 1000.44 69.2305 999.749 69.7055C999.054 70.1806 998.232 70.4332 997.39 70.4298Z" fill="#749D08"/>
<g opacity="0.5">
<g clip-path="url(#clip4_19_36)">
<mask id="mask6_19_36" style="mask-type:luminance" maskUnits="userSpaceOnUse" x="1350" y="518" width="125" height="125">
<path d="M1376.38 642.837L1474.84 616.456L1448.46 518L1350 544.381L1376.38 642.837Z" fill="white"/>
</mask>
<g mask="url(#mask6_19_36)">
<path d="M1474.84 616.456L1376.38 642.837L1350 544.381L1448.46 518L1474.84 616.456Z" fill="url(#paint12_linear_19_36)"/>
<path d="M1426.76 437.084C1383.89 448.569 1358.85 494.109 1370.83 538.8C1382.8 583.491 1427.26 610.409 1470.12 598.923C1512.99 587.437 1538.03 541.898 1526.06 497.207C1514.08 452.516 1469.62 425.598 1426.76 437.084Z" fill="url(#paint13_radial_19_36)" fill-opacity="0.5"/>
<path d="M1391.25 523.526C1362.09 508.456 1334.36 542.08 1329.31 598.628C1324.26 655.175 1343.81 713.233 1372.97 728.303C1402.13 743.373 1429.87 709.749 1434.91 653.201C1439.96 596.654 1420.41 538.596 1391.25 523.526Z" fill="url(#paint14_radial_19_36)" fill-opacity="0.5"/>
</g>
</g>
</g>
<path d="M1297.83 599.62C1302.11 591.217 1309.5 584.811 1318.42 581.76L1464.67 532.26C1469 530.763 1473.58 530.158 1478.15 530.483C1482.71 530.808 1487.17 532.055 1491.24 534.15C1495.31 536.245 1498.91 539.143 1501.83 542.67C1504.75 546.197 1506.92 550.279 1508.22 554.67L1552.91 702.47C1555.57 711.51 1554.65 721.227 1550.34 729.606C1546.03 737.985 1538.65 744.382 1529.75 747.47L1383.49 797C1379.16 798.49 1374.58 799.088 1370.02 798.758C1365.46 798.427 1361.01 797.174 1356.94 795.076C1352.88 792.978 1349.28 790.077 1346.37 786.549C1343.46 783.021 1341.29 778.939 1340 774.55L1295.31 626.75C1292.6 617.723 1293.5 607.993 1297.83 599.62ZM1547.92 728.36C1551.92 720.65 1552.77 711.685 1550.29 703.36L1505.6 555.56C1504.41 551.512 1502.41 547.749 1499.72 544.497C1497.03 541.245 1493.71 538.572 1489.96 536.641C1486.21 534.709 1482.1 533.559 1477.89 533.26C1473.68 532.961 1469.46 533.519 1465.47 534.9L1319.22 584.4C1311.02 587.248 1304.23 593.142 1300.25 600.86C1296.28 608.578 1295.43 617.53 1297.87 625.86L1342.57 773.66C1343.76 777.706 1345.76 781.468 1348.45 784.718C1351.14 787.968 1354.46 790.64 1358.21 792.571C1361.96 794.502 1366.06 795.653 1370.27 795.953C1374.48 796.254 1378.7 795.698 1382.69 794.32L1529 744.81C1537.2 741.987 1543.98 736.089 1547.92 728.36Z" fill="#749B07"/>
<g clip-path="url(#clip5_19_36)">
<mask id="mask7_19_36" style="mask-type:luminance" maskUnits="userSpaceOnUse" x="1574" y="589" width="90" height="90">
<path d="M1592.98 678.792L1663.79 659.817L1644.82 589L1574 607.975L1592.98 678.792Z" fill="white"/>
</mask>
<g mask="url(#mask7_19_36)">
<path d="M1663.79 659.817L1592.98 678.792L1574 607.975L1644.82 589L1663.79 659.817Z" fill="url(#paint15_linear_19_36)"/>
<path d="M1629.21 530.799C1598.38 539.06 1580.37 571.816 1588.98 603.961C1597.59 636.106 1629.57 655.467 1660.4 647.206C1691.23 638.945 1709.25 606.189 1700.63 574.044C1692.02 541.899 1660.04 522.537 1629.21 530.799Z" fill="url(#paint16_radial_19_36)"/>
<path d="M1603.67 592.975C1582.69 582.135 1562.75 606.32 1559.12 646.994C1555.49 687.667 1569.55 729.427 1590.52 740.266C1611.5 751.106 1631.45 726.921 1635.08 686.247C1638.71 645.574 1624.65 603.814 1603.67 592.975Z" fill="url(#paint17_radial_19_36)"/>
</g>
</g>
<g clip-path="url(#clip6_19_36)">
<mask id="mask8_19_36" style="mask-type:luminance" maskUnits="userSpaceOnUse" x="1303" y="744" width="90" height="90">
<path d="M1321.98 833.792L1392.79 814.817L1373.82 744L1303 762.975L1321.98 833.792Z" fill="white"/>
</mask>
<g mask="url(#mask8_19_36)">
<path d="M1392.79 814.817L1321.98 833.792L1303 762.975L1373.82 744L1392.79 814.817Z" fill="url(#paint18_linear_19_36)"/>
<path d="M1358.21 685.799C1327.38 694.06 1309.37 726.816 1317.98 758.961C1326.59 791.106 1358.57 810.467 1389.4 802.206C1420.23 793.945 1438.25 761.189 1429.63 729.044C1421.02 696.899 1389.04 677.537 1358.21 685.799Z" fill="url(#paint19_radial_19_36)" fill-opacity="0.5"/>
<path d="M1332.67 747.975C1311.69 737.135 1291.75 761.32 1288.12 801.994C1284.49 842.667 1298.55 884.427 1319.52 895.266C1340.5 906.106 1360.45 881.921 1364.08 841.247C1367.71 800.574 1353.65 758.814 1332.67 747.975Z" fill="url(#paint20_radial_19_36)" fill-opacity="0.5"/>
</g>
</g>
<g clip-path="url(#clip7_19_36)">
<mask id="mask9_19_36" style="mask-type:luminance" maskUnits="userSpaceOnUse" x="1417" y="743" width="59" height="59">
<path d="M1429.29 801.834L1475.15 789.546L1462.86 743.688L1417 755.975L1429.29 801.834Z" fill="white"/>
</mask>
<g mask="url(#mask9_19_36)">
<path d="M1475.15 789.546L1429.29 801.834L1417 755.975L1462.86 743.688L1475.15 789.546Z" fill="url(#paint21_linear_19_36)"/>
<path d="M1452.75 705.998C1432.79 711.348 1421.12 732.56 1426.7 753.376C1432.28 774.192 1452.99 786.73 1472.95 781.38C1492.92 776.03 1504.58 754.819 1499 734.002C1493.43 713.186 1472.72 700.648 1452.75 705.998Z" fill="url(#paint22_radial_19_36)" fill-opacity="0.5"/>
<path d="M1436.21 746.262C1422.63 739.242 1409.71 754.904 1407.36 781.243C1405.01 807.581 1414.12 834.623 1427.7 841.643C1441.28 848.662 1454.2 833.001 1456.55 806.662C1458.9 780.323 1449.8 753.281 1436.21 746.262Z" fill="url(#paint23_radial_19_36)" fill-opacity="0.5"/>
</g>
</g>
<g opacity="0.5">
<g clip-path="url(#clip8_19_36)">
<mask id="mask10_19_36" style="mask-type:luminance" maskUnits="userSpaceOnUse" x="1004" y="1250" width="39" height="39">
<path d="M1042.57 1269.57L1023.71 1250.71L1004.86 1269.57L1023.71 1288.42L1042.57 1269.57Z" fill="white"/>
</mask>
<g mask="url(#mask10_19_36)">
<path d="M1023.71 1250.71L1042.57 1269.57L1023.71 1288.42L1004.86 1269.57L1023.71 1250.71Z" fill="url(#paint24_linear_19_36)"/>
<path d="M989.362 1285.07C997.571 1293.28 1011.16 1292.99 1019.72 1284.44C1028.28 1275.88 1028.57 1262.28 1020.36 1254.07C1012.15 1245.86 998.554 1246.15 989.995 1254.71C981.436 1263.27 981.152 1276.86 989.362 1285.07Z" fill="url(#paint25_radial_19_36)" fill-opacity="0.5"/>
<path d="M1013.59 1281.81C1013.99 1290.39 1025.24 1292.27 1038.71 1286.02C1052.18 1279.76 1062.78 1267.74 1062.38 1259.16C1061.98 1250.58 1050.73 1248.7 1037.26 1254.95C1023.79 1261.2 1013.19 1273.23 1013.59 1281.81Z" fill="url(#paint26_radial_19_36)" fill-opacity="0.5"/>
</g>
</g>
</g>
<g clip-path="url(#clip9_19_36)">
<mask id="mask11_19_36" style="mask-type:luminance" maskUnits="userSpaceOnUse" x="1527" y="707" width="44" height="45">
<path d="M1536.28 751.657L1570.72 742.43L1561.49 707.993L1527.06 717.22L1536.28 751.657Z" fill="white"/>
</mask>
<g mask="url(#mask11_19_36)">
<path d="M1570.72 742.43L1536.28 751.657L1527.06 717.22L1561.49 707.993L1570.72 742.43Z" fill="url(#paint27_linear_19_36)"/>
<path d="M1553.9 679.69C1538.91 683.707 1530.15 699.636 1534.34 715.268C1538.53 730.899 1554.08 740.314 1569.07 736.297C1584.06 732.28 1592.82 716.351 1588.63 700.719C1584.45 685.088 1568.9 675.673 1553.9 679.69Z" fill="url(#paint28_radial_19_36)"/>
<path d="M1541.48 709.925C1531.28 704.654 1521.58 716.415 1519.82 736.194C1518.05 755.972 1524.89 776.279 1535.09 781.551C1545.29 786.822 1554.99 775.061 1556.76 755.282C1558.52 735.503 1551.68 715.196 1541.48 709.925Z" fill="url(#paint29_radial_19_36)"/>
</g>
</g>
<g clip-path="url(#clip10_19_36)">
<mask id="mask12_19_36" style="mask-type:luminance" maskUnits="userSpaceOnUse" x="275" y="1196" width="37" height="37">
<path d="M282.676 1232.32L311.321 1224.65L303.646 1196L275 1203.68L282.676 1232.32Z" fill="white"/>
</mask>
<g mask="url(#mask12_19_36)">
<path d="M311.321 1224.65L282.676 1232.32L275 1203.68L303.646 1196L311.321 1224.65Z" fill="url(#paint30_linear_19_36)"/>
<path d="M297.333 1172.46C284.862 1175.8 277.576 1189.05 281.06 1202.05C284.544 1215.05 297.479 1222.89 309.95 1219.54C322.422 1216.2 329.708 1202.95 326.224 1189.95C322.74 1176.95 309.805 1169.12 297.333 1172.46Z" fill="url(#paint31_radial_19_36)"/>
<path d="M287.002 1197.61C278.517 1193.22 270.448 1203.01 268.98 1219.46C267.511 1235.91 273.199 1252.8 281.684 1257.19C290.169 1261.57 298.237 1251.79 299.706 1235.34C301.175 1218.88 295.487 1201.99 287.002 1197.61Z" fill="url(#paint32_radial_19_36)"/>
</g>
</g>
<g clip-path="url(#clip11_19_36)">
<mask id="mask13_19_36" style="mask-type:luminance" maskUnits="userSpaceOnUse" x="1480" y="641" width="24" height="25">
<path d="M1484.89 665.124L1503.12 660.237L1498.24 642L1480 646.886L1484.89 665.124Z" fill="white"/>
</mask>
<g mask="url(#mask13_19_36)">
<path d="M1503.12 660.237L1484.89 665.124L1480 646.886L1498.24 642L1503.12 660.237Z" fill="url(#paint33_linear_19_36)"/>
<path d="M1494.22 627.011C1486.28 629.139 1481.64 637.575 1483.86 645.853C1486.08 654.131 1494.31 659.118 1502.25 656.99C1510.19 654.862 1514.83 646.427 1512.61 638.148C1510.39 629.87 1502.16 624.884 1494.22 627.011Z" fill="url(#paint34_radial_19_36)"/>
<path d="M1487.64 643.024C1482.24 640.232 1477.1 646.461 1476.17 656.935C1475.23 667.41 1478.85 678.164 1484.26 680.956C1489.66 683.747 1494.79 677.519 1495.73 667.044C1496.66 656.57 1493.04 645.815 1487.64 643.024Z" fill="url(#paint35_radial_19_36)"/>
</g>
</g>
<path d="M1488 676.9C1490.96 671.082 1496.07 666.648 1502.25 664.54L1603.51 630.27C1606.51 629.23 1609.68 628.809 1612.84 629.033C1616.01 629.257 1619.09 630.12 1621.91 631.572C1624.73 633.023 1627.22 635.031 1629.24 637.475C1631.26 639.919 1632.77 642.748 1633.66 645.79L1664.6 748.11C1666.44 754.363 1665.81 761.086 1662.83 766.885C1659.85 772.684 1654.76 777.115 1648.6 779.26L1547.34 813.53C1544.34 814.571 1541.17 814.993 1538 814.769C1534.84 814.545 1531.75 813.681 1528.93 812.229C1526.11 810.777 1523.62 808.767 1521.6 806.321C1519.58 803.875 1518.07 801.044 1517.18 798L1486.18 695.68C1484.33 689.421 1484.98 682.686 1488 676.9ZM1661.16 766C1663.94 760.663 1664.53 754.455 1662.81 748.69L1631.87 646.4C1631.05 643.597 1629.66 640.99 1627.8 638.738C1625.94 636.486 1623.64 634.636 1621.04 633.299C1618.44 631.962 1615.6 631.166 1612.68 630.96C1609.77 630.754 1606.84 631.142 1604.08 632.1L1502.82 666.37C1497.14 668.342 1492.44 672.424 1489.69 677.77C1486.94 683.115 1486.35 689.313 1488.05 695.08L1519 797.4C1519.82 800.203 1521.21 802.809 1523.07 805.061C1524.93 807.313 1527.23 809.163 1529.83 810.5C1532.42 811.837 1535.27 812.633 1538.18 812.839C1541.09 813.045 1544.02 812.658 1546.78 811.7L1648 777.43C1653.71 775.483 1658.43 771.381 1661.16 766Z" fill="#749B07"/>
<defs>
<linearGradient id="paint0_linear_19_36" x1="341.798" y1="1380.5" x2="167.927" y2="1458.49" gradientUnits="userSpaceOnUse">
<stop stop-color="#80A203"/>
<stop offset="1" stop-color="#156728"/>
</linearGradient>
<radialGradient id="paint1_radial_19_36" cx="0" cy="0" r="1" gradientUnits="userSpaceOnUse" gradientTransform="translate(239.449 1274.01) rotate(-135) scale(128.394 123.149)">
<stop offset="0.14835" stop-color="#003422"/>
<stop offset="1" stop-color="#20685A" stop-opacity="0"/>
</radialGradient>
<radialGradient id="paint2_radial_19_36" cx="0" cy="0" r="1" gradientUnits="userSpaceOnUse" gradientTransform="translate(234.101 1468.07) rotate(-114.899) scale(157.546 84.3249)">
<stop offset="0.21875" stop-color="#005040"/>
<stop offset="1" stop-color="#20685A" stop-opacity="0"/>
</radialGradient>
<linearGradient id="paint3_linear_19_36" x1="173.55" y1="974.977" x2="230.902" y2="1102.84" gradientUnits="userSpaceOnUse">
<stop stop-color="#80A203"/>
<stop offset="1" stop-color="#156728"/>
</linearGradient>
<radialGradient id="paint4_radial_19_36" cx="0" cy="0" r="1" gradientUnits="userSpaceOnUse" gradientTransform="translate(95.2424 1050.24) rotate(135) scale(94.4175 90.5605)">
<stop offset="0.14835" stop-color="#003422"/>
<stop offset="1" stop-color="#20685A" stop-opacity="0"/>
</radialGradient>
<radialGradient id="paint5_radial_19_36" cx="0" cy="0" r="1" gradientUnits="userSpaceOnUse" gradientTransform="translate(237.949 1054.17) rotate(155.101) scale(115.855 62.0102)">
<stop offset="0.21875" stop-color="#005040"/>
<stop offset="1" stop-color="#20685A" stop-opacity="0"/>
</radialGradient>
<linearGradient id="paint6_linear_19_36" x1="470.493" y1="1904.48" x2="604.594" y2="1130.2" gradientUnits="userSpaceOnUse">
<stop stop-color="#80A203"/>
<stop offset="1" stop-color="#156728"/>
</linearGradient>
<radialGradient id="paint7_radial_19_36" cx="0" cy="0" r="1" gradientUnits="userSpaceOnUse" gradientTransform="translate(1740 1915.92) scale(1103.8 481.66)">
<stop offset="0.14835" stop-color="#003422"/>
<stop offset="1" stop-color="#20685A" stop-opacity="0"/>
</radialGradient>
<radialGradient id="paint8_radial_19_36" cx="0" cy="0" r="1" gradientUnits="userSpaceOnUse" gradientTransform="translate(592.824 1364.43) rotate(9.45282) scale(1289.43 346.434)">
<stop offset="0.21875" stop-color="#005040"/>
<stop offset="1" stop-color="#20685A" stop-opacity="0"/>
</radialGradient>
<linearGradient id="paint9_linear_19_36" x1="752.43" y1="978.362" x2="1322.44" y2="1195.36" gradientUnits="userSpaceOnUse">
<stop stop-color="#80A203"/>
<stop offset="1" stop-color="#156728"/>
</linearGradient>
<radialGradient id="paint10_radial_19_36" cx="0" cy="0" r="1" gradientUnits="userSpaceOnUse" gradientTransform="translate(743.066 1451) rotate(90) scale(410.945 394.157)">
<stop offset="0.14835" stop-color="#003422"/>
<stop offset="1" stop-color="#20685A" stop-opacity="0"/>
</radialGradient>
<radialGradient id="paint11_radial_19_36" cx="0" cy="0" r="1" gradientUnits="userSpaceOnUse" gradientTransform="translate(1194.37 1023.91) rotate(110.101) scale(504.252 269.895)">
<stop offset="0.21875" stop-color="#005040"/>
<stop offset="1" stop-color="#20685A" stop-opacity="0"/>
</radialGradient>
<linearGradient id="paint12_linear_19_36" x1="1471.54" y1="611.565" x2="1347.85" y2="598.911" gradientUnits="userSpaceOnUse">
<stop stop-color="#80A203"/>
<stop offset="1" stop-color="#156728"/>
</linearGradient>
<radialGradient id="paint13_radial_19_36" cx="0" cy="0" r="1" gradientUnits="userSpaceOnUse" gradientTransform="translate(1448.44 518.003) rotate(-105) scale(83.7742 80.3519)">
<stop offset="0.14835" stop-color="#003422"/>
<stop offset="1" stop-color="#20685A" stop-opacity="0"/>
</radialGradient>
<radialGradient id="paint14_radial_19_36" cx="0" cy="0" r="1" gradientUnits="userSpaceOnUse" gradientTransform="translate(1382.11 625.915) rotate(-84.8992) scale(102.795 55.0201)">
<stop offset="0.21875" stop-color="#005040"/>
<stop offset="1" stop-color="#20685A" stop-opacity="0"/>
</radialGradient>
<linearGradient id="paint15_linear_19_36" x1="1661.42" y1="656.299" x2="1572.45" y2="647.198" gradientUnits="userSpaceOnUse">
<stop stop-color="#80A203"/>
<stop offset="1" stop-color="#156728"/>
</linearGradient>
<radialGradient id="paint16_radial_19_36" cx="0" cy="0" r="1" gradientUnits="userSpaceOnUse" gradientTransform="translate(1644.81 589.002) rotate(-105) scale(60.2569 57.7953)">
<stop offset="0.14835" stop-color="#003422"/>
<stop offset="1" stop-color="#20685A" stop-opacity="0"/>
</radialGradient>
<radialGradient id="paint17_radial_19_36" cx="0" cy="0" r="1" gradientUnits="userSpaceOnUse" gradientTransform="translate(1597.1 666.621) rotate(-84.8992) scale(73.9385 39.5747)">
<stop offset="0.21875" stop-color="#005040"/>
<stop offset="1" stop-color="#20685A" stop-opacity="0"/>
</radialGradient>
<linearGradient id="paint18_linear_19_36" x1="1390.42" y1="811.299" x2="1301.45" y2="802.198" gradientUnits="userSpaceOnUse">
<stop stop-color="#80A203"/>
<stop offset="1" stop-color="#156728"/>
</linearGradient>
<radialGradient id="paint19_radial_19_36" cx="0" cy="0" r="1" gradientUnits="userSpaceOnUse" gradientTransform="translate(1373.81 744.002) rotate(-105) scale(60.2569 57.7953)">
<stop offset="0.14835" stop-color="#003422"/>
<stop offset="1" stop-color="#20685A" stop-opacity="0"/>
</radialGradient>
<radialGradient id="paint20_radial_19_36" cx="0" cy="0" r="1" gradientUnits="userSpaceOnUse" gradientTransform="translate(1326.1 821.621) rotate(-84.8992) scale(73.9385 39.5747)">
<stop offset="0.21875" stop-color="#005040"/>
<stop offset="1" stop-color="#20685A" stop-opacity="0"/>
</radialGradient>
<linearGradient id="paint21_linear_19_36" x1="1473.61" y1="787.269" x2="1416" y2="781.375" gradientUnits="userSpaceOnUse">
<stop stop-color="#80A203"/>
<stop offset="1" stop-color="#156728"/>
</linearGradient>
<radialGradient id="paint22_radial_19_36" cx="0" cy="0" r="1" gradientUnits="userSpaceOnUse" gradientTransform="translate(1462.85 743.689) rotate(-105) scale(39.0205 37.4265)">
<stop offset="0.14835" stop-color="#003422"/>
<stop offset="1" stop-color="#20685A" stop-opacity="0"/>
</radialGradient>
<radialGradient id="paint23_radial_19_36" cx="0" cy="0" r="1" gradientUnits="userSpaceOnUse" gradientTransform="translate(1431.96 793.952) rotate(-84.8992) scale(47.8803 25.6273)">
<stop offset="0.21875" stop-color="#005040"/>
<stop offset="1" stop-color="#20685A" stop-opacity="0"/>
</radialGradient>
<linearGradient id="paint24_linear_19_36" x1="1023.04" y1="1252.1" x2="1036.35" y2="1281.78" gradientUnits="userSpaceOnUse">
<stop stop-color="#80A203"/>
<stop offset="1" stop-color="#156728"/>
</linearGradient>
<radialGradient id="paint25_radial_19_36" cx="0" cy="0" r="1" gradientUnits="userSpaceOnUse" gradientTransform="translate(1004.86 1269.57) rotate(135) scale(21.9168 21.0215)">
<stop offset="0.14835" stop-color="#003422"/>
<stop offset="1" stop-color="#20685A" stop-opacity="0"/>
</radialGradient>
<radialGradient id="paint26_radial_19_36" cx="0" cy="0" r="1" gradientUnits="userSpaceOnUse" gradientTransform="translate(1037.98 1270.48) rotate(155.101) scale(26.8931 14.3942)">
<stop offset="0.21875" stop-color="#005040"/>
<stop offset="1" stop-color="#20685A" stop-opacity="0"/>
</radialGradient>
<linearGradient id="paint27_linear_19_36" x1="1569.57" y1="740.719" x2="1526.3" y2="736.293" gradientUnits="userSpaceOnUse">
<stop stop-color="#80A203"/>
<stop offset="1" stop-color="#156728"/>
</linearGradient>
<radialGradient id="paint28_radial_19_36" cx="0" cy="0" r="1" gradientUnits="userSpaceOnUse" gradientTransform="translate(1561.49 707.994) rotate(-105) scale(29.3019 28.1049)">
<stop offset="0.14835" stop-color="#003422"/>
<stop offset="1" stop-color="#20685A" stop-opacity="0"/>
</radialGradient>
<radialGradient id="paint29_radial_19_36" cx="0" cy="0" r="1" gradientUnits="userSpaceOnUse" gradientTransform="translate(1538.29 745.738) rotate(-84.8992) scale(35.9551 19.2445)">
<stop offset="0.21875" stop-color="#005040"/>
<stop offset="1" stop-color="#20685A" stop-opacity="0"/>
</radialGradient>
<linearGradient id="paint30_linear_19_36" x1="310.361" y1="1223.22" x2="274.373" y2="1219.54" gradientUnits="userSpaceOnUse">
<stop stop-color="#80A203"/>
<stop offset="1" stop-color="#156728"/>
</linearGradient>
<radialGradient id="paint31_radial_19_36" cx="0" cy="0" r="1" gradientUnits="userSpaceOnUse" gradientTransform="translate(303.642 1196) rotate(-105) scale(24.3741 23.3784)">
<stop offset="0.14835" stop-color="#003422"/>
<stop offset="1" stop-color="#20685A" stop-opacity="0"/>
</radialGradient>
<radialGradient id="paint32_radial_19_36" cx="0" cy="0" r="1" gradientUnits="userSpaceOnUse" gradientTransform="translate(284.343 1227.4) rotate(-84.8992) scale(29.9084 16.0081)">
<stop offset="0.21875" stop-color="#005040"/>
<stop offset="1" stop-color="#20685A" stop-opacity="0"/>
</radialGradient>
<linearGradient id="paint33_linear_19_36" x1="1502.51" y1="659.331" x2="1479.6" y2="656.987" gradientUnits="userSpaceOnUse">
<stop stop-color="#80A203"/>
<stop offset="1" stop-color="#156728"/>
</linearGradient>
<radialGradient id="paint34_radial_19_36" cx="0" cy="0" r="1" gradientUnits="userSpaceOnUse" gradientTransform="translate(1498.23 642.001) rotate(-105) scale(15.518 14.8841)">
<stop offset="0.14835" stop-color="#003422"/>
<stop offset="1" stop-color="#20685A" stop-opacity="0"/>
</radialGradient>
<radialGradient id="paint35_radial_19_36" cx="0" cy="0" r="1" gradientUnits="userSpaceOnUse" gradientTransform="translate(1485.95 661.99) rotate(-84.8992) scale(19.0415 10.1917)">
<stop offset="0.21875" stop-color="#005040"/>
<stop offset="1" stop-color="#20685A" stop-opacity="0"/>
</radialGradient>
<clipPath id="clip0_19_36">
<rect x="349.926" y="1384.46" width="156.218" height="156.218" rx="33" transform="rotate(135 349.926 1384.46)" fill="white"/>
</clipPath>
<clipPath id="clip1_19_36">
<rect x="176.463" y="969" width="114.879" height="114.879" rx="25" transform="rotate(45 176.463 969)" fill="white"/>
</clipPath>
<clipPath id="clip2_19_36">
<rect width="611" height="1343" fill="white" transform="translate(397 1916) rotate(-90)"/>
</clipPath>
<clipPath id="clip3_19_36">
<rect width="500" height="500" fill="white" transform="translate(863 1051)"/>
</clipPath>
<clipPath id="clip4_19_36">
<rect x="1474.84" y="616.456" width="101.929" height="101.929" rx="16" transform="rotate(165 1474.84 616.456)" fill="white"/>
</clipPath>
<clipPath id="clip5_19_36">
<rect x="1663.79" y="659.817" width="73.3151" height="73.3151" rx="16" transform="rotate(165 1663.79 659.817)" fill="white"/>
</clipPath>
<clipPath id="clip6_19_36">
<rect x="1392.79" y="814.817" width="73.3151" height="73.3151" rx="16" transform="rotate(165 1392.79 814.817)" fill="white"/>
</clipPath>
<clipPath id="clip7_19_36">
<rect x="1475.15" y="789.546" width="47.4766" height="47.4766" rx="11" transform="rotate(165 1475.15 789.546)" fill="white"/>
</clipPath>
<clipPath id="clip8_19_36">
<rect x="1023.71" y="1250.71" width="26.6664" height="26.6664" rx="6" transform="rotate(45 1023.71 1250.71)" fill="white"/>
</clipPath>
<clipPath id="clip9_19_36">
<rect x="1570.72" y="742.43" width="35.6519" height="35.6519" rx="17.826" transform="rotate(165 1570.72 742.43)" fill="white"/>
</clipPath>
<clipPath id="clip10_19_36">
<rect x="311.321" y="1224.65" width="29.6562" height="29.6562" rx="14.8281" transform="rotate(165 311.321 1224.65)" fill="white"/>
</clipPath>
<clipPath id="clip11_19_36">
<rect x="1503.12" y="660.237" width="18.8809" height="18.8809" rx="9.44046" transform="rotate(165 1503.12 660.237)" fill="white"/>
</clipPath>
</defs>
</svg>
