<svg width="707" height="977" viewBox="0 0 707 977" fill="none" xmlns="http://www.w3.org/2000/svg">
<g clip-path="url(#clip0_20_775)">
<path d="M244 929.71C251.34 938.48 264 940.13 275.38 941.15C324.3 945.54 375.5 949.61 420.83 930.7C431.67 926.18 442.01 920.4 453.17 916.7C484.6 906.39 518.65 913.85 551.63 916.38C554.44 916.6 557.39 916.75 559.97 915.59C564.03 913.77 566.08 909.18 566.97 904.82C571.4 883.13 554.69 861.28 533.97 853.56C513.25 845.84 489.97 849.31 468.79 855.75C447.61 862.19 427.22 871.5 405.45 875.51C389.88 878.38 373.96 878.51 358.12 878.51C334.32 878.63 285.81 877.02 266.05 885.92C247.07 894.53 230.69 913.83 244 929.71Z" fill="#5E7C03"/>
<g opacity="0.5">
<g clip-path="url(#clip1_20_775)">
<mask id="mask0_20_775" style="mask-type:luminance" maskUnits="userSpaceOnUse" x="85" y="578" width="268" height="268">
<path d="M352.083 712.144L218.613 578.674L85.1438 712.144L218.613 845.613L352.083 712.144Z" fill="white"/>
</mask>
<g mask="url(#mask0_20_775)">
<path d="M218.613 578.674L352.083 712.144L218.613 845.613L85.1438 712.144L218.613 578.674Z" fill="url(#paint0_linear_20_775)"/>
<path d="M-24.5358 821.859C33.5733 879.968 129.793 877.962 190.377 817.378C250.961 756.793 252.968 660.574 194.858 602.464C136.749 544.355 40.5295 546.362 -20.0546 606.946C-80.6386 667.53 -82.6449 763.75 -24.5358 821.859Z" fill="url(#paint1_radial_20_775)" fill-opacity="0.5"/>
<path d="M146.973 798.768C149.807 859.49 229.409 872.833 324.769 828.569C420.13 784.306 495.138 699.199 492.304 638.477C489.471 577.755 409.869 564.412 314.508 608.675C219.148 652.939 144.14 738.046 146.973 798.768Z" fill="url(#paint2_radial_20_775)" fill-opacity="0.5"/>
</g>
</g>
</g>
<path d="M343.2 883.75C325.665 883.828 308.79 877.074 296.15 864.92L89.8601 665.27C83.7012 659.393 78.7986 652.328 75.4489 644.502C72.0992 636.677 70.3721 628.252 70.3721 619.74C70.3721 611.227 72.0992 602.803 75.4489 594.977C78.7986 587.151 83.7012 580.086 89.8601 574.21L296.15 374.55C322.09 349.44 364.3 349.44 390.24 374.55L596.54 574.21C602.696 580.088 607.597 587.153 610.945 594.979C614.293 602.805 616.019 611.228 616.019 619.74C616.019 628.252 614.293 636.675 610.945 644.501C607.597 652.326 602.696 659.392 596.54 665.27L390.24 864.92C377.605 877.074 360.732 883.828 343.2 883.75ZM343.2 360.75C327.045 360.684 311.499 366.906 299.85 378.1L93.5501 577.78C87.8762 583.196 83.3598 589.706 80.2741 596.917C77.1883 604.129 75.5973 611.891 75.5973 619.735C75.5973 627.579 77.1883 635.341 80.2741 642.552C83.3598 649.763 87.8762 656.274 93.5501 661.69L299.85 861.35C323.75 884.48 362.65 884.48 386.55 861.35L592.84 661.69C598.514 656.274 603.03 649.763 606.116 642.552C609.202 635.341 610.793 627.579 610.793 619.735C610.793 611.891 609.202 604.129 606.116 596.917C603.03 589.706 598.514 583.196 592.84 577.78L386.55 378.12C374.902 366.926 359.355 360.704 343.2 360.77V360.75Z" fill="#749B07"/>
<g clip-path="url(#clip2_20_775)">
<mask id="mask1_20_775" style="mask-type:luminance" maskUnits="userSpaceOnUse" x="34" y="222" width="195" height="195">
<path d="M228.871 319.129L131.741 222L34.6118 319.129L131.741 416.259L228.871 319.129Z" fill="white"/>
</mask>
<g mask="url(#mask1_20_775)">
<path d="M131.741 222L228.871 319.129L131.741 416.259L34.6118 319.129L131.741 222Z" fill="url(#paint3_linear_20_775)"/>
<path d="M-45.205 398.972C-2.91737 441.259 67.1045 439.799 111.193 395.711C155.282 351.622 156.742 281.6 114.454 239.313C72.1666 197.025 2.14481 198.485 -41.9439 242.574C-86.0326 286.662 -87.4926 356.684 -45.205 398.972Z" fill="url(#paint4_radial_20_775)" fill-opacity="0.5"/>
<path d="M79.6064 382.168C81.6684 426.357 139.597 436.067 208.993 403.855C278.39 371.644 332.975 309.709 330.913 265.52C328.851 221.331 270.923 211.621 201.526 243.832C132.13 276.044 77.5444 337.979 79.6064 382.168Z" fill="url(#paint5_radial_20_775)" fill-opacity="0.5"/>
</g>
</g>
<g clip-path="url(#clip3_20_775)">
<mask id="mask2_20_775" style="mask-type:luminance" maskUnits="userSpaceOnUse" x="246" y="495" width="42" height="42">
<path d="M254.999 536.725L287.823 527.93L279.028 495.105L246.204 503.901L254.999 536.725Z" fill="white"/>
</mask>
<g mask="url(#mask2_20_775)">
<path d="M287.823 527.93L254.999 536.725L246.204 503.901L279.028 495.105L287.823 527.93Z" fill="url(#paint6_linear_20_775)"/>
<path d="M271.795 468.129C257.504 471.958 249.155 487.14 253.148 502.04C257.14 516.939 271.961 525.913 286.252 522.084C300.543 518.255 308.892 503.072 304.899 488.173C300.907 473.274 286.086 464.299 271.795 468.129Z" fill="url(#paint7_radial_20_775)"/>
<path d="M259.956 496.948C250.233 491.924 240.987 503.134 239.305 521.986C237.622 540.839 244.139 560.195 253.862 565.219C263.584 570.243 272.83 559.033 274.513 540.181C276.196 521.328 269.678 501.972 259.956 496.948Z" fill="url(#paint8_radial_20_775)"/>
</g>
</g>
<g clip-path="url(#clip4_20_775)">
<mask id="mask3_20_775" style="mask-type:luminance" maskUnits="userSpaceOnUse" x="436" y="429" width="124" height="124">
<path d="M559.883 491.092L498.304 429.513L436.724 491.092L498.304 552.672L559.883 491.092Z" fill="white"/>
</mask>
<g mask="url(#mask3_20_775)">
<path d="M498.304 429.513L559.883 491.092L498.304 552.672L436.724 491.092L498.304 429.513Z" fill="url(#paint9_linear_20_775)"/>
<path d="M386.121 541.712C412.931 568.522 457.324 567.597 485.276 539.645C513.228 511.693 514.154 467.299 487.344 440.489C460.534 413.679 416.14 414.604 388.188 442.556C360.236 470.508 359.311 514.902 386.121 541.712Z" fill="url(#paint10_radial_20_775)" fill-opacity="0.5"/>
<path d="M465.251 531.059C466.558 559.075 503.284 565.23 547.281 544.809C591.278 524.387 625.885 485.12 624.578 457.104C623.271 429.089 586.544 422.933 542.547 443.355C498.55 463.777 463.943 503.043 465.251 531.059Z" fill="url(#paint11_radial_20_775)" fill-opacity="0.5"/>
</g>
</g>
<g clip-path="url(#clip5_20_775)">
<mask id="mask4_20_775" style="mask-type:luminance" maskUnits="userSpaceOnUse" x="510" y="544" width="195" height="195">
<path d="M704.5 641.5L607.58 544.58L510.66 641.5L607.58 738.42L704.5 641.5Z" fill="white"/>
</mask>
<g mask="url(#mask4_20_775)">
<path d="M607.58 544.58L704.5 641.5L607.58 738.42L510.66 641.5L607.58 544.58Z" fill="url(#paint12_linear_20_775)"/>
<path d="M431.015 721.17C473.212 763.367 543.082 761.91 587.076 717.916C631.07 673.923 632.527 604.052 590.33 561.856C548.134 519.659 478.263 521.116 434.269 565.11C390.276 609.103 388.819 678.974 431.015 721.17Z" fill="url(#paint13_radial_20_775)" fill-opacity="0.5"/>
<path d="M555.558 704.403C557.616 748.497 615.42 758.186 684.666 726.044C753.913 693.902 808.381 632.1 806.323 588.006C804.266 543.913 746.462 534.224 677.215 566.366C607.968 598.508 553.501 660.309 555.558 704.403Z" fill="url(#paint14_radial_20_775)" fill-opacity="0.5"/>
</g>
</g>
<path d="M309.12 503.58C296.986 503.642 285.305 498.98 276.55 490.58L133.72 352.31C129.463 348.242 126.074 343.353 123.759 337.939C121.444 332.525 120.251 326.698 120.251 320.81C120.251 314.922 121.444 309.095 123.759 303.681C126.074 298.267 129.463 293.378 133.72 289.31L276.55 151C285.327 142.628 296.99 137.958 309.12 137.958C321.249 137.958 332.912 142.628 341.69 151L484.52 289.27C488.777 293.338 492.165 298.227 494.48 303.641C496.795 309.055 497.988 314.882 497.988 320.77C497.988 326.658 496.795 332.485 494.48 337.899C492.165 343.313 488.777 348.202 484.52 352.27L341.69 490.55C332.938 498.959 321.257 503.632 309.12 503.58ZM309.12 141.5C297.941 141.454 287.183 145.757 279.12 153.5L136.28 291.74C132.348 295.488 129.219 299.996 127.081 304.989C124.943 309.983 123.84 315.358 123.84 320.79C123.84 326.222 124.943 331.597 127.081 336.591C129.219 341.584 132.348 346.091 136.28 349.84L279.1 488.07C287.188 495.773 297.93 500.07 309.1 500.07C320.269 500.07 331.011 495.773 339.1 488.07L482 349.84C485.928 346.09 489.055 341.582 491.192 336.589C493.329 331.596 494.43 326.221 494.43 320.79C494.43 315.359 493.329 309.984 491.192 304.991C489.055 299.998 485.928 295.49 482 291.74L339.13 153.51C331.069 145.756 320.304 141.448 309.12 141.5Z" fill="#749B07"/>
<mask id="mask5_20_775" style="mask-type:luminance" maskUnits="userSpaceOnUse" x="85" y="725" width="236" height="125">
<path d="M85.5596 725.84C300.89 731.68 320.86 835.05 320.86 835.05L310.24 849.43L85.5596 725.84Z" fill="white"/>
</mask>
<g mask="url(#mask5_20_775)">
<mask id="mask6_20_775" style="mask-type:luminance" maskUnits="userSpaceOnUse" x="80" y="720" width="246" height="135">
<path d="M325.86 720.84H80.5596V854.43H325.86V720.84Z" fill="white"/>
</mask>
<g mask="url(#mask6_20_775)">
<rect x="71" y="900" width="212" height="307" transform="rotate(-90 71 900)" fill="url(#paint15_linear_20_775)"/>
</g>
</g>
<mask id="mask7_20_775" style="mask-type:luminance" maskUnits="userSpaceOnUse" x="85" y="726" width="218" height="156">
<path d="M85.6602 726C194.81 911.71 295 879.25 295 879.25L302.42 863L85.6602 726Z" fill="white"/>
</mask>
<g mask="url(#mask7_20_775)">
<mask id="mask8_20_775" style="mask-type:luminance" maskUnits="userSpaceOnUse" x="80" y="721" width="228" height="166">
<path d="M307.42 721H80.6602V886.43H307.42V721Z" fill="white"/>
</mask>
<g mask="url(#mask8_20_775)">
<rect x="69" y="922" width="212" height="307" transform="rotate(-90 69 922)" fill="url(#paint16_linear_20_775)"/>
</g>
</g>
<path d="M155.89 764.53L141.14 729.9" stroke="#003E24" stroke-width="2" stroke-miterlimit="10"/>
<path d="M172.85 781.11L133.77 795.58" stroke="#003E24" stroke-width="2" stroke-miterlimit="10"/>
<path d="M197.9 787.64L183.3 737.18" stroke="#003E24" stroke-width="2" stroke-miterlimit="10"/>
<path d="M217.68 809.44L167.22 833.67" stroke="#003E24" stroke-width="2" stroke-miterlimit="10"/>
<path d="M129.04 753.41L103.01 753.85" stroke="#003E24" stroke-width="2" stroke-miterlimit="10"/>
<path d="M251.62 817.19L230.45 751.65" stroke="#003E24" stroke-width="2" stroke-miterlimit="10"/>
<path d="M269.73 844.73L214.79 864.76" stroke="#003E24" stroke-width="2" stroke-miterlimit="10"/>
<path d="M290.9 838.8L277.63 777.63" stroke="#003E24" stroke-width="2" stroke-miterlimit="10"/>
<path d="M302.42 863L265.03 880.79" stroke="#003E24" stroke-width="2" stroke-miterlimit="10"/>
<mask id="mask9_20_775" style="mask-type:luminance" maskUnits="userSpaceOnUse" x="172" y="574" width="148" height="224">
<path d="M172.24 574.56C353.05 691.66 316.24 790.31 316.24 790.31L299.69 797.06L172.24 574.56Z" fill="white"/>
</mask>
<g mask="url(#mask9_20_775)">
<mask id="mask10_20_775" style="mask-type:luminance" maskUnits="userSpaceOnUse" x="167" y="569" width="158" height="234">
<path d="M324.36 569.56H167.24V802.06H324.36V569.56Z" fill="white"/>
</mask>
<g mask="url(#mask10_20_775)">
<rect x="140" y="560" width="171" height="308" fill="url(#paint17_linear_20_775)"/>
</g>
</g>
<mask id="mask11_20_775" style="mask-type:luminance" maskUnits="userSpaceOnUse" x="172" y="574" width="114" height="241">
<path d="M172.25 574.74C168.74 790.13 271.15 814.56 271.15 814.56L285.97 804.56L172.25 574.74Z" fill="white"/>
</mask>
<g mask="url(#mask11_20_775)">
<mask id="mask12_20_775" style="mask-type:luminance" maskUnits="userSpaceOnUse" x="167" y="569" width="124" height="251">
<path d="M290.98 569.74H167.16V819.55H290.98V569.74Z" fill="white"/>
</mask>
<g mask="url(#mask12_20_775)">
<rect x="131" y="555" width="171" height="308" fill="url(#paint18_linear_20_775)"/>
</g>
</g>
<path d="M212.14 644.21L217.58 606.96" stroke="#003E24" stroke-width="2" stroke-miterlimit="10"/>
<path d="M217.99 667.19L177.1 659.2" stroke="#003E24" stroke-width="2" stroke-miterlimit="10"/>
<path d="M235.98 685.81L249.78 635.12" stroke="#003E24" stroke-width="2" stroke-miterlimit="10"/>
<path d="M241.51 714.72L185.82 709.13" stroke="#003E24" stroke-width="2" stroke-miterlimit="10"/>
<path d="M195.01 620.74L172.56 607.56" stroke="#003E24" stroke-width="2" stroke-miterlimit="10"/>
<path d="M266.46 739.01L282.5 672.03" stroke="#003E24" stroke-width="2" stroke-miterlimit="10"/>
<path d="M267.58 771.95L210.24 760.45" stroke="#003E24" stroke-width="2" stroke-miterlimit="10"/>
<path d="M288.75 777.91L309.26 718.78" stroke="#003E24" stroke-width="2" stroke-miterlimit="10"/>
<path d="M285.97 804.58L244.79 800.3" stroke="#003E24" stroke-width="2" stroke-miterlimit="10"/>
<path d="M511.88 894.58C516 898.05 517.34 902.01 515.97 905.37C497.11 915.11 464.09 911.29 438.97 906.14C427.592 903.825 416.338 900.941 405.25 897.5C404.37 888.41 402.95 879.25 410.11 871.18C411.04 871.47 412.32 871.47 412.85 872.09C422.43 883.27 432.15 884.09 442.53 874.32C445.44 871.491 449.221 869.729 453.26 869.32C462.31 873.32 468.6 881.57 478.31 884.88C485.25 887.24 492.31 888.06 499.38 889.57C503.9 890.49 508.3 891.56 511.88 894.58Z" fill="#83484B"/>
<path d="M516 905.37C515.09 907.65 512.94 909.65 509.58 911.06C502.83 913.89 495.64 914.96 488.33 915.65C472.57 917.16 457.13 917.48 442.6 909.46C441.383 908.727 440.071 908.165 438.7 907.79L439.04 906.14C464.09 911.29 497.11 915.11 516 905.37Z" fill="#06122E"/>
<path d="M439 906.13L438.66 907.78C436.51 907.3 434.27 907.78 432.3 910.83C430.87 913.06 408.72 909.9 406.51 907.83C406.16 907.51 405.62 907.07 405.64 906.71C405.764 903.615 405.643 900.516 405.28 897.44C416.368 900.898 427.622 903.798 439 906.13Z" fill="#06122E"/>
<path d="M373.71 914.14C376.01 917.35 376.71 920.4 376.01 922.96C358.42 933.42 323.4 922.85 297.46 912.32C279.16 904.89 265.38 897.49 265.38 897.49C266.15 888.76 266.23 879.85 273.57 873.02C275.57 872.88 276.93 872.96 278.11 875.49C282.85 885.55 296.11 888.59 304.97 882.13C309.09 879.13 313.52 876.83 318.97 878.13C326.73 884.24 332.37 892.58 341.08 897.86C347.73 901.86 355.26 902.92 362.08 906.1C366.46 908.12 370.77 910.07 373.71 914.14Z" fill="#834D4A"/>
<path d="M376 923C375.2 925.81 372.63 928 368.46 929.24C362.52 930.95 356.46 930.95 350.37 930.55C333.18 929.44 315.99 928.45 301.56 916.92C300.169 915.635 298.574 914.591 296.84 913.83L297.44 912.36C323.39 922.85 358.41 933.42 376 923Z" fill="#06122E"/>
<path d="M297.45 912.32L296.85 913.79C296.032 913.473 295.146 913.377 294.28 913.51C292.611 913.904 291.145 914.897 290.16 916.3C288.61 918.18 266.02 910.82 264.53 908.56C264.092 907.941 263.896 907.184 263.98 906.43C264.374 904.923 264.678 903.394 264.89 901.85C265.09 900.41 265.25 898.95 265.37 897.49C265.37 897.49 279.15 904.89 297.45 912.32Z" fill="#06122E"/>
<path d="M318.92 878.1C313.51 876.83 309.08 879.1 304.92 882.1C296.08 888.56 282.8 885.53 278.06 875.47C276.87 872.94 275.56 872.86 273.52 873C279.89 869.62 278.19 862.84 280.04 857.56C285.89 857.13 290.49 860.87 295.77 862.36C304.738 864.904 313.93 866.578 323.22 867.36C317.24 869.09 319.7 874.25 318.92 878.1Z" fill="#F4A994"/>
<path d="M453.3 869.27C449.264 869.686 445.485 871.447 442.57 874.27C432.19 884.02 422.47 883.27 412.89 872.04C412.36 871.41 411.08 871.42 410.15 871.13C415.73 868.06 411.37 861.43 414.97 857.64C427.54 857.96 440.12 859.64 452.68 857.44C452.894 861.4 453.1 865.343 453.3 869.27Z" fill="#F4A994"/>
<path d="M564.48 223.82C571.6 235.04 573.42 246.66 569.48 259.3C564.11 276.72 550.8 283.54 534.12 285.63C517.44 287.72 501.36 284.73 485.32 280.76C478.45 279.06 471.48 277.71 464.69 275.76C460.38 274.51 459.5 275.71 459.69 279.91C461.23 312.004 462.666 344.11 464 376.23C465.2 406.29 467 436.3 471.14 466.12C472.02 472.58 474.14 478.79 474.58 485.45C474.75 488.02 474.29 489.62 472.69 490.08C466.62 491.8 466.58 496.17 466.69 501.21C467.38 539.68 468.42 578.15 468.27 616.62C468.21 632.85 468.7 649.1 467.08 665.46C465.66 679.74 465.22 694.37 464.82 708.87C464.25 729.06 462.77 749.26 461.87 769.47C461.1 786.66 459.59 803.82 458.87 821.03C458.49 830.49 457.17 840.03 457.71 849.48C458.01 854.84 455.87 857.33 451.05 858.33C438.5 860.51 425.92 858.84 413.35 858.53C406.42 857.73 404.35 853.83 403.87 846.94C399.98 793.65 400.31 740.31 400.87 686.94C400.94 679.79 400.38 672.94 398.03 666.13C394.39 655.62 392.08 644.73 390.08 633.77C389.53 630.71 390.03 627.03 386.51 624.77C380.23 650.86 374.13 676.84 367.69 702.77C354.39 756 341 809.1 327.65 862.28C326.82 865.6 326.08 868.78 321.57 868.19C312.279 867.415 303.086 865.74 294.12 863.19C288.83 861.69 284.23 857.96 278.38 858.39C273.49 854.91 273.38 850.39 274.11 844.73C279.77 803.73 284.06 762.41 293.26 721.97C298.917 697.858 301.604 673.145 301.26 648.38C300.49 607.19 303.33 565.99 301.81 524.78C301.58 518.52 302.92 511.93 296.94 506.73C295.07 505.11 295.21 500.49 295.4 497.3C296.98 471.54 296.34 445.75 296.4 418.3C304.2 423.51 311.21 428.08 318.11 432.81C334.73 444.19 334.11 446.06 346.11 427.57C352.72 417.4 359.76 407.52 366.44 397.4C367.71 395.49 370.32 394.04 369.44 391.06L369.25 390.75L370.92 390.58C372.92 388.36 375.65 387.95 378.4 387.58C384.399 386.744 390.234 384.99 395.7 382.38C406.37 377.44 412 368.05 410.22 357.89C408.75 349.47 407.48 341.13 409.89 332.68C414.31 326.68 410.2 323.5 405.78 320.5C386.233 307.207 366.663 293.947 347.07 280.72C337.21 274.06 335.73 274.43 329.07 284.28C318.776 299.46 308.466 314.627 298.14 329.78L296.64 329.42C296.64 318.42 296.55 304.67 296.55 292.68C288.8 302.87 282.69 311.45 275.98 319.53C272.44 323.79 273.92 324.95 278.17 326.58C284.33 328.94 290.486 331.29 296.64 333.63V333.77C296.7 333.77 296.74 333.77 296.79 333.69C312.55 339.69 328.38 345.52 344.45 350.69C346.1 351.22 347.87 351.48 349.04 352.59C349.633 353.175 350.037 353.924 350.2 354.74C350.246 358.127 350.173 361.503 349.98 364.87C349.86 366.99 349.683 369.107 349.45 371.22C349.36 372.13 349.25 373.04 349.13 373.93C348.8 376.48 348.39 379 347.9 381.53C347.84 381.87 347.77 382.21 347.7 382.53C347.306 384.47 346.866 386.41 346.38 388.35C344.38 394.7 340.38 394.97 334.26 393.97C310.56 390.08 286.93 385.97 263.78 379.69C255.22 377.4 246.73 374.81 238.32 371.85C229.707 368.913 221.471 364.972 213.78 360.11C205.46 354.73 202.04 347.37 203.32 337.51C205.21 323.02 210.1 309.51 216.56 296.56C233.5 262.67 255.5 232.15 279.74 203.16C288.13 193.16 299.74 188.84 311.51 184.97C319.28 182.42 327.46 181.3 333.92 175.22C337.08 172.22 341.92 171.05 346.01 169.06C347.093 168.449 348.307 168.106 349.55 168.06C351.18 168.12 351.91 169.62 352.13 173.06C352.549 179.049 353.77 184.955 355.76 190.62C358.62 199.05 362.76 207.03 367.04 214.87C376.41 232.2 386.85 248.95 396.82 265.96C399.21 270.27 401.63 274.57 403.97 278.91C404.71 280.29 403.84 282.91 406.49 282.77C408.83 282.68 408.8 280.42 409.12 278.77C411.87 265.16 414.54 251.54 417.23 237.92C422.57 221.29 424.09 204.37 420.81 187.16C420.806 187.12 420.806 187.08 420.81 187.04C420.04 183.26 417.19 180.64 414.51 178.04C415.08 176.78 413.68 175.29 414.19 174.04C414.372 173.617 414.688 173.266 415.09 173.04C437.16 181.58 456.64 195.73 479.79 203.57C471.79 191.57 464.28 180.18 456.46 169.02C453.67 165.02 452.13 161.3 454.27 156.67C459.887 149.872 466.514 143.977 473.92 139.19C476.73 138.68 479.17 136.67 482.37 139.24C513.24 164.12 543 189.94 564.48 223.82Z" fill="#003E24"/>
<path d="M462.78 118.77C469.65 123.77 471.78 131.62 473.93 139.29C466.524 144.077 459.897 149.972 454.28 156.77C450.46 155.93 447.77 153.38 445.09 150.77C444.99 149.04 445.66 148.27 447.5 147.77C453.62 146.12 453.89 142.47 450.45 137.85C446.45 145.99 443.55 147.06 438.45 141.1C439.5 141.81 440.34 126.55 440.34 126.55C440.34 126.55 447.97 121.46 449.67 124.86C449.67 124.86 450.52 121.46 440.34 121.46L440.07 102.73C440.65 103.56 441.391 104.264 442.25 104.8C449.19 109.32 456.09 113.91 462.78 118.77Z" fill="#9E634B"/>
<path d="M450.45 137.88C453.89 142.5 453.62 146.15 447.5 147.8C445.66 148.3 444.99 149.07 445.09 150.8C441.09 149.06 437.65 156.35 433.44 151.55C433.406 150.79 433.423 150.028 433.49 149.27C433.49 149.17 433.49 149.07 433.49 148.97C433.54 148.5 433.6 148.04 433.68 147.58C433.68 147.32 433.77 147.06 433.82 146.8C433.92 146.3 434.04 145.8 434.16 145.29C434.36 144.54 434.58 143.78 434.8 143.03C434.96 142.53 435.13 142.03 435.29 141.51C435.37 141.27 435.46 141.01 435.53 140.76C435.79 140 436.03 139.23 436.27 138.46C436.809 139.488 437.535 140.407 438.41 141.17C443.55 147.09 446.48 146 450.45 137.88Z" fill="#1B2A50"/>
<path d="M440.34 121.49C450.52 121.49 449.67 124.89 449.67 124.89C447.97 121.49 440.34 126.58 440.34 126.58C440.34 126.58 439.5 141.84 438.45 141.13C437.78 140.35 437.06 139.45 436.31 138.42C437.36 135.01 438.45 98.1001 438.45 98.1001C438.671 99.7434 439.222 101.325 440.07 102.75L440.34 121.49Z" fill="#806255"/>
<path d="M438.45 98.1001L440.07 102.75C439.222 101.325 438.671 99.7434 438.45 98.1001Z" fill="#DC8373"/>
<path d="M438.45 98.1C438.45 98.1 437.36 135.01 436.31 138.42C436.07 139.19 435.82 139.96 435.57 140.72C435.5 140.97 435.41 141.23 435.33 141.47C435.16 141.98 435 142.47 434.84 142.99C434.62 143.73 434.4 144.5 434.2 145.25C434.07 145.76 433.96 146.25 433.86 146.76C433.8 147.02 433.76 147.27 433.72 147.54C433.64 147.99 433.57 148.47 433.53 148.93C433.53 149.03 433.53 149.13 433.53 149.23C433.459 149.988 433.442 150.75 433.48 151.51C432.88 152.38 432.31 153.26 431.76 154.15C430.05 157.094 428.149 159.923 426.07 162.62C425.74 163.02 425.39 163.4 425.07 163.78C424.89 163.97 424.72 164.16 424.53 164.34C422.222 166.688 419.301 168.34 416.1 169.11C414.49 169.5 414.81 171.58 415.17 173.11C414.769 173.336 414.453 173.687 414.27 174.11H414.22C414.73 172.712 414.954 171.226 414.88 169.74C404.639 166.841 394.576 163.349 384.74 159.28C379.59 157.1 372.74 155.51 368.37 152.91C361.62 148.91 360.42 143.14 358.06 138.91C359.06 134.17 364.15 129.69 359.93 124.6C356.74 120.74 355.09 116.35 353.84 111.77C352.59 107.19 349.65 101.98 354.93 98.66C360.21 95.34 363.57 100.31 366.98 103.56C367.29 103.86 367.88 103.86 368.35 104C372.62 95 373.97 85.19 376.21 75.66C377.3 71 379.16 69.95 384.01 70.36C400.92 71.8 417.77 71.05 434.21 66.23C439.17 76.34 436.34 87.55 438.45 98.1Z" fill="#9E634B"/>
<path d="M438.45 141.13C437.575 140.367 436.849 139.448 436.31 138.42C437.06 139.45 437.78 140.35 438.45 141.13Z" fill="#DC8373"/>
<path d="M427.27 50.3098C431.5 54.6898 435.57 59.3098 434.14 66.2198C417.7 71.0398 400.85 71.7898 383.94 70.3498C379.09 69.9398 377.23 70.9898 376.14 75.6498C373.9 85.1798 372.55 94.9998 368.28 104C367.81 103.86 367.22 103.86 366.91 103.56C363.5 100.31 360.25 95.2798 354.86 98.6598C349.47 102.04 352.56 107.33 353.77 111.77C354.98 116.21 356.67 120.77 359.86 124.6C364.08 129.69 359.02 134.17 357.99 138.91C350.99 132.91 349.73 124.16 347.64 115.91C343.267 99.2687 342.835 81.8368 346.38 64.9998C350.38 46.1698 376.88 33.0598 395.54 35.2298C407.91 36.6798 418.62 41.3398 427.27 50.3098Z" fill="#302827"/>
<path d="M420.84 187.22C424.12 204.43 422.6 221.35 417.26 237.98C415.88 226.62 408.34 216.27 410.99 204.12H411.1C413.64 199.88 414.33 195.56 415.87 193.56L420.43 187.16L420.82 187.08C420.821 187.127 420.828 187.174 420.84 187.22Z" fill="#FDFDFD"/>
<path d="M420.82 187.1L420.43 187.18L415.87 193.58C414.33 195.58 413.64 199.9 411.1 204.14H410.99C411.244 203.011 411.579 201.902 411.99 200.82C413.49 196.74 408.49 194.65 405.07 193.03C402.01 191.57 399.67 193.03 397.91 195.48C395.86 198.33 394.64 201.65 397.45 204.48C398.132 205.153 398.717 205.917 399.19 206.75C396.67 207.56 365.42 198.53 364.5 196.56L356 190.57L355.78 190.65C353.791 184.985 352.57 179.079 352.15 173.09C351.93 169.61 351.15 168.09 349.57 168.09L356 164.6L357.07 164.39C358.62 172.92 365.27 178.88 373.19 184.16C388.66 194.48 406.19 191.74 414.51 178.1C417.2 180.7 420.05 183.32 420.82 187.1Z" fill="#FDFDFD"/>
<path d="M414.2 174.09C413.69 175.35 415.09 176.84 414.52 178.09C406.17 191.73 388.67 194.47 373.2 184.15C365.28 178.87 358.63 172.91 357.08 164.38C356.436 160.362 356.758 156.249 358.02 152.38C359.26 148.26 358.07 143.38 358.02 138.9C358.02 138.9 359.02 146.08 360.7 147.77C361.17 148.25 361.09 150.5 366.63 153.7C380.82 161.91 410.32 176.2 413.63 174.59C413.63 174.59 413.89 174.59 414.14 174.06L414.2 174.09Z" fill="#9E634B"/>
<path d="M414.81 169.69C414.884 171.176 414.66 172.662 414.15 174.06C413.9 174.57 413.67 174.59 413.64 174.59C410.29 176.2 380.79 161.91 366.64 153.7C361.1 150.5 361.18 148.25 360.71 147.77C359.01 146.08 358.03 138.9 358.03 138.9C360.39 143.09 361.59 148.9 368.34 152.9C372.75 155.5 379.56 157.09 384.71 159.27C394.533 163.324 404.584 166.803 414.81 169.69Z" fill="#806255"/>
<path d="M399.17 206.7C398.697 205.867 398.112 205.103 397.43 204.43C394.62 201.63 395.84 198.31 397.89 195.43C399.65 192.96 401.99 191.52 405.05 192.98C408.47 194.6 413.47 196.69 411.97 200.77C411.558 201.852 411.224 202.961 410.97 204.09C408.32 216.24 415.86 226.59 417.24 237.95C414.55 251.57 411.88 265.19 409.13 278.8C408.81 280.42 408.84 282.68 406.5 282.8C403.85 282.9 404.72 280.32 403.98 278.94C401.64 274.6 399.22 270.3 396.83 265.99C399.05 257.64 398.77 249.06 399.15 240.54C399.52 232.23 400 223.91 400.51 215.6C400.73 212.42 400.73 209.43 399.17 206.7Z" fill="#003E24"/>
<path d="M410.26 357.94C412.04 368.1 406.41 377.49 395.74 382.43C390.274 385.04 384.439 386.794 378.44 387.63C375.69 388 372.96 388.41 370.96 390.63L369.66 389.74C369.54 390.09 369.42 390.45 369.29 390.8L369.48 391.11C365.17 387.36 359.96 390.11 355.24 389.19C352.315 388.751 349.367 388.487 346.41 388.4C346.897 386.46 347.337 384.52 347.73 382.58C347.8 382.24 347.87 381.9 347.93 381.58C348.42 379.05 348.83 376.53 349.16 373.98C349.28 373.08 349.39 372.18 349.48 371.27C349.707 369.157 349.883 367.04 350.01 364.92C350.22 361.56 350.29 358.18 350.24 354.79C357.02 353.9 360.86 349.31 363.42 343.64C367.83 333.88 375.64 327.98 384.96 323.59C386.78 322.73 388.71 321.14 390.15 323.59C390.644 324.496 390.791 325.55 390.565 326.556C390.339 327.563 389.754 328.453 388.92 329.06C387.385 330.353 385.708 331.467 383.92 332.38C379.49 334.6 378.19 338.25 378.21 342.93C378.23 347.61 380.04 348.26 383.56 345.77C389.713 341.437 395.827 337.05 401.9 332.61C404.65 330.61 407.32 328.61 409.9 332.76C407.52 341.18 408.79 349.52 410.26 357.94Z" fill="#9E634B"/>
<path d="M405.82 320.55C410.24 323.55 414.35 326.73 409.93 332.73C407.34 328.55 404.67 330.59 401.93 332.58C395.85 337.014 389.736 341.4 383.59 345.74C380.07 348.23 378.27 347.62 378.24 342.9C378.21 338.18 379.52 334.57 383.95 332.35C385.737 331.438 387.415 330.324 388.95 329.03C389.784 328.423 390.368 327.533 390.595 326.527C390.821 325.52 390.673 324.466 390.18 323.56C388.74 321.11 386.81 322.7 384.99 323.56C375.67 327.95 367.86 333.85 363.45 343.61C360.89 349.28 357.05 353.87 350.27 354.76C350.106 353.942 349.698 353.192 349.1 352.61C347.93 351.5 346.16 351.24 344.51 350.71C328.44 345.57 312.61 339.71 296.85 333.71C297.32 333.17 297.72 329.71 298.2 329.8C308.506 314.634 318.816 299.467 329.13 284.3C335.8 274.45 337.28 274.08 347.13 280.74C366.71 293.98 386.273 307.25 405.82 320.55Z" fill="#FDFDFD"/>
<path d="M399.17 206.7C400.73 209.43 400.73 212.42 400.53 215.6C400.02 223.91 399.53 232.23 399.17 240.54C398.79 249.06 399.07 257.64 396.85 265.99C386.85 248.99 376.44 232.23 367.07 214.9C362.83 207.06 358.65 199.08 355.79 190.65L356.01 190.57L364.48 196.51C365.4 198.48 396.65 207.51 399.17 206.7Z" fill="#FDFDFD"/>
<path d="M371 390.63L369.33 390.8C369.46 390.45 369.58 390.09 369.7 389.74L371 390.63Z" fill="#FDFDFD"/>
<path d="M369.48 391.11C370.36 394.11 367.75 395.54 366.48 397.45C359.8 407.57 352.76 417.45 346.15 427.62C334.15 446.11 334.76 444.24 318.15 432.86C311.25 428.13 304.24 423.56 296.44 418.35L260.62 394C259.627 393.322 258.929 392.293 258.663 391.121C258.398 389.949 258.586 388.719 259.19 387.68L263.81 379.79C287 386 310.59 390.13 334.29 394C340.42 395 344.42 394.73 346.41 388.38C349.366 388.467 352.315 388.731 355.24 389.17C360 390.14 365.17 387.36 369.48 391.11Z" fill="#FDFDFD"/>
<path d="M349.16 374C349.28 373.11 349.39 372.2 349.48 371.29C349.39 372.15 349.28 373.05 349.16 374Z" fill="#749C08"/>
<path d="M298.17 329.83C297.69 329.71 297.29 333.2 296.82 333.74L296.67 333.68V329.47L298.17 329.83Z" fill="#749C08"/>
<path d="M296.67 333.68L296.82 333.74C296.77 333.8 296.73 333.83 296.67 333.82V333.68Z" fill="#749C08"/>
<path d="M356 190.57L364.47 196.51C365.39 198.51 396.64 207.51 399.16 206.7H399.23" stroke="#C2C1C1" stroke-width="3" stroke-miterlimit="10"/>
<path d="M420.43 187.18L415.87 193.58C414.33 195.58 413.64 199.9 411.1 204.14" stroke="#C2C1C1" stroke-width="3" stroke-miterlimit="10"/>
<path d="M386.94 624.13L389.01 544.81L399.66 671.59L392.88 647.86L386.94 624.13Z" fill="#1E2023"/>
<path d="M298.63 505.92C298.63 505.92 378.03 505.46 398.17 465.2C398.17 465.2 392.38 501.46 392.17 524.65C392.17 524.65 413 480.88 412.24 465.2L412.33 465.62C412.33 465.62 430.13 505.46 476.2 484.62C476.2 484.62 438.37 500.76 413.48 462.01C413.48 462.01 396.96 461.41 393.63 465.22C390.3 469.03 330.68 513.16 298.63 505.92Z" fill="#1E2023"/>
<path d="M340.33 171.5C339.5 174.23 338.67 176.94 337.8 179.65C336.93 182.36 336.04 185.05 335.16 187.75C335.05 188.08 334.92 188.44 334.84 188.75C334.768 189.015 334.724 189.286 334.71 189.56C334.691 190.107 334.797 190.651 335.02 191.15C335.238 191.632 335.569 192.053 335.985 192.379C336.401 192.705 336.89 192.925 337.41 193.02L341.56 193.61L345.77 194.23L349.18 194.73L346.38 196.87L338.82 202.66L336.91 204.09L336.44 204.45L336.2 204.63L336.05 204.75C335.867 204.908 335.705 205.09 335.57 205.29C335.305 205.685 335.151 206.144 335.123 206.618C335.095 207.093 335.194 207.566 335.41 207.99L335.11 207.56C338.44 211.11 341.73 214.7 345.02 218.29L354.88 229.07C361.4 236.31 367.94 243.52 374.38 250.83C377.62 254.47 380.833 258.137 384.02 261.83C387.207 265.523 390.397 269.19 393.59 272.83C399.94 280.22 406.23 287.67 412.37 295.24C405.42 288.41 398.6 281.44 391.85 274.42C388.457 270.92 385.09 267.397 381.75 263.85C378.41 260.303 375.077 256.757 371.75 253.21C365.08 246.1 358.52 238.91 351.93 231.73L342.14 220.89C338.873 217.277 335.623 213.65 332.39 210.01L332.21 209.8L332.1 209.57C331.624 208.557 331.428 207.434 331.532 206.32C331.636 205.205 332.035 204.138 332.69 203.23C333.014 202.781 333.398 202.377 333.83 202.03L334.15 201.79L334.39 201.61L334.87 201.27L336.82 199.9L344.65 194.47L345.27 197.11L341.09 196.28L339.01 195.85L337.96 195.63L337.44 195.52L337.18 195.47L336.85 195.39C335.985 195.171 335.185 194.749 334.516 194.16C333.846 193.57 333.327 192.83 333 192C332.688 191.178 332.582 190.292 332.69 189.42C332.739 188.988 332.843 188.565 333 188.16C333.14 187.79 333.28 187.49 333.42 187.16C334.55 184.55 335.65 181.93 336.81 179.33C337.97 176.73 339.14 174.09 340.33 171.5Z" fill="#1E2023"/>
<path d="M435.26 182.52C436.35 184.93 437.42 187.34 438.46 189.77L440.01 193.41C440.52 194.65 441.01 195.78 441.54 197.11C441.801 197.881 441.885 198.702 441.786 199.51C441.687 200.318 441.409 201.094 440.97 201.78C440.524 202.483 439.926 203.078 439.22 203.52C438.868 203.743 438.492 203.927 438.1 204.07C437.732 204.186 437.358 204.283 436.98 204.36C434.4 204.9 431.81 205.42 429.23 205.93L429.85 203.29L437.68 208.71L439.62 210.09L440.11 210.43L440.35 210.6L440.67 210.85C441.104 211.191 441.488 211.592 441.81 212.04C442.465 212.95 442.864 214.019 442.968 215.135C443.072 216.251 442.876 217.375 442.4 218.39L442.48 218.2C441.37 221.57 440.21 224.92 439.04 228.27C437.87 231.62 436.73 234.97 435.53 238.27C433.13 244.94 430.75 251.61 428.24 258.27C427.007 261.603 425.747 264.917 424.46 268.21C423.173 271.503 421.88 274.807 420.58 278.12C417.96 284.71 415.25 291.27 412.37 297.78C414.22 290.91 416.25 284.11 418.37 277.33C419.37 273.94 420.48 270.56 421.58 267.19C422.68 263.82 423.76 260.44 424.89 257.08C427.11 250.34 429.46 243.66 431.79 236.96C432.95 233.61 434.18 230.28 435.37 226.96C436.56 223.64 437.77 220.28 439.02 216.96L439.08 216.82V216.77C439.297 216.346 439.396 215.872 439.366 215.397C439.336 214.922 439.178 214.463 438.91 214.07C438.784 213.866 438.625 213.683 438.44 213.53L438.29 213.4L438.05 213.22L437.57 212.87L435.67 211.44L428.1 205.65L425.32 203.52L428.72 203.01C431.32 202.62 433.93 202.24 436.54 201.89C436.91 201.83 437.1 201.8 437.34 201.74C437.572 201.679 437.797 201.591 438.01 201.48C438.449 201.236 438.825 200.893 439.11 200.48C439.411 200.073 439.618 199.605 439.717 199.109C439.815 198.613 439.803 198.101 439.68 197.61L437.42 190.08C436.68 187.593 435.96 185.073 435.26 182.52Z" fill="#1E2023"/>
<path d="M481.49 202.82C481.49 202.82 505.7 225.39 512.86 223.87" stroke="#1E2023" stroke-width="3" stroke-miterlimit="10"/>
<path d="M298.28 291.88L310.99 263.11" stroke="#1E2023" stroke-width="3" stroke-miterlimit="10"/>
<path d="M414.07 318.56C415.241 318.56 416.19 317.611 416.19 316.44C416.19 315.269 415.241 314.32 414.07 314.32C412.899 314.32 411.95 315.269 411.95 316.44C411.95 317.611 412.899 318.56 414.07 318.56Z" fill="#1E2023"/>
<path d="M414.49 354.59C415.661 354.59 416.61 353.641 416.61 352.47C416.61 351.299 415.661 350.35 414.49 350.35C413.319 350.35 412.37 351.299 412.37 352.47C412.37 353.641 413.319 354.59 414.49 354.59Z" fill="#1E2023"/>
<path d="M414.92 390.61C416.091 390.61 417.04 389.661 417.04 388.49C417.04 387.319 416.091 386.37 414.92 386.37C413.749 386.37 412.8 387.319 412.8 388.49C412.8 389.661 413.749 390.61 414.92 390.61Z" fill="#1E2023"/>
<path d="M415.34 426.63C416.511 426.63 417.46 425.681 417.46 424.51C417.46 423.339 416.511 422.39 415.34 422.39C414.169 422.39 413.22 423.339 413.22 424.51C413.22 425.681 414.169 426.63 415.34 426.63Z" fill="#1E2023"/>
</g>
<defs>
<linearGradient id="paint0_linear_20_775" x1="213.827" y1="588.495" x2="308.06" y2="798.579" gradientUnits="userSpaceOnUse">
<stop stop-color="#80A203"/>
<stop offset="1" stop-color="#156728"/>
</linearGradient>
<radialGradient id="paint1_radial_20_775" cx="0" cy="0" r="1" gradientUnits="userSpaceOnUse" gradientTransform="translate(85.1613 712.162) rotate(135) scale(155.135 148.798)">
<stop offset="0.14835" stop-color="#003422"/>
<stop offset="1" stop-color="#20685A" stop-opacity="0"/>
</radialGradient>
<radialGradient id="paint2_radial_20_775" cx="0" cy="0" r="1" gradientUnits="userSpaceOnUse" gradientTransform="translate(319.639 718.622) rotate(155.101) scale(190.359 101.888)">
<stop offset="0.21875" stop-color="#005040"/>
<stop offset="1" stop-color="#20685A" stop-opacity="0"/>
</radialGradient>
<linearGradient id="paint3_linear_20_775" x1="128.258" y1="229.147" x2="196.834" y2="382.03" gradientUnits="userSpaceOnUse">
<stop stop-color="#80A203"/>
<stop offset="1" stop-color="#156728"/>
</linearGradient>
<radialGradient id="paint4_radial_20_775" cx="0" cy="0" r="1" gradientUnits="userSpaceOnUse" gradientTransform="translate(34.6246 319.142) rotate(135) scale(112.896 108.284)">
<stop offset="0.14835" stop-color="#003422"/>
<stop offset="1" stop-color="#20685A" stop-opacity="0"/>
</radialGradient>
<radialGradient id="paint5_radial_20_775" cx="0" cy="0" r="1" gradientUnits="userSpaceOnUse" gradientTransform="translate(205.26 323.844) rotate(155.101) scale(138.53 74.1464)">
<stop offset="0.21875" stop-color="#005040"/>
<stop offset="1" stop-color="#20685A" stop-opacity="0"/>
</radialGradient>
<linearGradient id="paint6_linear_20_775" x1="286.723" y1="526.299" x2="245.485" y2="522.081" gradientUnits="userSpaceOnUse">
<stop stop-color="#80A203"/>
<stop offset="1" stop-color="#156728"/>
</linearGradient>
<radialGradient id="paint7_radial_20_775" cx="0" cy="0" r="1" gradientUnits="userSpaceOnUse" gradientTransform="translate(279.023 495.106) rotate(-105) scale(27.9296 26.7886)">
<stop offset="0.14835" stop-color="#003422"/>
<stop offset="1" stop-color="#20685A" stop-opacity="0"/>
</radialGradient>
<radialGradient id="paint8_radial_20_775" cx="0" cy="0" r="1" gradientUnits="userSpaceOnUse" gradientTransform="translate(256.909 531.083) rotate(-84.8992) scale(34.2711 18.3432)">
<stop offset="0.21875" stop-color="#005040"/>
<stop offset="1" stop-color="#20685A" stop-opacity="0"/>
</radialGradient>
<linearGradient id="paint9_linear_20_775" x1="496.095" y1="434.044" x2="539.572" y2="530.971" gradientUnits="userSpaceOnUse">
<stop stop-color="#80A203"/>
<stop offset="1" stop-color="#156728"/>
</linearGradient>
<radialGradient id="paint10_radial_20_775" cx="0" cy="0" r="1" gradientUnits="userSpaceOnUse" gradientTransform="translate(436.732 491.101) rotate(135) scale(71.5756 68.6517)">
<stop offset="0.14835" stop-color="#003422"/>
<stop offset="1" stop-color="#20685A" stop-opacity="0"/>
</radialGradient>
<radialGradient id="paint11_radial_20_775" cx="0" cy="0" r="1" gradientUnits="userSpaceOnUse" gradientTransform="translate(544.914 494.082) rotate(155.101) scale(87.8272 47.0085)">
<stop offset="0.21875" stop-color="#005040"/>
<stop offset="1" stop-color="#20685A" stop-opacity="0"/>
</radialGradient>
<linearGradient id="paint12_linear_20_775" x1="604.104" y1="551.712" x2="672.533" y2="704.265" gradientUnits="userSpaceOnUse">
<stop stop-color="#80A203"/>
<stop offset="1" stop-color="#156728"/>
</linearGradient>
<radialGradient id="paint13_radial_20_775" cx="0" cy="0" r="1" gradientUnits="userSpaceOnUse" gradientTransform="translate(510.673 641.513) rotate(135) scale(112.653 108.051)">
<stop offset="0.14835" stop-color="#003422"/>
<stop offset="1" stop-color="#20685A" stop-opacity="0"/>
</radialGradient>
<radialGradient id="paint14_radial_20_775" cx="0" cy="0" r="1" gradientUnits="userSpaceOnUse" gradientTransform="translate(680.941 646.205) rotate(155.101) scale(138.231 73.9865)">
<stop offset="0.21875" stop-color="#005040"/>
<stop offset="1" stop-color="#20685A" stop-opacity="0"/>
</radialGradient>
<linearGradient id="paint15_linear_20_775" x1="81.4605" y1="908.524" x2="166.801" y2="1280.29" gradientUnits="userSpaceOnUse">
<stop stop-color="#003422"/>
<stop offset="0.220402" stop-color="#005F32" stop-opacity="0.98"/>
<stop offset="0.730062" stop-color="#84AC00"/>
</linearGradient>
<linearGradient id="paint16_linear_20_775" x1="79.4605" y1="930.524" x2="164.801" y2="1302.29" gradientUnits="userSpaceOnUse">
<stop stop-color="#003422"/>
<stop offset="0.220402" stop-color="#005F32" stop-opacity="0.98"/>
<stop offset="0.730062" stop-color="#84AC00"/>
</linearGradient>
<linearGradient id="paint17_linear_20_775" x1="148.437" y1="568.552" x2="252.091" y2="931.591" gradientUnits="userSpaceOnUse">
<stop stop-color="#003422"/>
<stop offset="0.220402" stop-color="#005F32" stop-opacity="0.98"/>
<stop offset="0.730062" stop-color="#84AC00"/>
</linearGradient>
<linearGradient id="paint18_linear_20_775" x1="139.437" y1="563.552" x2="243.091" y2="926.591" gradientUnits="userSpaceOnUse">
<stop stop-color="#003422"/>
<stop offset="0.220402" stop-color="#005F32" stop-opacity="0.98"/>
<stop offset="0.730062" stop-color="#84AC00"/>
</linearGradient>
<clipPath id="clip0_20_775">
<rect width="707" height="977" fill="white"/>
</clipPath>
<clipPath id="clip1_20_775">
<rect x="218.613" y="578.674" width="188.754" height="188.754" rx="44" transform="rotate(45 218.613 578.674)" fill="white"/>
</clipPath>
<clipPath id="clip2_20_775">
<rect x="131.741" y="222" width="137.362" height="137.362" rx="28" transform="rotate(45 131.741 222)" fill="white"/>
</clipPath>
<clipPath id="clip3_20_775">
<rect x="287.823" y="527.93" width="33.9821" height="33.9821" rx="16.9911" transform="rotate(165 287.823 527.93)" fill="white"/>
</clipPath>
<clipPath id="clip4_20_775">
<rect x="498.304" y="429.513" width="87.0867" height="87.0867" rx="19" transform="rotate(45 498.304 429.513)" fill="white"/>
</clipPath>
<clipPath id="clip5_20_775">
<rect x="607.58" y="544.58" width="137.065" height="137.065" rx="32" transform="rotate(45 607.58 544.58)" fill="white"/>
</clipPath>
</defs>
</svg>
