<svg width="862" height="682" viewBox="0 0 862 682" fill="none" xmlns="http://www.w3.org/2000/svg">
<g opacity="0.5">
<g clip-path="url(#clip0_20_2)">
<mask id="mask0_20_2" style="mask-type:luminance" maskUnits="userSpaceOnUse" x="45" y="508" width="91" height="91">
<path d="M135.14 553.14L90.2207 508.221L45.3018 553.14L90.2207 598.059L135.14 553.14Z" fill="white"/>
</mask>
<g mask="url(#mask0_20_2)">
<path d="M90.2207 508.221L135.14 553.14L90.2207 598.059L45.3018 553.14L90.2207 508.221Z" fill="url(#paint0_linear_20_2)"/>
<path d="M8.38888 590.064C27.9454 609.62 60.3281 608.945 80.7175 588.556C101.107 568.166 101.782 535.784 82.2257 516.227C62.6691 496.671 30.2865 497.346 9.89703 517.735C-10.4924 538.125 -11.1677 570.507 8.38888 590.064Z" fill="url(#paint1_radial_20_2)" fill-opacity="0.5"/>
<path d="M66.1105 582.293C67.0641 602.729 93.8541 607.219 125.947 592.323C158.041 577.426 183.285 548.783 182.331 528.347C181.378 507.911 154.588 503.421 122.494 518.318C90.4007 533.214 65.1569 561.857 66.1105 582.293Z" fill="url(#paint2_radial_20_2)" fill-opacity="0.5"/>
</g>
</g>
</g>
<path d="M132.64 611C126.759 611.022 121.1 608.756 116.86 604.68L47.6398 537.68C45.5732 535.709 43.9281 533.339 42.8041 530.713C41.6801 528.088 41.1006 525.261 41.1006 522.405C41.1006 519.549 41.6801 516.723 42.8041 514.097C43.9281 511.472 45.5732 509.102 47.6398 507.13L116.86 440.13C121.116 436.077 126.768 433.817 132.645 433.817C138.522 433.817 144.174 436.077 148.43 440.13L217.64 507.13C219.706 509.102 221.352 511.472 222.476 514.097C223.6 516.723 224.179 519.549 224.179 522.405C224.179 525.261 223.6 528.088 222.476 530.713C221.352 533.339 219.706 535.709 217.64 537.68L148.43 604.68C144.186 608.756 138.524 611.023 132.64 611ZM132.64 435.53C127.221 435.507 122.006 437.594 118.1 441.35L48.8798 508.35C46.9777 510.169 45.4637 512.354 44.4294 514.774C43.395 517.194 42.8618 519.798 42.8618 522.43C42.8618 525.062 43.395 527.666 44.4294 530.086C45.4637 532.506 46.9777 534.692 48.8798 536.51L118.1 603.51C122.019 607.25 127.228 609.336 132.645 609.336C138.062 609.336 143.271 607.25 147.19 603.51L216.4 536.51C218.306 534.694 219.823 532.509 220.86 530.089C221.897 527.669 222.431 525.063 222.431 522.43C222.431 519.797 221.897 517.192 220.86 514.771C219.823 512.351 218.306 510.167 216.4 508.35L147.19 441.35C143.28 437.594 138.062 435.507 132.64 435.53Z" fill="#749B07"/>
<g clip-path="url(#clip1_20_2)">
<mask id="mask1_20_2" style="mask-type:luminance" maskUnits="userSpaceOnUse" x="189" y="497" width="65" height="65">
<path d="M221.665 561.617L253.617 529.666L221.665 497.714L189.713 529.666L221.665 561.617Z" fill="white"/>
</mask>
<g mask="url(#mask1_20_2)">
<path d="M253.617 529.666L221.665 561.617L189.713 529.666L221.665 497.714L253.617 529.666Z" fill="url(#paint3_linear_20_2)"/>
<path d="M195.4 471.457C181.489 485.368 181.97 508.402 196.473 522.906C210.977 537.409 234.011 537.89 247.922 523.979C261.833 510.068 261.353 487.033 246.849 472.53C232.346 458.026 209.311 457.546 195.4 471.457Z" fill="url(#paint4_radial_20_2)" fill-opacity="0.5"/>
<path d="M200.927 512.515C186.391 513.194 183.197 532.25 193.793 555.079C204.39 577.908 224.764 595.864 239.3 595.186C253.837 594.507 257.031 575.451 246.435 552.622C235.838 529.793 215.464 511.837 200.927 512.515Z" fill="url(#paint5_radial_20_2)" fill-opacity="0.5"/>
</g>
</g>
<g clip-path="url(#clip2_20_2)">
<mask id="mask2_20_2" style="mask-type:luminance" maskUnits="userSpaceOnUse" x="164" y="459" width="43" height="42">
<path d="M185.545 500.545L206.114 479.977L185.545 459.408L164.977 479.977L185.545 500.545Z" fill="white"/>
</mask>
<g mask="url(#mask2_20_2)">
<path d="M206.114 479.977L185.545 500.545L164.977 479.977L185.545 459.408L206.114 479.977Z" fill="url(#paint6_linear_20_2)"/>
<path d="M168.638 442.505C159.683 451.46 159.992 466.289 169.328 475.625C178.665 484.962 193.493 485.271 202.448 476.316C211.404 467.361 211.094 452.532 201.758 443.196C192.421 433.859 177.593 433.55 168.638 442.505Z" fill="url(#paint7_radial_20_2)" fill-opacity="0.5"/>
<path d="M172.196 468.936C162.838 469.373 160.782 481.64 167.603 496.336C174.424 511.032 187.54 522.592 196.898 522.155C206.256 521.718 208.312 509.451 201.491 494.755C194.669 480.059 181.553 468.5 172.196 468.936Z" fill="url(#paint8_radial_20_2)" fill-opacity="0.5"/>
</g>
</g>
<g clip-path="url(#clip3_20_2)">
<mask id="mask3_20_2" style="mask-type:luminance" maskUnits="userSpaceOnUse" x="117" y="420" width="32" height="32">
<path d="M133.162 451.161L148.742 435.581L133.162 420L117.581 435.581L133.162 451.161Z" fill="white"/>
</mask>
<g mask="url(#mask3_20_2)">
<path d="M148.742 435.581L133.162 451.161L117.581 435.581L133.162 420L148.742 435.581Z" fill="url(#paint9_linear_20_2)"/>
<path d="M120.355 407.197C113.571 413.98 113.805 425.212 120.878 432.285C127.95 439.357 139.182 439.591 145.966 432.808C152.749 426.024 152.515 414.792 145.443 407.72C138.37 400.648 127.138 400.413 120.355 407.197Z" fill="url(#paint10_radial_20_2)"/>
<path d="M123.05 427.218C115.962 427.549 114.404 436.841 119.572 447.973C124.739 459.105 134.674 467.861 141.762 467.53C148.85 467.199 150.408 457.907 145.241 446.775C140.074 435.643 130.139 426.887 123.05 427.218Z" fill="url(#paint11_radial_20_2)"/>
</g>
</g>
<g clip-path="url(#clip4_20_2)">
<mask id="mask4_20_2" style="mask-type:luminance" maskUnits="userSpaceOnUse" x="99" y="479" width="16" height="17">
<path d="M107.29 495.29L114.935 487.645L107.29 480L99.6445 487.645L107.29 495.29Z" fill="white"/>
</mask>
<g mask="url(#mask4_20_2)">
<path d="M114.935 487.645L107.29 495.29L99.6445 487.645L107.29 480L114.935 487.645Z" fill="url(#paint12_linear_20_2)"/>
<path d="M101.005 473.717C97.6768 477.046 97.7917 482.557 101.262 486.027C104.732 489.498 110.244 489.612 113.572 486.284C116.9 482.956 116.785 477.444 113.315 473.974C109.845 470.504 104.334 470.389 101.005 473.717Z" fill="url(#paint13_radial_20_2)"/>
<path d="M102.328 483.541C98.8495 483.704 98.0853 488.263 100.621 493.725C103.156 499.188 108.031 503.484 111.509 503.322C114.987 503.159 115.751 498.6 113.216 493.138C110.681 487.676 105.806 483.379 102.328 483.541Z" fill="url(#paint14_radial_20_2)"/>
</g>
</g>
<g clip-path="url(#clip5_20_2)">
<mask id="mask5_20_2" style="mask-type:luminance" maskUnits="userSpaceOnUse" x="29" y="389" width="65" height="64">
<path d="M93.2798 420.72L61.5596 389L29.8394 420.72L61.5596 452.44L93.2798 420.72Z" fill="white"/>
</mask>
<g mask="url(#mask5_20_2)">
<path d="M61.5596 389L93.2798 420.72L61.5596 452.44L29.8394 420.72L61.5596 389Z" fill="url(#paint15_linear_20_2)"/>
<path d="M3.77269 446.795C17.5829 460.605 40.4504 460.128 54.8487 445.73C69.247 431.332 69.7239 408.464 55.9137 394.654C42.1035 380.844 19.236 381.321 4.8377 395.719C-9.56064 410.117 -10.0375 432.985 3.77269 446.795Z" fill="url(#paint16_radial_20_2)" fill-opacity="0.5"/>
<path d="M44.534 441.307C45.2074 455.738 64.1256 458.909 86.7889 448.39C109.452 437.87 127.278 417.644 126.605 403.212C125.932 388.781 107.014 385.61 84.3502 396.13C61.687 406.649 43.8606 426.876 44.534 441.307Z" fill="url(#paint17_radial_20_2)" fill-opacity="0.5"/>
</g>
</g>
<path d="M121.21 483.45C117.136 483.467 113.215 481.896 110.28 479.07L62.3603 432.69C60.929 431.326 59.7896 429.685 59.011 427.867C58.2325 426.049 57.8311 424.092 57.8311 422.115C57.8311 420.138 58.2325 418.181 59.011 416.363C59.7896 414.545 60.929 412.904 62.3603 411.54L110.28 365.16C113.227 362.354 117.141 360.789 121.21 360.789C125.28 360.789 129.193 362.354 132.14 365.16L180.06 411.54C181.489 412.906 182.626 414.547 183.403 416.365C184.18 418.182 184.581 420.138 184.581 422.115C184.581 424.092 184.18 426.048 183.403 427.865C182.626 429.683 181.489 431.324 180.06 432.69L132.14 479.07C129.204 481.894 125.284 483.464 121.21 483.45ZM121.21 361.96C117.461 361.932 113.849 363.367 111.14 365.96L63.2203 412.37C61.8996 413.626 60.8481 415.138 60.1296 416.813C59.4111 418.488 59.0406 420.292 59.0406 422.115C59.0406 423.938 59.4111 425.742 60.1296 427.417C60.8481 429.092 61.8996 430.604 63.2203 431.86L111.14 478.24C113.853 480.831 117.459 482.276 121.21 482.276C124.961 482.276 128.568 480.831 131.28 478.24L179.2 431.86C180.518 430.602 181.568 429.09 182.285 427.415C183.001 425.74 183.371 423.937 183.371 422.115C183.371 420.293 183.001 418.49 182.285 416.815C181.568 415.14 180.518 413.628 179.2 412.37L131.28 366C128.57 363.411 124.959 361.977 121.21 362V361.96Z" fill="#749B07"/>
<path d="M111.23 410C118.01 447.81 133.63 484.13 160.23 515.79C237.49 607.62 405.74 652.22 531.28 652.22C707.28 652.22 849.96 516.14 849.96 404.37C849.96 336.83 790.06 84.4802 553.87 175.44C480.8 203.58 443.27 125.12 372.98 105.28C266.98 75.3802 170.21 156.08 135.4 234.79C111.49 289 100.7 351.31 111.23 410Z" stroke="#749C07" stroke-width="3" stroke-miterlimit="10"/>
<path d="M152.76 403C159.07 443.67 173.61 482.71 198.4 516.76C270.3 615.5 426.89 663.46 543.73 663.46C707.53 663.46 840.31 517.13 840.31 396.95C840.31 324.33 773.31 195.95 543.98 185.21C471.17 181.79 461.82 96.68 396.4 75.35C297.76 43.24 207.68 130 175.29 214.64C153 272.87 143 339.9 152.76 403Z" fill="#003E24"/>
<path d="M680.35 459.55C683.35 477.55 676.08 491.5 666.77 505.32C656.77 516.84 646.38 527.82 630.66 533.26C634.35 516.41 637.78 500.66 641.26 484.92C644.38 470.86 647.73 456.83 650.7 442.73C653.39 429.95 647.7 423.06 634.79 423.3C617.57 423.61 600.36 424.01 583.15 424.41L589.73 424.25L581.73 401.36L574.88 424.6C539.32 425.43 503.77 426.39 468.2 427.1L486.08 324.22C486.21 324.59 486.84 324.78 487.81 325.46C497.81 278.88 516.42 234.38 516.27 185.39C528.069 194.799 540.874 202.872 554.45 209.46C571.677 217.795 589.416 225.026 607.56 231.11C616.56 234.11 621.64 239.69 625.22 247.77C635.3 270.59 642.27 294.44 648.76 318.44C661.4 365 672.34 411.93 680.35 459.55Z" fill="#749D08"/>
<path d="M634.79 423.3C647.68 423.06 653.39 429.95 650.7 442.73C647.7 456.83 644.38 470.86 641.26 484.92C637.78 500.66 634.35 516.41 630.66 533.26L625.87 559C624.778 564.867 621.667 570.166 617.077 573.979C612.487 577.793 606.708 579.881 600.74 579.88H335.67C329.878 579.882 324.258 577.915 319.73 574.303C315.202 570.691 312.036 565.648 310.75 560L301.1 517.54C300.993 516.923 300.853 516.312 300.68 515.71C294.86 494.44 289.36 473.07 283.8 451.71C282.68 447.41 281.59 443.16 283.25 438.59C285.33 432.9 289.11 430.45 295.06 430.33C310.19 430.03 325.32 429.48 340.45 429.04H352.56C391.12 428.4 429.69 427.86 468.25 427.09C503.82 426.38 539.37 425.42 574.93 424.59L583.15 424.4C600.36 424 617.57 423.61 634.79 423.3Z" fill="#AEBCBD"/>
<path d="M581.78 401.36L589.73 424.25L583.15 424.41L574.93 424.6L581.78 401.36Z" fill="#003E24"/>
<path d="M413.83 109.31H413.63C413.05 105.62 412.35 101.96 411.91 98.3099C408 64.9499 434.91 29.6799 468.25 24.4999C477.38 23.0799 486.12 24.9299 494.25 29.0699C506 34.9199 515.16 44.1699 524.35 53.1999C529.66 58.3999 531.42 65.6099 531.93 72.9899C532.727 86.408 532.103 99.8728 530.07 113.16C529.77 115.29 529.95 117.78 527.38 118.9C526.61 117.61 523.89 123.81 524.18 118.01C524.67 108.08 524.99 98.1399 522.69 88.3499C522.042 85.1972 521.176 82.0931 520.1 79.0599C516.47 69.7799 511.55 67.3899 502.1 70.2199C481.35 76.4499 460.72 78.2199 440.28 69.0199C435.65 66.9399 432.04 68.9499 429.09 72.3899C424.71 77.4999 423.03 83.6799 422.54 90.2399C422.05 96.7999 421.59 103.59 421.06 111.34C418.67 109.2 416.19 109.72 413.83 109.31Z" fill="#302827"/>
<path d="M527.38 118.9C531.76 126.47 530.02 137.39 522.22 144.1C515.5 149.88 515.65 158.34 512.14 165.3V165.4C506.716 169.927 501.724 174.949 497.23 180.4C493.14 185.316 488.435 189.685 483.23 193.4C478.482 196.914 472.631 198.61 466.74 198.18C457.03 197.36 448.92 190.63 442.08 183.7C434.38 175.91 427.24 167.28 423.08 157.15H422.73C422.54 152.55 422.2 147.96 421.86 143.38C421.5 138.54 417.74 133.95 415.59 129.23C414.98 127.9 414.34 111.35 413.88 109.37C416.24 109.78 418.72 109.26 421.13 111.37C421.66 103.62 422.13 96.9402 422.61 90.2702C423.09 83.6002 424.78 77.5302 429.16 72.4202C432.11 68.9802 435.72 66.9702 440.35 69.0502C460.79 78.2202 481.42 76.4802 502.17 70.2502C511.6 67.4202 516.52 69.8102 520.17 79.0902C521.246 82.1234 522.112 85.2275 522.76 88.3802C525.06 98.1702 524.76 108.11 524.25 118.04C523.89 123.81 526.61 117.61 527.38 118.9Z" fill="#9F634B"/>
<path d="M516.32 185.39C516.47 234.39 497.84 278.88 487.86 325.46C486.86 324.78 486.26 324.59 486.13 324.22C479.6 304.66 472.6 285.28 464.83 266.22C463.25 262.35 466.63 257.95 469.38 253.72C472.74 248.54 475.18 243.62 466.51 240.22C456.82 236.43 448.38 241.29 445 251.3C447.797 253.599 449.879 256.648 451 260.09C451.28 261 452 262.03 451.78 262.8C446.86 279.46 445.26 296.72 442.78 315.8C438.28 300.15 433.98 286.45 430.42 272.54C422.93 243.28 412.73 214.42 416.04 183.18L421.42 180.4C420.29 186.89 419.9 193.73 424.16 199.84C430.66 209.27 438.596 217.625 447.68 224.6C452.94 228.6 458.97 231.7 465.68 230.02C484.53 225.29 498.68 214.88 506.41 196.22C508.54 191.1 508.7 185.73 508.99 180.4L516.32 185.39ZM428.46 251.24L427.85 249.65C427.8 249.82 427.65 250.06 427.71 250.16L428.46 251.24Z" fill="white"/>
<path d="M512.09 165.4C509.71 170.16 509.32 175.23 509.04 180.34C508.75 185.67 508.59 191.04 506.46 196.16C498.69 214.82 484.58 225.23 465.73 229.96C459.04 231.64 453.01 228.57 447.73 224.54C438.646 217.564 430.71 209.21 424.21 199.78C419.95 193.67 420.34 186.83 421.47 180.34C422.697 172.655 423.096 164.86 422.66 157.09H423.01C427.17 167.22 434.31 175.85 442.01 183.64C448.85 190.57 457.01 197.3 466.67 198.12C472.561 198.55 478.412 196.854 483.16 193.34C488.365 189.625 493.07 185.256 497.16 180.34C501.663 174.908 506.661 169.907 512.09 165.4Z" fill="#806255"/>
<path d="M486.13 324.22L468.25 427.1L442.85 315.74C445.3 296.68 446.85 279.42 451.85 262.74C452.07 261.97 451.35 260.94 451.07 260.03C449.948 256.588 447.866 253.539 445.07 251.24C448.45 241.24 456.89 236.37 466.58 240.16C475.25 243.56 472.81 248.48 469.45 253.66C466.7 257.89 463.32 262.29 464.9 266.16C472.6 285.28 479.6 304.66 486.13 324.22Z" fill="#003E24"/>
<path d="M442.85 315.74L468.25 427.1C429.69 427.87 391.12 428.41 352.56 429.05C352.224 420.95 350.4 412.98 347.18 405.54C344.933 413.38 342.69 421.217 340.45 429.05C325.32 429.49 310.19 430.05 295.06 430.34C289.11 430.46 285.33 432.91 283.25 438.6C281.59 443.17 282.68 447.42 283.8 451.72C289.36 473.06 294.86 494.43 300.68 515.72L301.1 517.55C301.66 520.92 300.32 521.81 296.03 521.55C288.03 520.98 280.51 518.61 273.1 515.78C251.21 500.97 246.84 478.53 249.89 455.1C259.23 383.24 279.29 314.1 306.3 246.95C312.14 232.43 321.78 223.47 336.35 218.31C356.49 211.18 376.78 204.31 395.86 194.46C402.68 190.96 409.27 187.01 416.11 183.19C412.8 214.43 423 243.29 430.49 272.55C434.05 286.39 438.35 300.09 442.85 315.74Z" fill="#749D08"/>
<path d="M427.85 249.65L428.46 251.24L427.71 250.16C427.65 250.06 427.8 249.82 427.85 249.65Z" fill="#959496"/>
<path d="M352.56 429.05H340.45C342.69 421.21 344.934 413.373 347.18 405.54C350.401 412.98 352.224 420.95 352.56 429.05Z" fill="#003E24"/>
<path d="M318.94 240.26C318.94 240.26 334.09 375.61 340.45 383.48" stroke="#1E2023" stroke-width="3" stroke-miterlimit="10"/>
<path d="M597.67 236.35C597.67 236.35 588.14 371.5 581.78 379.35" stroke="#1E2023" stroke-width="3" stroke-miterlimit="10"/>
<path d="M574.93 424.6L581.78 401.36L589.73 424.25L583.15 424.41L574.93 424.6Z" stroke="#1E2023" stroke-miterlimit="10"/>
<path d="M387.67 194.75C386.17 199.42 384.67 204.08 383.11 208.75L378.47 222.68L377.89 224.43C377.7 224.947 377.569 225.484 377.5 226.03C377.343 227.078 377.456 228.149 377.83 229.14C378.191 230.117 378.783 230.991 379.556 231.688C380.33 232.385 381.261 232.883 382.27 233.14L396.66 235.41L400.07 235.95L397.28 238.05L387.28 245.53L382.28 249.26L379.8 251.1C379.172 251.592 378.649 252.204 378.26 252.9C377.879 253.595 377.646 254.362 377.575 255.152C377.505 255.942 377.598 256.738 377.85 257.49C378.06 258.13 378.62 259.17 379.06 260.08L380.44 262.87L385.91 274.07L396.79 296.49L407.59 319L418.24 341.53L428.75 364.13C432.21 371.69 435.7 379.23 439.08 386.82C442.46 394.41 445.92 401.97 449.22 409.6C445.3 402.27 441.52 394.88 437.69 387.5C433.86 380.12 430.11 372.71 426.34 365.3L415.18 343L404.18 320.65L393.28 298.24L382.48 275.78L377.12 264.53L375.79 261.71C375.278 260.712 374.828 259.683 374.44 258.63C373.853 256.779 373.86 254.791 374.459 252.945C375.058 251.098 376.219 249.484 377.78 248.33L380.33 246.5L385.4 242.88L395.58 235.69L396.2 238.33L388.98 236.97L385.38 236.28L383.58 235.93L382.67 235.75C382.38 235.7 382 235.59 381.67 235.51C380.312 235.11 379.072 234.384 378.058 233.396C377.043 232.408 376.286 231.187 375.85 229.84C375.409 228.513 375.312 227.095 375.57 225.72C375.697 225.059 375.892 224.412 376.15 223.79L376.83 222.08L382.23 208.42C384 203.83 385.82 199.29 387.67 194.75Z" fill="#1E2023"/>
<path d="M540.5 198.18C542.35 202.71 544.19 207.25 545.98 211.81L551.38 225.47L552.06 227.17C552.318 227.792 552.513 228.439 552.64 229.1C552.898 230.478 552.801 231.899 552.36 233.23C551.921 234.576 551.163 235.795 550.149 236.783C549.135 237.77 547.897 238.497 546.54 238.9C546.21 238.98 545.83 239.08 545.54 239.14L544.64 239.31L542.84 239.66L539.24 240.36L532 241.71L532.62 239.07L542.79 246.27L547.87 249.88L550.42 251.71C551.981 252.864 553.143 254.478 553.741 256.325C554.34 258.172 554.347 260.159 553.76 262.01C553.372 263.066 552.922 264.098 552.41 265.1L551.08 267.91L545.71 279.16L534.92 301.63L524 324L513 346.35L501.84 368.63C498.07 376.04 494.34 383.46 490.49 390.83C486.64 398.2 482.87 405.65 479 413C482.3 405.37 485.74 397.8 489.14 390.22C492.54 382.64 496.01 375.09 499.47 367.53L509.98 344.93L520.63 322.39L531.4 299.92L542.28 277.49L547.75 266.3L549.13 263.5C549.578 262.658 549.982 261.794 550.34 260.91C550.591 260.158 550.685 259.362 550.614 258.572C550.543 257.783 550.311 257.016 549.93 256.32C549.54 255.622 549.013 255.01 548.38 254.52L545.91 252.68L540.91 248.95L530.91 241.47L528.11 239.37L531.53 238.83L545.92 236.57C546.929 236.314 547.861 235.816 548.635 235.119C549.408 234.422 550 233.547 550.36 232.57C550.734 231.579 550.848 230.508 550.69 229.46C550.621 228.914 550.49 228.377 550.3 227.86L549.72 226.12L545.08 212.18C543.507 207.514 541.98 202.847 540.5 198.18Z" fill="#1E2023"/>
<path d="M419.17 227C421.143 229.857 422.949 232.825 424.58 235.89C426.24 238.89 427.78 242 429.23 245.13L430.3 247.48C430.852 248.769 431.876 249.799 433.163 250.356C434.45 250.914 435.902 250.958 437.22 250.48C437.95 250.23 438.8 249.85 439.59 249.54C441.21 248.92 442.83 248.3 444.51 247.79C443.14 248.89 441.7 249.86 440.27 250.85C439.53 251.33 438.87 251.78 438.04 252.27C437.157 252.762 436.178 253.059 435.17 253.14C434.135 253.231 433.092 253.106 432.108 252.774C431.123 252.442 430.218 251.909 429.45 251.21C428.683 250.5 428.061 249.647 427.62 248.7L426.51 246.36C425.07 243.23 423.7 240.07 422.46 236.84C421.173 233.627 420.075 230.341 419.17 227Z" fill="#C3C2C2"/>
<path d="M513.07 220.65C510.81 224.65 508.31 228.38 505.73 232.09C504.46 233.96 503.11 235.77 501.8 237.61C501.14 238.52 500.45 239.41 499.8 240.32L498.8 241.67L498.29 242.34C498.11 242.58 497.98 242.77 497.73 243.06C495.958 244.961 493.605 246.22 491.04 246.64C488.647 247.107 486.183 247.083 483.8 246.57C482.653 246.291 481.53 245.923 480.44 245.47L477.28 244.22C475.2 243.34 473.1 242.47 471.05 241.47C473.3 241.84 475.51 242.33 477.73 242.81L481.03 243.6C482.071 243.887 483.13 244.108 484.2 244.26C485.243 244.366 486.293 244.393 487.34 244.34C488.38 244.282 489.411 244.121 490.42 243.86C492.325 243.479 494.069 242.526 495.42 241.13L499.6 235.88C501.04 234.14 502.44 232.37 503.93 230.67C506.81 227.23 509.83 223.85 513.07 220.65Z" fill="#C3C2C2"/>
<g clip-path="url(#clip6_20_2)">
<mask id="mask6_20_2" style="mask-type:luminance" maskUnits="userSpaceOnUse" x="768" y="137" width="50" height="50">
<path d="M792.881 186.763L817.763 161.881L792.881 137L768 161.881L792.881 186.763Z" fill="white"/>
</mask>
<g mask="url(#mask6_20_2)">
<path d="M817.763 161.881L792.881 186.763L768 161.881L792.881 137L817.763 161.881Z" fill="url(#paint18_linear_20_2)"/>
<path d="M772.429 116.553C761.596 127.386 761.97 145.323 773.264 156.617C784.558 167.911 802.495 168.285 813.328 157.453C824.161 146.62 823.787 128.683 812.493 117.389C801.199 106.095 783.261 105.721 772.429 116.553Z" fill="url(#paint19_radial_20_2)" fill-opacity="0.5"/>
<path d="M776.733 148.526C765.413 149.054 762.925 163.894 771.177 181.671C779.429 199.448 795.294 213.431 806.614 212.903C817.934 212.374 820.421 197.535 812.17 179.758C803.918 161.981 788.052 147.998 776.733 148.526Z" fill="url(#paint20_radial_20_2)" fill-opacity="0.5"/>
</g>
</g>
<path d="M648.37 216.39C648.35 211.886 650.082 207.55 653.2 204.3L704.51 151.3C706.02 149.717 707.836 148.457 709.847 147.596C711.858 146.735 714.023 146.292 716.21 146.292C718.398 146.292 720.563 146.735 722.574 147.596C724.585 148.457 726.4 149.717 727.91 151.3L779.21 204.3C782.319 207.557 784.054 211.887 784.054 216.39C784.054 220.893 782.319 225.223 779.21 228.48L727.91 281.48C726.399 283.06 724.583 284.318 722.572 285.177C720.561 286.037 718.397 286.48 716.21 286.48C714.024 286.48 711.859 286.037 709.849 285.177C707.838 284.318 706.022 283.06 704.51 281.48L705 281L704.54 281.48L653.23 228.48C650.103 225.233 648.36 220.898 648.37 216.39ZM782.75 216.39C782.768 212.24 781.172 208.246 778.3 205.25L726.99 152.25C725.6 150.791 723.927 149.629 722.074 148.835C720.221 148.041 718.226 147.632 716.21 147.632C714.194 147.632 712.199 148.041 710.346 148.835C708.493 149.629 706.821 150.791 705.43 152.25L654.12 205.25C651.261 208.254 649.667 212.243 649.667 216.39C649.667 220.537 651.261 224.526 654.12 227.53L705.43 280.53C706.822 281.987 708.495 283.147 710.348 283.939C712.201 284.731 714.195 285.14 716.21 285.14C718.225 285.14 720.22 284.731 722.072 283.939C723.925 283.147 725.598 281.987 726.99 280.53L778.3 227.53C781.172 224.534 782.768 220.54 782.75 216.39Z" fill="#749B07"/>
<g opacity="0.5">
<g clip-path="url(#clip7_20_2)">
<mask id="mask7_20_2" style="mask-type:luminance" maskUnits="userSpaceOnUse" x="658" y="149" width="70" height="70">
<path d="M693.146 218.169L727.169 184.146L692.023 149L658 183.023L693.146 218.169Z" fill="white"/>
</mask>
<g mask="url(#mask7_20_2)">
<path d="M727.169 184.146L693.146 218.169L658 183.023L692.023 149L727.169 184.146Z" fill="url(#paint21_linear_20_2)"/>
<path d="M663.133 120.119C648.32 134.932 649.244 159.872 665.198 175.826C681.151 191.779 706.092 192.704 720.905 177.891C735.717 163.078 734.793 138.137 718.84 122.184C702.886 106.231 677.945 105.306 663.133 120.119Z" fill="url(#paint22_radial_20_2)" fill-opacity="0.5"/>
<path d="M669.837 164.657C654.115 165.136 650.992 185.706 662.863 210.602C674.733 235.498 697.102 255.292 712.824 254.813C728.547 254.334 731.669 233.764 719.799 208.868C707.928 183.972 685.56 164.178 669.837 164.657Z" fill="url(#paint23_radial_20_2)" fill-opacity="0.5"/>
</g>
</g>
</g>
<path d="M746.06 207.63C746.046 204.51 747.248 201.508 749.41 199.26L784.93 162.56C785.975 161.463 787.231 160.591 788.624 159.994C790.016 159.398 791.515 159.09 793.03 159.09C794.544 159.09 796.043 159.398 797.436 159.994C798.828 160.591 800.085 161.463 801.13 162.56L836.65 199.26C838.803 201.515 840.004 204.512 840.004 207.63C840.004 210.747 838.803 213.745 836.65 216L801.13 252.7C800.085 253.796 798.828 254.669 797.436 255.265C796.043 255.862 794.544 256.169 793.03 256.169C791.515 256.169 790.016 255.862 788.624 255.265C787.231 254.669 785.975 253.796 784.93 252.7L749.41 216C747.248 213.751 746.046 210.749 746.06 207.63ZM839.06 207.63C839.077 204.755 837.968 201.987 835.97 199.92L800.45 163.22C799.487 162.209 798.329 161.404 797.045 160.854C795.762 160.305 794.381 160.021 792.985 160.021C791.589 160.021 790.207 160.305 788.924 160.854C787.641 161.404 786.483 162.209 785.52 163.22L750 199.92C748.02 201.999 746.916 204.759 746.916 207.63C746.916 210.5 748.02 213.261 750 215.34L785.56 252C786.523 253.011 787.681 253.815 788.964 254.365C790.247 254.915 791.629 255.199 793.025 255.199C794.421 255.199 795.802 254.915 797.085 254.365C798.369 253.815 799.527 253.011 800.49 252L836 215.34C838.001 213.274 839.114 210.506 839.1 207.63H839.06Z" fill="#749B07"/>
<g clip-path="url(#clip8_20_2)">
<mask id="mask8_20_2" style="mask-type:luminance" maskUnits="userSpaceOnUse" x="734" y="241" width="31" height="31">
<path d="M749.221 271.441L764.441 256.221L749.221 241L734 256.221L749.221 271.441Z" fill="white"/>
</mask>
<g mask="url(#mask8_20_2)">
<path d="M764.441 256.221L749.221 271.441L734 256.221L749.221 241L764.441 256.221Z" fill="url(#paint24_linear_20_2)"/>
<path d="M736.71 228.493C730.083 235.12 730.312 246.092 737.221 253.001C744.13 259.91 755.102 260.139 761.729 253.512C768.356 246.886 768.127 235.913 761.218 229.004C754.309 222.095 743.337 221.867 736.71 228.493Z" fill="url(#paint25_radial_20_2)" fill-opacity="0.5"/>
<path d="M739.343 248.051C732.418 248.374 730.897 257.452 735.945 268.327C740.992 279.201 750.698 287.755 757.622 287.432C764.547 287.109 766.068 278.031 761.021 267.156C755.973 256.282 746.268 247.728 739.343 248.051Z" fill="url(#paint26_radial_20_2)" fill-opacity="0.5"/>
</g>
</g>
<g clip-path="url(#clip9_20_2)">
<mask id="mask9_20_2" style="mask-type:luminance" maskUnits="userSpaceOnUse" x="686" y="260" width="50" height="49">
<path d="M711.016 308.984L735.11 284.89L710.221 260L686.127 284.095L711.016 308.984Z" fill="white"/>
</mask>
<g mask="url(#mask9_20_2)">
<path d="M735.11 284.89L711.016 308.984L686.127 284.095L710.221 260L735.11 284.89Z" fill="url(#paint27_linear_20_2)"/>
<path d="M689.761 239.547C679.271 250.037 679.926 267.7 691.224 278.997C702.521 290.295 720.184 290.95 730.674 280.46C741.164 269.97 740.509 252.307 729.212 241.009C717.914 229.712 700.251 229.057 689.761 239.547Z" fill="url(#paint28_radial_20_2)" fill-opacity="0.5"/>
<path d="M694.51 271.088C683.376 271.427 681.164 285.995 689.571 303.625C697.977 321.256 713.818 335.273 724.952 334.934C736.086 334.595 738.298 320.028 729.891 302.397C721.485 284.767 705.644 270.749 694.51 271.088Z" fill="url(#paint29_radial_20_2)" fill-opacity="0.5"/>
</g>
</g>
<g clip-path="url(#clip10_20_2)">
<mask id="mask10_20_2" style="mask-type:luminance" maskUnits="userSpaceOnUse" x="772" y="206" width="21" height="21">
<path d="M772 210.428L776.429 226.956L792.956 222.528L788.528 206L772 210.428Z" fill="white"/>
</mask>
<g mask="url(#mask10_20_2)">
<path d="M776.429 226.956L772 210.428L788.528 206L792.956 222.528L776.429 226.956Z" fill="url(#paint30_linear_20_2)"/>
<path d="M806.54 218.885C804.612 211.69 796.967 207.486 789.465 209.496C781.963 211.506 777.444 218.969 779.372 226.165C781.3 233.361 788.945 237.564 796.447 235.554C803.949 233.544 808.468 226.081 806.54 218.885Z" fill="url(#paint31_radial_20_2)"/>
<path d="M792.028 212.925C794.558 208.029 788.914 203.374 779.421 202.527C769.929 201.679 760.183 204.961 757.653 209.856C755.123 214.752 760.767 219.407 770.26 220.254C779.753 221.102 789.499 217.82 792.028 212.925Z" fill="url(#paint32_radial_20_2)"/>
</g>
</g>
<g clip-path="url(#clip11_20_2)">
<mask id="mask11_20_2" style="mask-type:luminance" maskUnits="userSpaceOnUse" x="738" y="192" width="11" height="11">
<path d="M738 194.13L740.13 202.08L748.079 199.95L745.949 192L738 194.13Z" fill="white"/>
</mask>
<g mask="url(#mask11_20_2)">
<path d="M740.13 202.08L738 194.13L745.949 192L748.079 199.95L740.13 202.08Z" fill="url(#paint33_linear_20_2)"/>
<path d="M754.613 198.198C753.685 194.737 750.008 192.715 746.4 193.682C742.791 194.649 740.618 198.238 741.545 201.699C742.473 205.16 746.15 207.182 749.758 206.215C753.367 205.248 755.54 201.659 754.613 198.198Z" fill="url(#paint34_radial_20_2)"/>
<path d="M747.633 195.331C748.85 192.976 746.135 190.737 741.569 190.329C737.003 189.922 732.315 191.5 731.099 193.855C729.882 196.209 732.597 198.449 737.163 198.856C741.728 199.264 746.416 197.685 747.633 195.331Z" fill="url(#paint35_radial_20_2)"/>
</g>
</g>
<g opacity="0.47">
<mask id="mask12_20_2" style="mask-type:luminance" maskUnits="userSpaceOnUse" x="433" y="476" width="74" height="69">
<path d="M468.268 476.014C467.912 476.067 467.552 476.115 467.196 476.178C465.557 476.443 464.043 477.218 462.87 478.394C459.4 481.861 455.942 485.338 452.498 488.824L448.253 493.107C445.731 495.648 443.205 498.187 440.673 500.725C439.231 502.167 437.818 503.58 436.415 505.051C434.974 506.519 434.086 508.44 433.901 510.488C433.743 511.936 433.926 513.401 434.436 514.766C434.946 516.13 435.768 517.357 436.838 518.346C439.169 520.663 441.462 523.018 443.774 525.354L450.984 532.641C453.733 535.424 456.492 538.198 459.222 540.995C460.246 542.119 461.456 543.059 462.798 543.773C464.118 544.433 465.556 544.824 467.028 544.922C467.105 544.93 467.181 544.948 467.254 544.975H468.326C468.401 544.951 468.478 544.933 468.557 544.922C470.866 544.788 473.072 543.915 474.848 542.432C475.574 541.827 476.233 541.144 476.915 540.51L486.356 531.31L491.729 526.071L501.131 516.909C502.631 515.467 504.13 514.001 505.625 512.535C506.106 512.055 506.534 511.574 507 511.093L506.832 510.915L503.467 507.551C502.841 506.911 502.093 506.403 501.267 506.056C500.442 505.71 499.556 505.531 498.66 505.531C497.765 505.531 496.879 505.71 496.054 506.056C495.228 506.403 494.48 506.911 493.854 507.551C492.428 508.98 491.002 510.411 489.576 511.843C487.634 513.791 485.691 515.74 483.746 517.688C479.977 521.459 476.209 525.233 472.44 529.008C471.878 529.576 471.209 530.028 470.472 530.337C469.735 530.646 468.944 530.807 468.144 530.809C467.345 530.812 466.553 530.657 465.814 530.352C465.074 530.048 464.402 529.601 463.836 529.036C459.152 524.358 454.472 519.676 449.796 514.991C448.579 513.778 447.888 512.134 447.874 510.415C447.834 509.484 447.992 508.554 448.337 507.688C448.681 506.822 449.205 506.038 449.873 505.388C454.93 500.312 459.996 495.244 465.072 490.184C465.457 489.771 465.925 489.442 466.444 489.218C466.964 488.994 467.524 488.88 468.089 488.884C468.655 488.888 469.213 489.008 469.73 489.239C470.246 489.469 470.709 489.804 471.09 490.223L472.777 491.91C473.182 492.293 473.505 492.755 473.726 493.268C473.947 493.78 474.061 494.332 474.061 494.89C474.061 495.448 473.947 496 473.726 496.513C473.505 497.025 473.182 497.487 472.777 497.87L464.481 506.099C463.435 507.136 462.829 508.536 462.79 510.008C462.751 511.48 463.28 512.91 464.269 514.001C464.509 514.275 464.779 514.525 465.029 514.794C465.498 515.335 466.075 515.771 466.724 516.073C467.372 516.375 468.077 516.538 468.793 516.55C469.509 516.561 470.219 516.422 470.877 516.141C471.535 515.861 472.127 515.444 472.613 514.919L478.944 508.589C481.78 505.748 484.63 502.927 487.442 500.067C488.568 498.904 489.191 497.345 489.178 495.726C489.164 494.107 488.515 492.559 487.37 491.415C486.783 490.828 486.202 490.232 485.62 489.641C483.149 487.148 480.68 484.652 478.213 482.153C477.031 480.96 475.851 479.764 474.675 478.562C473.455 477.297 471.861 476.455 470.128 476.159C469.758 476.096 469.388 476.053 469.018 476L468.268 476.014Z" fill="white"/>
</mask>
<g mask="url(#mask12_20_2)">
<g clip-path="url(#clip12_20_2)">
<mask id="mask13_20_2" style="mask-type:luminance" maskUnits="userSpaceOnUse" x="364" y="342" width="241" height="241">
<path d="M604.483 342.375L364.151 342.375L364.151 582.707H604.483V342.375Z" fill="white"/>
</mask>
<g mask="url(#mask13_20_2)">
<path d="M364.151 342.375L604.483 342.375V582.707H364.151L364.151 342.375Z" fill="url(#paint36_linear_20_2)"/>
<path d="M364.183 780.233C468.817 780.233 553.64 691.797 553.64 582.707C553.64 473.616 468.817 385.181 364.183 385.181C259.549 385.181 174.727 473.616 174.727 582.707C174.727 691.797 259.549 780.233 364.183 780.233Z" fill="url(#paint37_radial_20_2)"/>
<path d="M497.808 605.03C555.029 657.149 638.709 597.494 684.713 471.787C730.717 346.081 721.624 201.925 664.404 149.807C607.183 97.6884 523.503 157.343 477.499 283.05C431.495 408.756 440.588 552.912 497.808 605.03Z" fill="url(#paint38_radial_20_2)"/>
</g>
</g>
</g>
</g>
<g opacity="0.5">
<g clip-path="url(#clip13_20_2)">
<mask id="mask14_20_2" style="mask-type:luminance" maskUnits="userSpaceOnUse" x="489" y="485" width="21" height="20">
<path d="M509.856 494.928L499.928 485L490 494.928L499.928 504.856L509.856 494.928Z" fill="white"/>
</mask>
<g mask="url(#mask14_20_2)">
<path d="M499.928 485L509.856 494.928L499.928 504.856L490 494.928L499.928 485Z" fill="url(#paint39_linear_20_2)"/>
<path d="M481.841 503.09C486.163 507.412 493.321 507.263 497.827 502.756C502.334 498.25 502.483 491.092 498.161 486.77C493.838 482.447 486.681 482.597 482.174 487.103C477.667 491.61 477.518 498.767 481.841 503.09Z" fill="url(#paint40_radial_20_2)" fill-opacity="0.5"/>
<path d="M494.599 501.372C494.81 505.889 500.731 506.881 507.825 503.589C514.918 500.296 520.498 493.965 520.287 489.449C520.076 484.932 514.155 483.939 507.061 487.232C499.968 490.524 494.388 496.855 494.599 501.372Z" fill="url(#paint41_radial_20_2)" fill-opacity="0.5"/>
</g>
</g>
</g>
<defs>
<linearGradient id="paint0_linear_20_2" x1="88.6098" y1="511.526" x2="120.324" y2="582.229" gradientUnits="userSpaceOnUse">
<stop stop-color="#80A203"/>
<stop offset="1" stop-color="#156728"/>
</linearGradient>
<radialGradient id="paint1_radial_20_2" cx="0" cy="0" r="1" gradientUnits="userSpaceOnUse" gradientTransform="translate(45.3073 553.146) rotate(135) scale(52.2105 50.0777)">
<stop offset="0.14835" stop-color="#003422"/>
<stop offset="1" stop-color="#20685A" stop-opacity="0"/>
</radialGradient>
<radialGradient id="paint2_radial_20_2" cx="0" cy="0" r="1" gradientUnits="userSpaceOnUse" gradientTransform="translate(124.221 555.32) rotate(155.101) scale(64.0651 34.2901)">
<stop offset="0.21875" stop-color="#005040"/>
<stop offset="1" stop-color="#20685A" stop-opacity="0"/>
</radialGradient>
<linearGradient id="paint3_linear_20_2" x1="251.266" y1="528.52" x2="200.973" y2="551.079" gradientUnits="userSpaceOnUse">
<stop stop-color="#80A203"/>
<stop offset="1" stop-color="#156728"/>
</linearGradient>
<radialGradient id="paint4_radial_20_2" cx="0" cy="0" r="1" gradientUnits="userSpaceOnUse" gradientTransform="translate(221.661 497.718) rotate(-135) scale(37.1386 35.6214)">
<stop offset="0.14835" stop-color="#003422"/>
<stop offset="1" stop-color="#20685A" stop-opacity="0"/>
</radialGradient>
<radialGradient id="paint5_radial_20_2" cx="0" cy="0" r="1" gradientUnits="userSpaceOnUse" gradientTransform="translate(220.114 553.85) rotate(-114.899) scale(45.571 24.3914)">
<stop offset="0.21875" stop-color="#005040"/>
<stop offset="1" stop-color="#20685A" stop-opacity="0"/>
</radialGradient>
<linearGradient id="paint6_linear_20_2" x1="204.601" y1="479.239" x2="172.225" y2="493.761" gradientUnits="userSpaceOnUse">
<stop stop-color="#80A203"/>
<stop offset="1" stop-color="#156728"/>
</linearGradient>
<radialGradient id="paint7_radial_20_2" cx="0" cy="0" r="1" gradientUnits="userSpaceOnUse" gradientTransform="translate(185.543 459.41) rotate(-135) scale(23.9077 22.9311)">
<stop offset="0.14835" stop-color="#003422"/>
<stop offset="1" stop-color="#20685A" stop-opacity="0"/>
</radialGradient>
<radialGradient id="paint8_radial_20_2" cx="0" cy="0" r="1" gradientUnits="userSpaceOnUse" gradientTransform="translate(184.547 495.546) rotate(-114.899) scale(29.3361 15.7018)">
<stop offset="0.21875" stop-color="#005040"/>
<stop offset="1" stop-color="#20685A" stop-opacity="0"/>
</radialGradient>
<linearGradient id="paint9_linear_20_2" x1="147.596" y1="435.022" x2="123.072" y2="446.022" gradientUnits="userSpaceOnUse">
<stop stop-color="#80A203"/>
<stop offset="1" stop-color="#156728"/>
</linearGradient>
<radialGradient id="paint10_radial_20_2" cx="0" cy="0" r="1" gradientUnits="userSpaceOnUse" gradientTransform="translate(133.16 420.002) rotate(-135) scale(18.1097 17.3699)">
<stop offset="0.14835" stop-color="#003422"/>
<stop offset="1" stop-color="#20685A" stop-opacity="0"/>
</radialGradient>
<radialGradient id="paint11_radial_20_2" cx="0" cy="0" r="1" gradientUnits="userSpaceOnUse" gradientTransform="translate(132.406 447.374) rotate(-114.899) scale(22.2216 11.8938)">
<stop offset="0.21875" stop-color="#005040"/>
<stop offset="1" stop-color="#20685A" stop-opacity="0"/>
</radialGradient>
<linearGradient id="paint12_linear_20_2" x1="114.372" y1="487.37" x2="102.339" y2="492.768" gradientUnits="userSpaceOnUse">
<stop stop-color="#80A203"/>
<stop offset="1" stop-color="#156728"/>
</linearGradient>
<radialGradient id="paint13_radial_20_2" cx="0" cy="0" r="1" gradientUnits="userSpaceOnUse" gradientTransform="translate(107.289 480.001) rotate(-135) scale(8.88601 8.52301)">
<stop offset="0.14835" stop-color="#003422"/>
<stop offset="1" stop-color="#20685A" stop-opacity="0"/>
</radialGradient>
<radialGradient id="paint14_radial_20_2" cx="0" cy="0" r="1" gradientUnits="userSpaceOnUse" gradientTransform="translate(106.918 493.432) rotate(-114.899) scale(10.9036 5.83603)">
<stop offset="0.21875" stop-color="#005040"/>
<stop offset="1" stop-color="#20685A" stop-opacity="0"/>
</radialGradient>
<linearGradient id="paint15_linear_20_2" x1="60.422" y1="391.334" x2="82.8174" y2="441.262" gradientUnits="userSpaceOnUse">
<stop stop-color="#80A203"/>
<stop offset="1" stop-color="#156728"/>
</linearGradient>
<radialGradient id="paint16_radial_20_2" cx="0" cy="0" r="1" gradientUnits="userSpaceOnUse" gradientTransform="translate(29.8432 420.724) rotate(135) scale(36.8693 35.3631)">
<stop offset="0.14835" stop-color="#003422"/>
<stop offset="1" stop-color="#20685A" stop-opacity="0"/>
</radialGradient>
<radialGradient id="paint17_radial_20_2" cx="0" cy="0" r="1" gradientUnits="userSpaceOnUse" gradientTransform="translate(85.5695 422.26) rotate(155.101) scale(45.2406 24.2145)">
<stop offset="0.21875" stop-color="#005040"/>
<stop offset="1" stop-color="#20685A" stop-opacity="0"/>
</radialGradient>
<linearGradient id="paint18_linear_20_2" x1="815.932" y1="160.989" x2="776.768" y2="178.556" gradientUnits="userSpaceOnUse">
<stop stop-color="#80A203"/>
<stop offset="1" stop-color="#156728"/>
</linearGradient>
<radialGradient id="paint19_radial_20_2" cx="0" cy="0" r="1" gradientUnits="userSpaceOnUse" gradientTransform="translate(792.878 137.003) rotate(-135) scale(28.9203 27.7388)">
<stop offset="0.14835" stop-color="#003422"/>
<stop offset="1" stop-color="#20685A" stop-opacity="0"/>
</radialGradient>
<radialGradient id="paint20_radial_20_2" cx="0" cy="0" r="1" gradientUnits="userSpaceOnUse" gradientTransform="translate(791.673 180.714) rotate(-114.899) scale(35.4867 18.9939)">
<stop offset="0.21875" stop-color="#005040"/>
<stop offset="1" stop-color="#20685A" stop-opacity="0"/>
</radialGradient>
<linearGradient id="paint21_linear_20_2" x1="724.604" y1="182.864" x2="671.097" y2="207.554" gradientUnits="userSpaceOnUse">
<stop stop-color="#80A203"/>
<stop offset="1" stop-color="#156728"/>
</linearGradient>
<radialGradient id="paint22_radial_20_2" cx="0" cy="0" r="1" gradientUnits="userSpaceOnUse" gradientTransform="translate(692.019 149.005) rotate(-135) scale(40.851 37.9306)">
<stop offset="0.14835" stop-color="#003422"/>
<stop offset="1" stop-color="#20685A" stop-opacity="0"/>
</radialGradient>
<radialGradient id="paint23_radial_20_2" cx="0" cy="0" r="1" gradientUnits="userSpaceOnUse" gradientTransform="translate(691.331 209.735) rotate(-115.492) scale(49.9399 26.0695)">
<stop offset="0.21875" stop-color="#005040"/>
<stop offset="1" stop-color="#20685A" stop-opacity="0"/>
</radialGradient>
<linearGradient id="paint24_linear_20_2" x1="763.321" y1="255.675" x2="739.364" y2="266.421" gradientUnits="userSpaceOnUse">
<stop stop-color="#80A203"/>
<stop offset="1" stop-color="#156728"/>
</linearGradient>
<radialGradient id="paint25_radial_20_2" cx="0" cy="0" r="1" gradientUnits="userSpaceOnUse" gradientTransform="translate(749.219 241.003) rotate(-135) scale(17.6912 16.9685)">
<stop offset="0.14835" stop-color="#003422"/>
<stop offset="1" stop-color="#20685A" stop-opacity="0"/>
</radialGradient>
<radialGradient id="paint26_radial_20_2" cx="0" cy="0" r="1" gradientUnits="userSpaceOnUse" gradientTransform="translate(748.483 267.741) rotate(-114.899) scale(21.708 11.619)">
<stop offset="0.21875" stop-color="#005040"/>
<stop offset="1" stop-color="#20685A" stop-opacity="0"/>
</radialGradient>
<linearGradient id="paint27_linear_20_2" x1="733.294" y1="283.982" x2="695.401" y2="301.467" gradientUnits="userSpaceOnUse">
<stop stop-color="#80A203"/>
<stop offset="1" stop-color="#156728"/>
</linearGradient>
<radialGradient id="paint28_radial_20_2" cx="0" cy="0" r="1" gradientUnits="userSpaceOnUse" gradientTransform="translate(710.218 260.003) rotate(-135) scale(28.9296 26.8615)">
<stop offset="0.14835" stop-color="#003422"/>
<stop offset="1" stop-color="#20685A" stop-opacity="0"/>
</radialGradient>
<radialGradient id="paint29_radial_20_2" cx="0" cy="0" r="1" gradientUnits="userSpaceOnUse" gradientTransform="translate(709.731 303.011) rotate(-115.492) scale(35.3662 18.4618)">
<stop offset="0.21875" stop-color="#005040"/>
<stop offset="1" stop-color="#20685A" stop-opacity="0"/>
</radialGradient>
<linearGradient id="paint30_linear_20_2" x1="777.25" y1="226.402" x2="779.374" y2="205.638" gradientUnits="userSpaceOnUse">
<stop stop-color="#80A203"/>
<stop offset="1" stop-color="#156728"/>
</linearGradient>
<radialGradient id="paint31_radial_20_2" cx="0" cy="0" r="1" gradientUnits="userSpaceOnUse" gradientTransform="translate(792.956 222.525) rotate(-15) scale(14.063 13.4885)">
<stop offset="0.14835" stop-color="#003422"/>
<stop offset="1" stop-color="#20685A" stop-opacity="0"/>
</radialGradient>
<radialGradient id="paint32_radial_20_2" cx="0" cy="0" r="1" gradientUnits="userSpaceOnUse" gradientTransform="translate(774.841 211.39) rotate(5.10085) scale(17.2561 9.23611)">
<stop offset="0.21875" stop-color="#005040"/>
<stop offset="1" stop-color="#20685A" stop-opacity="0"/>
</radialGradient>
<linearGradient id="paint33_linear_20_2" x1="740.525" y1="201.813" x2="741.546" y2="191.826" gradientUnits="userSpaceOnUse">
<stop stop-color="#80A203"/>
<stop offset="1" stop-color="#156728"/>
</linearGradient>
<radialGradient id="paint34_radial_20_2" cx="0" cy="0" r="1" gradientUnits="userSpaceOnUse" gradientTransform="translate(748.079 199.948) rotate(-15) scale(6.76408 6.48776)">
<stop offset="0.14835" stop-color="#003422"/>
<stop offset="1" stop-color="#20685A" stop-opacity="0"/>
</radialGradient>
<radialGradient id="paint35_radial_20_2" cx="0" cy="0" r="1" gradientUnits="userSpaceOnUse" gradientTransform="translate(739.366 194.593) rotate(5.10085) scale(8.2999 4.44242)">
<stop offset="0.21875" stop-color="#005040"/>
<stop offset="1" stop-color="#20685A" stop-opacity="0"/>
</radialGradient>
<linearGradient id="paint36_linear_20_2" x1="368.684" y1="355.527" x2="642.668" y2="459.829" gradientUnits="userSpaceOnUse">
<stop stop-color="#80A203"/>
<stop offset="1" stop-color="#156728"/>
</linearGradient>
<radialGradient id="paint37_radial_20_2" cx="0" cy="0" r="1" gradientUnits="userSpaceOnUse" gradientTransform="translate(364.183 582.707) rotate(90) scale(197.526 189.457)">
<stop offset="0.14835" stop-color="#003422"/>
<stop offset="1" stop-color="#20685A" stop-opacity="0"/>
</radialGradient>
<radialGradient id="paint38_radial_20_2" cx="0" cy="0" r="1" gradientUnits="userSpaceOnUse" gradientTransform="translate(581.106 377.419) rotate(110.101) scale(242.375 129.728)">
<stop offset="0.21875" stop-color="#005040"/>
<stop offset="1" stop-color="#20685A" stop-opacity="0"/>
</radialGradient>
<linearGradient id="paint39_linear_20_2" x1="499.572" y1="485.731" x2="506.581" y2="501.358" gradientUnits="userSpaceOnUse">
<stop stop-color="#80A203"/>
<stop offset="1" stop-color="#156728"/>
</linearGradient>
<radialGradient id="paint40_radial_20_2" cx="0" cy="0" r="1" gradientUnits="userSpaceOnUse" gradientTransform="translate(490.001 494.93) rotate(135) scale(11.5398 11.0684)">
<stop offset="0.14835" stop-color="#003422"/>
<stop offset="1" stop-color="#20685A" stop-opacity="0"/>
</radialGradient>
<radialGradient id="paint41_radial_20_2" cx="0" cy="0" r="1" gradientUnits="userSpaceOnUse" gradientTransform="translate(507.443 495.41) rotate(155.101) scale(14.16 7.57898)">
<stop offset="0.21875" stop-color="#005040"/>
<stop offset="1" stop-color="#20685A" stop-opacity="0"/>
</radialGradient>
<clipPath id="clip0_20_2">
<rect x="90.2207" y="508.221" width="63.525" height="63.525" rx="15" transform="rotate(45 90.2207 508.221)" fill="white"/>
</clipPath>
<clipPath id="clip1_20_2">
<rect x="253.617" y="529.666" width="45.1868" height="45.1868" rx="11" transform="rotate(135 253.617 529.666)" fill="white"/>
</clipPath>
<clipPath id="clip2_20_2">
<rect x="206.114" y="479.977" width="29.0887" height="29.0887" rx="7" transform="rotate(135 206.114 479.977)" fill="white"/>
</clipPath>
<clipPath id="clip3_20_2">
<rect x="148.742" y="435.581" width="22.0342" height="22.0342" rx="11.0171" transform="rotate(135 148.742 435.581)" fill="white"/>
</clipPath>
<clipPath id="clip4_20_2">
<rect x="114.935" y="487.645" width="10.8117" height="10.8117" rx="5.40585" transform="rotate(135 114.935 487.645)" fill="white"/>
</clipPath>
<clipPath id="clip5_20_2">
<rect x="61.5596" y="389" width="44.8592" height="44.8592" rx="8" transform="rotate(45 61.5596 389)" fill="white"/>
</clipPath>
<clipPath id="clip6_20_2">
<rect x="817.763" y="161.881" width="35.1875" height="35.1875" rx="8" transform="rotate(135 817.763 161.881)" fill="white"/>
</clipPath>
<clipPath id="clip7_20_2">
<rect x="727.169" y="184.146" width="48.1161" height="49.7037" rx="12" transform="rotate(135 727.169 184.146)" fill="white"/>
</clipPath>
<clipPath id="clip8_20_2">
<rect x="764.441" y="256.221" width="21.525" height="21.525" rx="4" transform="rotate(135 764.441 256.221)" fill="white"/>
</clipPath>
<clipPath id="clip9_20_2">
<rect x="735.11" y="284.89" width="34.0746" height="35.1989" rx="8" transform="rotate(135 735.11 284.89)" fill="white"/>
</clipPath>
<clipPath id="clip10_20_2">
<rect x="776.429" y="226.956" width="17.1106" height="17.1106" rx="8.55529" transform="rotate(-105 776.429 226.956)" fill="white"/>
</clipPath>
<clipPath id="clip11_20_2">
<rect x="740.13" y="202.08" width="8.22992" height="8.22992" rx="4.11496" transform="rotate(-105 740.13 202.08)" fill="white"/>
</clipPath>
<clipPath id="clip12_20_2">
<rect width="240.331" height="240.331" fill="white" transform="translate(421.831 390.442)"/>
</clipPath>
<clipPath id="clip13_20_2">
<rect x="499.928" y="485" width="14.0406" height="14.0406" rx="4" transform="rotate(45 499.928 485)" fill="white"/>
</clipPath>
</defs>
</svg>
