<svg width="436" height="585" viewBox="0 0 436 585" fill="none" xmlns="http://www.w3.org/2000/svg">
<path d="M308 519.22C303.82 524.22 296.62 525.16 290.13 525.74C262.29 528.24 233.13 530.55 207.35 519.74C201.18 517.17 195.3 513.88 188.94 511.79C171.06 505.93 151.68 510.18 132.94 511.61C131.345 511.858 129.713 511.707 128.19 511.17C125.88 510.17 124.71 507.51 124.19 505.03C121.66 492.69 131.19 480.25 142.98 475.86C154.77 471.47 167.98 473.44 180.08 477.1C192.18 480.76 203.74 486.1 216.13 488.35C224.99 489.98 234.06 490.03 243.07 490.08C256.62 490.15 284.23 489.24 295.47 494.3C306.23 499.2 315.55 510.19 308 519.22Z" fill="#5E7C03"/>
<g opacity="0.5">
<g clip-path="url(#clip0_20_553)">
<mask id="mask0_20_553" style="mask-type:luminance" maskUnits="userSpaceOnUse" x="70" y="387" width="135" height="135">
<path d="M204.741 454.741L137.741 387.741L70.7412 454.741L137.741 521.741L204.741 454.741Z" fill="white"/>
</mask>
<g mask="url(#mask0_20_553)">
<path d="M137.741 387.741L204.741 454.741L137.741 521.741L70.7412 454.741L137.741 387.741Z" fill="url(#paint0_linear_20_553)"/>
<path d="M15.6829 509.816C44.853 538.987 93.1541 537.979 123.567 507.567C153.979 477.155 154.986 428.853 125.816 399.683C96.646 370.513 48.3449 371.52 17.9324 401.933C-12.48 432.345 -13.4871 480.646 15.6829 509.816Z" fill="url(#paint1_radial_20_553)" fill-opacity="0.5"/>
<path d="M101.778 498.226C103.201 528.707 143.16 535.405 191.03 513.185C238.899 490.966 276.553 448.243 275.13 417.761C273.708 387.28 233.749 380.582 185.879 402.801C138.009 425.021 100.356 467.744 101.778 498.226Z" fill="url(#paint2_radial_20_553)" fill-opacity="0.5"/>
</g>
</g>
</g>
<path d="M202.17 541.75C193.278 541.791 184.719 538.365 178.31 532.2L73.6703 430.94C70.5474 427.958 68.0615 424.374 66.3631 420.405C64.6647 416.435 63.7891 412.163 63.7891 407.845C63.7891 403.527 64.6647 399.254 66.3631 395.285C68.0615 391.315 70.5474 387.731 73.6703 384.75L178.31 283.49C184.74 277.357 193.285 273.936 202.17 273.936C211.056 273.936 219.6 277.357 226.03 283.49L330.66 384.75C333.783 387.731 336.269 391.315 337.968 395.285C339.666 399.254 340.542 403.527 340.542 407.845C340.542 412.163 339.666 416.435 337.968 420.405C336.269 424.374 333.783 427.958 330.66 430.94L226 532.2C219.598 538.356 211.052 541.781 202.17 541.75ZM202.17 276.5C193.971 276.459 186.079 279.616 180.17 285.3L75.5504 386.56C72.6712 389.307 70.3793 392.61 68.8134 396.268C67.2475 399.927 66.4401 403.865 66.4401 407.845C66.4401 411.824 67.2475 415.763 68.8134 419.421C70.3793 423.08 72.6712 426.383 75.5504 429.13L180.18 530.39C186.11 536.043 193.988 539.197 202.18 539.197C210.373 539.197 218.251 536.043 224.18 530.39L328.79 429.13C331.667 426.381 333.957 423.078 335.521 419.419C337.085 415.761 337.892 411.824 337.892 407.845C337.892 403.866 337.085 399.929 335.521 396.27C333.957 392.612 331.667 389.309 328.79 386.56L224.16 285.3C218.252 279.621 210.365 276.465 202.17 276.5Z" fill="#749B07"/>
<g clip-path="url(#clip1_20_553)">
<mask id="mask1_20_553" style="mask-type:luminance" maskUnits="userSpaceOnUse" x="45" y="206" width="100" height="100">
<path d="M144.547 255.878L94.8057 206.136L45.0642 255.878L94.8057 305.619L144.547 255.878Z" fill="white"/>
</mask>
<g mask="url(#mask1_20_553)">
<path d="M94.8057 206.136L144.547 255.878L94.8057 305.619L45.0642 255.878L94.8057 206.136Z" fill="url(#paint3_linear_20_553)"/>
<path d="M4.18918 296.766C25.8453 318.423 61.7046 317.675 84.2831 295.096C106.862 272.518 107.609 236.659 85.9531 215.002C64.297 193.346 28.4377 194.094 5.85924 216.672C-16.7192 239.251 -17.467 275.11 4.18918 296.766Z" fill="url(#paint4_radial_20_553)" fill-opacity="0.5"/>
<path d="M68.1075 288.161C69.1635 310.791 98.8296 315.764 134.369 299.268C169.908 282.772 197.862 251.054 196.806 228.424C195.75 205.794 166.084 200.821 130.545 217.317C95.0055 233.813 67.0515 265.531 68.1075 288.161Z" fill="url(#paint5_radial_20_553)" fill-opacity="0.5"/>
</g>
</g>
<g clip-path="url(#clip2_20_553)">
<mask id="mask2_20_553" style="mask-type:luminance" maskUnits="userSpaceOnUse" x="287" y="370" width="100" height="100">
<path d="M386.483 419.741L336.741 370L287 419.741L336.741 469.483L386.483 419.741Z" fill="white"/>
</mask>
<g mask="url(#mask2_20_553)">
<path d="M336.741 370L386.483 419.741L336.741 469.483L287 419.741L336.741 370Z" fill="url(#paint6_linear_20_553)"/>
<path d="M246.125 460.63C267.781 482.286 303.64 481.539 326.219 458.96C348.797 436.382 349.545 400.522 327.889 378.866C306.233 357.21 270.373 357.958 247.795 380.536C225.216 403.115 224.469 438.974 246.125 460.63Z" fill="url(#paint7_radial_20_553)" fill-opacity="0.5"/>
<path d="M310.043 452.025C311.099 474.655 340.765 479.627 376.304 463.131C411.843 446.635 439.797 414.918 438.741 392.288C437.685 369.658 408.019 364.685 372.48 381.181C336.941 397.677 308.987 429.395 310.043 452.025Z" fill="url(#paint8_radial_20_553)" fill-opacity="0.5"/>
</g>
</g>
<g clip-path="url(#clip3_20_553)">
<mask id="mask3_20_553" style="mask-type:luminance" maskUnits="userSpaceOnUse" x="246" y="304" width="65" height="65">
<path d="M310.139 336.582L278.53 304.974L246.922 336.582L278.53 368.191L310.139 336.582Z" fill="white"/>
</mask>
<g mask="url(#mask3_20_553)">
<path d="M278.53 304.974L310.139 336.582L278.53 368.191L246.922 336.582L278.53 304.974Z" fill="url(#paint9_linear_20_553)"/>
<path d="M220.947 362.565C234.709 376.327 257.496 375.852 271.844 361.504C286.191 347.156 286.666 324.369 272.905 310.607C259.143 296.846 236.356 297.321 222.009 311.669C207.661 326.016 207.186 348.804 220.947 362.565Z" fill="url(#paint10_radial_20_553)" fill-opacity="0.5"/>
<path d="M261.565 357.097C262.236 371.477 281.087 374.637 303.671 364.154C326.254 353.672 344.018 333.517 343.347 319.136C342.676 304.756 323.824 301.596 301.241 312.078C278.657 322.561 260.893 342.716 261.565 357.097Z" fill="url(#paint11_radial_20_553)" fill-opacity="0.5"/>
</g>
</g>
<g clip-path="url(#clip4_20_553)">
<mask id="mask4_20_553" style="mask-type:luminance" maskUnits="userSpaceOnUse" x="154" y="345" width="20" height="20">
<path d="M158.207 364.908L173.908 360.701L169.701 345L154 349.207L158.207 364.908Z" fill="white"/>
</mask>
<g mask="url(#mask4_20_553)">
<path d="M173.908 360.701L158.207 364.908L154 349.207L169.701 345L173.908 360.701Z" fill="url(#paint12_linear_20_553)"/>
<path d="M166.241 332.096C159.405 333.928 155.412 341.19 157.322 348.317C159.231 355.444 166.321 359.737 173.157 357.905C179.993 356.074 183.986 348.811 182.076 341.684C180.167 334.557 173.077 330.265 166.241 332.096Z" fill="url(#paint13_radial_20_553)"/>
<path d="M160.578 345.882C155.928 343.478 151.505 348.84 150.7 357.858C149.895 366.876 153.013 376.135 157.663 378.538C162.314 380.941 166.737 375.579 167.541 366.561C168.346 357.543 165.229 348.285 160.578 345.882Z" fill="url(#paint14_radial_20_553)"/>
</g>
</g>
<path d="M184.88 348.93C178.724 348.956 172.799 346.585 168.36 342.32L95.9198 272.21C93.7549 270.145 92.0315 267.663 90.854 264.913C89.6765 262.162 89.0693 259.202 89.0693 256.21C89.0693 253.218 89.6765 250.258 90.854 247.508C92.0315 244.758 93.7549 242.275 95.9198 240.21L168.36 170.1C172.81 165.867 178.718 163.506 184.86 163.506C191.002 163.506 196.909 165.867 201.36 170.1L273.8 240.21C275.967 242.273 277.693 244.756 278.872 247.506C280.051 250.256 280.659 253.218 280.659 256.21C280.659 259.203 280.051 262.164 278.872 264.914C277.693 267.665 275.967 270.147 273.8 272.21L201.4 342.32C196.962 346.587 191.036 348.958 184.88 348.93ZM184.88 165.28C179.206 165.254 173.745 167.443 169.66 171.38L97.2198 241.49C95.2261 243.391 93.6389 245.676 92.5545 248.208C91.47 250.74 90.9108 253.466 90.9108 256.22C90.9108 258.975 91.47 261.7 92.5545 264.232C93.6389 266.764 95.2261 269.05 97.2198 270.95L169.66 341.06C173.755 344.984 179.208 347.175 184.88 347.175C190.552 347.175 196.004 344.984 200.1 341.06L272.55 271C274.541 269.098 276.126 266.812 277.209 264.281C278.292 261.749 278.85 259.024 278.85 256.27C278.85 253.517 278.292 250.792 277.209 248.26C276.126 245.728 274.541 243.442 272.55 241.54L200.1 171.38C196.014 167.443 190.554 165.254 184.88 165.28Z" fill="#749B07"/>
<mask id="mask5_20_553" style="mask-type:luminance" maskUnits="userSpaceOnUse" x="264" y="403" width="135" height="71">
<path d="M398.15 403.2C275.59 406.52 264.23 465.35 264.23 465.35L270.23 473.54L398.15 403.2Z" fill="white"/>
</mask>
<g mask="url(#mask5_20_553)">
<mask id="mask6_20_553" style="mask-type:luminance" maskUnits="userSpaceOnUse" x="259" y="398" width="145" height="81">
<path d="M403.15 398.2H259.23V478.54H403.15V398.2Z" fill="white"/>
</mask>
<g mask="url(#mask6_20_553)">
<rect x="248" y="348" width="157" height="152" fill="url(#paint15_linear_20_553)"/>
</g>
</g>
<mask id="mask7_20_553" style="mask-type:luminance" maskUnits="userSpaceOnUse" x="274" y="403" width="125" height="89">
<path d="M398.09 403.28C336 509 279 490.51 279 490.51L274.75 481.26L398.09 403.28Z" fill="white"/>
</mask>
<g mask="url(#mask7_20_553)">
<mask id="mask8_20_553" style="mask-type:luminance" maskUnits="userSpaceOnUse" x="269" y="398" width="135" height="99">
<path d="M403.09 398.28H269.72V496.74H403.09V398.28Z" fill="white"/>
</mask>
<g mask="url(#mask8_20_553)">
<rect x="247" y="372" width="157" height="152" fill="url(#paint16_linear_20_553)"/>
</g>
</g>
<path d="M358.12 425.21L366.52 405.5" stroke="#003E24" stroke-width="2" stroke-miterlimit="10"/>
<path d="M348.47 434.65L370.71 442.88" stroke="#003E24" stroke-width="2" stroke-miterlimit="10"/>
<path d="M334.21 438.37L342.52 409.64" stroke="#003E24" stroke-width="2" stroke-miterlimit="10"/>
<path d="M322.95 450.78L351.67 464.56" stroke="#003E24" stroke-width="2" stroke-miterlimit="10"/>
<path d="M373.4 418.89L388.22 419.14" stroke="#003E24" stroke-width="2" stroke-miterlimit="10"/>
<path d="M303.64 455.19L315.69 417.88" stroke="#003E24" stroke-width="2" stroke-miterlimit="10"/>
<path d="M293.33 470.86L324.6 482.26" stroke="#003E24" stroke-width="2" stroke-miterlimit="10"/>
<path d="M281.28 467.48L288.83 432.67" stroke="#003E24" stroke-width="2" stroke-miterlimit="10"/>
<path d="M274.72 481.26L296 491.39" stroke="#003E24" stroke-width="2" stroke-miterlimit="10"/>
<mask id="mask9_20_553" style="mask-type:luminance" maskUnits="userSpaceOnUse" x="265" y="317" width="84" height="127">
<path d="M348.82 317.09C245.91 383.74 266.82 439.89 266.82 439.89L276.24 443.73L348.82 317.09Z" fill="white"/>
</mask>
<g mask="url(#mask9_20_553)">
<mask id="mask10_20_553" style="mask-type:luminance" maskUnits="userSpaceOnUse" x="260" y="312" width="94" height="137">
<path d="M353.82 312.09H260.1V448.73H353.82V312.09Z" fill="white"/>
</mask>
<g mask="url(#mask10_20_553)">
<rect x="278" y="299" width="69" height="168" fill="url(#paint17_linear_20_553)"/>
</g>
</g>
<mask id="mask11_20_553" style="mask-type:luminance" maskUnits="userSpaceOnUse" x="284" y="317" width="65" height="137">
<path d="M348.81 317.2C350.81 439.79 292.52 453.69 292.52 453.69L284.08 448L348.81 317.2Z" fill="white"/>
</mask>
<g mask="url(#mask11_20_553)">
<mask id="mask12_20_553" style="mask-type:luminance" maskUnits="userSpaceOnUse" x="279" y="312" width="75" height="147">
<path d="M353.86 312.2H279.08V458.69H353.86V312.2Z" fill="white"/>
</mask>
<g mask="url(#mask12_20_553)">
<rect x="288" y="294" width="69" height="168" fill="url(#paint18_linear_20_553)"/>
</g>
</g>
<path d="M326.11 356.73L323.01 335.53" stroke="#003E24" stroke-width="2" stroke-miterlimit="10"/>
<path d="M322.78 369.81L346.05 365.26" stroke="#003E24" stroke-width="2" stroke-miterlimit="10"/>
<path d="M312.54 380.41L304.68 351.56" stroke="#003E24" stroke-width="2" stroke-miterlimit="10"/>
<path d="M309.39 396.87L341.09 393.68" stroke="#003E24" stroke-width="2" stroke-miterlimit="10"/>
<path d="M335.86 343.37L348.64 335.87" stroke="#003E24" stroke-width="2" stroke-miterlimit="10"/>
<path d="M295.19 410.69L286.06 372.56" stroke="#003E24" stroke-width="2" stroke-miterlimit="10"/>
<path d="M294.55 429.44L327.19 422.89" stroke="#003E24" stroke-width="2" stroke-miterlimit="10"/>
<path d="M282.51 432.83L270.83 399.18" stroke="#003E24" stroke-width="2" stroke-miterlimit="10"/>
<path d="M284.08 448.01L307.52 445.57" stroke="#003E24" stroke-width="2" stroke-miterlimit="10"/>
<path d="M155.51 499.23C153.16 501.23 152.4 503.46 153.18 505.37C163.92 510.92 182.71 508.74 196.98 505.81C207.9 503.57 216.18 500.89 216.18 500.89C216.68 495.71 217.48 490.5 213.41 485.89C212.88 486.05 212.15 486.05 211.85 486.41C206.4 492.77 200.85 493.22 194.95 487.68C193.301 486.06 191.15 485.048 188.85 484.81C183.7 487.09 180.12 491.81 174.59 493.67C170.59 495.01 166.59 495.48 162.59 496.34C160.05 496.9 157.55 497.51 155.51 499.23Z" fill="#83484B"/>
<path d="M153.18 505.37C153.542 506.126 154.051 506.802 154.678 507.358C155.305 507.914 156.036 508.34 156.83 508.61C160.707 510.09 164.787 510.97 168.93 511.22C177.93 512.08 186.69 512.22 194.93 507.7C195.627 507.284 196.377 506.965 197.16 506.75L196.96 505.81C182.71 508.74 163.92 510.92 153.18 505.37Z" fill="#06122E"/>
<path d="M197 505.81L197.2 506.75C198.42 506.48 199.69 506.75 200.82 508.48C201.63 509.75 214.24 507.96 215.5 506.8C215.69 506.62 216 506.37 215.99 506.16C215.916 504.401 215.986 502.638 216.2 500.89C216.2 500.89 207.9 503.57 197 505.81Z" fill="#06122E"/>
<path d="M234.15 510.37C232.84 512.19 232.42 513.93 232.84 515.37C242.84 521.37 262.84 515.31 277.55 509.32C287.97 505.09 295.81 500.88 295.81 500.88C295.37 495.88 295.33 490.88 291.15 486.95C290.62 486.808 290.056 486.875 289.574 487.137C289.092 487.4 288.729 487.837 288.56 488.36C287.89 489.697 286.938 490.874 285.77 491.808C284.601 492.743 283.244 493.413 281.792 493.772C280.339 494.131 278.826 494.171 277.357 493.89C275.888 493.608 274.497 493.011 273.28 492.14C270.94 490.42 268.41 489.14 265.33 489.84C260.92 493.32 257.71 498.06 252.75 501.06C248.96 503.36 244.68 503.94 240.75 505.76C238.28 506.94 235.82 508.05 234.15 510.37Z" fill="#834D4A"/>
<path d="M232.84 515.38C233.3 516.98 234.76 518.25 237.13 518.93C240.493 519.783 243.979 520.036 247.43 519.68C257.21 519.05 266.99 518.49 275.21 511.92C276 511.189 276.905 510.594 277.89 510.16L277.55 509.33C262.79 515.32 242.86 521.34 232.84 515.38Z" fill="#06122E"/>
<path d="M277.55 509.33L277.89 510.16C278.358 509.98 278.865 509.929 279.36 510.01C280.31 510.232 281.144 510.799 281.7 511.6C282.58 512.67 295.44 508.47 296.29 507.19C296.537 506.838 296.647 506.408 296.6 505.98C296.377 505.121 296.203 504.249 296.08 503.37C295.97 502.55 295.88 501.72 295.81 500.89C295.81 500.89 288 505.1 277.55 509.33Z" fill="#06122E"/>
<path d="M265.34 489.85C268.41 489.13 270.93 490.43 273.28 492.14C274.495 493.015 275.885 493.615 277.355 493.9C278.825 494.184 280.338 494.145 281.792 493.787C283.245 493.428 284.603 492.758 285.772 491.823C286.941 490.888 287.892 489.709 288.56 488.37C288.729 487.848 289.092 487.41 289.574 487.148C290.056 486.885 290.62 486.818 291.15 486.96C287.52 485.04 288.49 481.18 287.44 478.17C284.11 477.93 281.49 480.06 278.49 480.9C273.385 482.349 268.15 483.297 262.86 483.73C266.29 484.72 264.89 487.66 265.34 489.85Z" fill="#F4A994"/>
<path d="M188.85 484.83C191.166 485.062 193.334 486.074 195 487.7C200.9 493.25 206.44 492.79 211.89 486.43C212.19 486.07 212.89 486.07 213.45 485.91C210.27 484.16 212.76 480.39 210.7 478.23C203.55 478.41 196.39 479.36 189.24 478.12C189.09 480.36 189 482.59 188.85 484.83Z" fill="#F4A994"/>
<path d="M125.57 117.47C121.57 123.85 120.48 130.47 122.7 137.66C125.76 147.57 133.34 151.46 142.83 152.66C152.32 153.86 161.48 152.15 170.6 149.89C174.51 148.89 178.48 148.16 182.34 147.04C184.8 146.33 185.34 147.04 185.19 149.41C184.316 167.683 183.513 185.956 182.78 204.23C182.1 221.34 181.06 238.42 178.72 255.39C178.22 259.07 177 262.61 176.72 266.39C176.63 267.86 176.89 268.77 177.8 269.03C181.25 270.03 181.28 272.5 181.23 275.37C180.84 297.26 180.23 319.16 180.33 341.05C180.33 350.29 180.09 359.53 181.01 368.85C181.81 376.97 182.01 385.3 182.29 393.55C182.62 405.05 183.46 416.55 183.97 428.05C184.41 437.83 185.27 447.59 185.68 457.39C185.9 462.78 186.68 468.18 186.34 473.58C186.17 476.64 187.39 478.05 190.13 478.58C197.27 479.82 204.43 478.87 211.59 478.69C215.53 478.24 216.7 476.02 216.98 472.1C219.2 441.77 218.98 411.41 218.7 381.04C218.538 377.029 219.083 373.022 220.31 369.2C222.287 363.185 223.799 357.027 224.83 350.78C225.15 349.04 224.83 346.95 226.83 345.66C230.41 360.51 233.83 375.3 237.54 390.04C245.073 420.306 252.656 450.57 260.29 480.83C260.76 482.72 261.18 484.53 263.74 484.19C269.029 483.76 274.264 482.816 279.37 481.37C282.37 480.52 285 478.37 288.32 478.64C291.11 476.64 291.19 474.05 290.76 470.86C287.54 447.51 285.09 424.01 279.86 400.99C276.639 387.268 275.108 373.203 275.3 359.11C275.74 335.67 274.13 312.22 274.99 288.76C275.12 285.2 274.36 281.45 277.76 278.49C278.83 277.57 278.76 274.94 278.64 273.12C277.74 258.46 278.1 243.78 278.05 228.17C273.62 231.17 269.63 233.73 265.69 236.42C256.24 242.9 256.6 243.96 249.75 233.42C245.99 227.63 241.98 222.01 238.18 216.25C237.46 215.16 235.98 214.34 236.48 212.64L236.58 212.46L235.63 212.37C234.5 211.1 232.94 210.87 231.37 210.66C227.956 210.169 224.637 209.157 221.53 207.66C215.46 204.85 212.25 199.5 213.26 193.72C214.1 188.93 214.83 184.18 213.45 179.38C210.94 175.96 213.28 174.15 215.79 172.44C226.916 164.88 238.056 157.333 249.21 149.8C254.82 146.01 255.66 146.22 259.46 151.8C265.32 160.466 271.186 169.096 277.06 177.69L277.92 177.49C277.92 171.23 277.97 163.4 277.97 156.58C282.38 162.38 285.85 167.26 289.67 171.86C291.67 174.28 290.85 174.95 288.43 175.86C284.92 177.2 281.43 178.55 277.91 179.86V179.93C277.91 179.93 277.86 179.93 277.83 179.93C268.83 183.34 259.83 186.66 250.71 189.59C249.771 189.753 248.88 190.122 248.1 190.67C247.757 190.998 247.523 191.424 247.43 191.89C247.43 193.82 247.43 195.74 247.55 197.66C247.63 198.87 247.73 200.07 247.86 201.27C247.91 201.79 247.97 202.27 248.04 202.82C248.23 204.26 248.46 205.7 248.74 207.14C248.74 207.33 248.81 207.53 248.85 207.72C249.07 208.82 249.33 209.93 249.61 211.03C250.74 214.64 253.02 214.79 256.5 214.23C269.99 212.01 283.44 209.65 296.62 206.1C301.49 204.79 306.32 203.32 311.11 201.63C316.024 199.965 320.724 197.722 325.11 194.95C329.85 191.89 331.8 187.7 331.11 182.09C329.921 173.952 327.372 166.072 323.57 158.78C313.93 139.49 301.41 122.12 287.57 105.62C282.8 99.9198 276.22 97.4698 269.49 95.2698C265.07 93.8198 260.42 93.1798 256.74 89.7198C254.94 88.0298 252.19 87.3398 249.86 86.2198C249.25 85.8636 248.565 85.6548 247.86 85.6098C246.93 85.6098 246.52 86.5098 246.39 88.4798C246.156 91.8907 245.463 95.2543 244.33 98.4798C242.577 103.25 240.43 107.866 237.91 112.28C232.57 122.14 226.63 131.68 220.91 141.36C219.55 143.81 218.17 146.26 216.84 148.73C216.42 149.51 216.91 150.99 215.41 150.93C214.07 150.87 214.09 149.59 213.91 148.66C212.34 140.92 210.82 133.17 209.29 125.42C206.185 116.115 205.497 106.174 207.29 96.5298C207.288 96.5065 207.288 96.4831 207.29 96.4598C207.72 94.3098 209.35 92.8198 210.87 91.3298C210.55 90.6198 211.35 89.7698 211.05 89.0498C210.943 88.8192 210.764 88.6297 210.54 88.5098C198 93.4898 186.94 101.54 173.77 106C178.35 99.1898 182.6 92.6898 187.05 86.3398C188.64 84.0698 189.51 81.9398 188.29 79.3398C185.1 75.4509 181.329 72.0778 177.11 69.3398C175.51 69.0498 174.11 67.8998 172.3 69.3398C154.74 83.4898 137.83 98.1798 125.57 117.47Z" fill="#003E24"/>
<path d="M183.45 57.6801C179.54 60.5401 178.35 64.9901 177.11 69.3601C181.33 72.0981 185.101 75.4712 188.29 79.3601C190.46 78.8801 192 77.4301 193.52 75.9601C193.58 74.9601 193.2 74.5301 192.15 74.2501C188.67 73.3101 188.51 71.2501 190.47 68.6001C192.73 73.2401 194.4 73.8501 197.3 70.4601C196.71 70.8601 196.22 62.1701 196.22 62.1701C196.22 62.1701 191.88 59.2801 190.92 61.1701C190.92 61.1701 190.43 59.2401 196.22 59.2401L196.38 48.5801C196.05 49.0498 195.628 49.4478 195.14 49.7501C191.19 52.3001 187.26 54.9101 183.45 57.6801Z" fill="#9E634B"/>
<path d="M190.47 68.5498C188.47 71.1798 188.67 73.2598 192.15 74.1998C193.15 74.4798 193.58 74.9198 193.52 75.9098C195.81 74.9098 197.76 79.0698 200.15 76.3398C200.175 75.9068 200.175 75.4728 200.15 75.0398C200.15 74.9798 200.15 74.9198 200.15 74.8698C200.15 74.5998 200.09 74.3398 200.05 74.0698L199.96 73.6298C199.96 73.3398 199.84 73.0598 199.77 72.7698C199.66 72.3398 199.53 71.9098 199.4 71.4798C199.32 71.1998 199.22 70.9098 199.13 70.6198C199.08 70.4798 199.03 70.3298 198.99 70.1898L198.57 68.8798C198.261 69.4665 197.847 69.9918 197.35 70.4298C194.4 73.7998 192.73 73.1898 190.47 68.5498Z" fill="#1B2A50"/>
<path d="M196.22 59.2299C190.43 59.2299 190.92 61.1599 190.92 61.1599C191.92 59.2299 196.22 62.1599 196.22 62.1599C196.22 62.1599 196.71 70.8499 197.3 70.4499C197.69 69.9999 198.09 69.4499 198.52 68.8999C197.92 66.9599 197.3 45.8999 197.3 45.8999C197.178 46.8367 196.865 47.7385 196.38 48.5499L196.22 59.2299Z" fill="#806255"/>
<path d="M197.3 45.9102L196.38 48.5602C196.864 47.7488 197.177 46.847 197.3 45.9102Z" fill="#DC8373"/>
<path d="M197.3 45.9098C197.3 45.9098 197.92 66.9098 198.52 68.9098L198.94 70.2198C198.94 70.3598 199.03 70.5098 199.08 70.6498C199.18 70.9398 199.27 71.2198 199.35 71.5098C199.48 71.9398 199.61 72.3698 199.72 72.7998C199.79 73.0898 199.86 73.3698 199.91 73.6598C199.96 73.9498 199.97 73.9498 200 74.0998C200.03 74.2498 200.08 74.6298 200.1 74.8998C200.1 74.8998 200.1 75.0098 200.1 75.0698C200.125 75.5027 200.125 75.9368 200.1 76.3698C200.43 76.8598 200.76 77.3698 201.1 77.8698C202.075 79.5444 203.157 81.1545 204.34 82.6898C204.53 82.9198 204.73 83.1298 204.93 83.3498L205.23 83.6598C206.541 85.0016 208.205 85.9447 210.03 86.3798C210.95 86.5998 210.77 87.7898 210.56 88.6498C210.784 88.7696 210.963 88.9591 211.07 89.1898C210.785 88.392 210.659 87.546 210.7 86.6998C216.529 85.036 222.255 83.0326 227.85 80.6998C230.78 79.4598 234.66 78.5498 237.17 77.0698C241.01 74.8098 241.69 71.5098 243.04 69.0698C242.45 66.3798 239.57 63.8298 241.97 60.9298C243.645 58.7785 244.829 56.287 245.44 53.6298C246.13 51.0998 247.82 48.0498 244.82 46.1698C241.82 44.2898 240 47.1698 238 48.9998C237.82 49.1598 237.49 49.1598 237.22 49.2498C234.79 44.1298 234.02 38.5398 232.75 33.1098C232.12 30.4598 231.07 29.8698 228.3 30.1098C218.68 30.9298 209.09 30.4998 199.74 27.7598C196.89 33.5298 198.5 39.9098 197.3 45.9098Z" fill="#9E634B"/>
<path d="M197.3 70.4099C197.798 69.9719 198.211 69.4466 198.52 68.8599C198.09 69.4499 197.69 69.9999 197.3 70.4099Z" fill="#DC8373"/>
<path d="M203.66 18.72C201.26 21.2 198.94 23.84 199.76 27.77C209.11 30.51 218.7 30.94 228.32 30.12C231.09 29.89 232.14 30.48 232.77 33.12C234.04 38.55 234.77 44.12 237.24 49.26C237.51 49.17 237.84 49.17 238.02 49.01C239.96 47.16 241.81 44.29 244.88 46.22C247.95 48.15 246.19 51.15 245.5 53.68C244.883 56.3468 243.688 58.8456 242 61C239.6 63.9 242.48 66.45 243.07 69.14C247.07 65.71 247.77 60.75 248.96 56.08C251.449 46.6002 251.692 36.6703 249.67 27.08C247.38 16.36 232.32 8.89004 221.67 10.13C214.836 10.7592 208.45 13.805 203.66 18.72Z" fill="#302827"/>
<path d="M207.32 96.6401C205.527 106.284 206.215 116.225 209.32 125.53C210.11 119.06 214.4 113.17 212.89 106.25H212.83C211.38 103.84 210.99 101.38 210.12 100.25L207.52 96.6101L207.3 96.5601C207.304 96.5871 207.311 96.6139 207.32 96.6401Z" fill="#FDFDFD"/>
<path d="M207.34 96.5698L207.56 96.6198L210.16 100.26C211.03 101.39 211.42 103.85 212.87 106.26H212.93C212.784 105.619 212.6 104.988 212.38 104.37C211.52 102.05 214.38 100.87 216.31 99.9398C218.05 99.1098 219.38 99.9398 220.39 101.33C221.55 102.96 222.25 104.85 220.65 106.44C220.257 106.824 219.92 107.261 219.65 107.74C221.08 108.19 238.87 103.06 239.39 101.93L244.21 98.5598H244.34C245.473 95.3343 246.166 91.9706 246.4 88.5598C246.53 86.5598 246.94 85.7298 247.87 85.6898L244.21 83.6898L243.6 83.5698C242.72 88.4298 238.94 91.8198 234.43 94.8198C225.62 100.7 215.66 99.1398 210.91 91.3698C209.4 92.9298 207.77 94.4198 207.34 96.5698Z" fill="#FDFDFD"/>
<path d="M211.1 89.1599C211.4 89.8799 210.6 90.7299 210.92 91.4399C215.67 99.2099 225.63 100.77 234.44 94.8899C238.95 91.8899 242.73 88.4999 243.61 83.6399C243.983 81.3536 243.801 79.0112 243.08 76.8099C242.37 74.4599 243.08 71.6999 243.08 69.1299C243.08 69.1299 242.52 73.2199 241.55 74.1799C241.28 74.4499 241.33 75.7399 238.17 77.5599C230.1 82.2299 213.31 90.3599 211.4 89.4499C211.4 89.4499 211.26 89.4499 211.11 89.1499L211.1 89.1599Z" fill="#9E634B"/>
<path d="M210.76 86.6599C210.72 87.5061 210.845 88.3521 211.13 89.1499C211.28 89.4399 211.41 89.4499 211.42 89.4499C213.33 90.3599 230.12 82.2299 238.19 77.5599C241.35 75.7399 241.3 74.4499 241.57 74.1799C242.57 73.1799 243.1 69.1299 243.1 69.1299C241.75 71.5199 241.1 74.8199 237.23 77.1299C234.72 78.6099 230.84 79.5199 227.91 80.7599C222.314 83.0588 216.587 85.0289 210.76 86.6599Z" fill="#806255"/>
<path d="M219.66 107.73C219.93 107.251 220.267 106.814 220.66 106.43C222.26 104.84 221.56 102.95 220.4 101.32C219.4 99.9198 218.06 99.0998 216.32 99.9298C214.38 100.86 211.53 102.04 212.39 104.36C212.611 104.978 212.794 105.609 212.94 106.25C214.45 113.17 210.16 119.06 209.37 125.53C210.9 133.28 212.37 141.03 213.99 148.77C214.17 149.7 214.15 150.98 215.49 151.04C216.99 151.1 216.49 149.62 216.92 148.84C218.25 146.37 219.63 143.92 220.99 141.47C219.73 136.71 219.89 131.83 219.67 126.98C219.45 122.13 219.18 117.52 218.89 112.79C218.632 111.064 218.901 109.301 219.66 107.73Z" fill="#003E24"/>
<path d="M213.34 193.8C212.34 199.58 215.54 204.93 221.61 207.74C224.717 209.237 228.036 210.249 231.45 210.74C233.02 210.95 234.58 211.18 235.71 212.45L236.45 211.94L236.66 212.54L236.56 212.72C239.01 210.59 241.98 212.17 244.66 211.63C246.316 211.38 247.986 211.23 249.66 211.18C249.38 210.08 249.12 208.97 248.9 207.87C248.9 207.68 248.83 207.48 248.79 207.29C248.51 205.85 248.28 204.41 248.09 202.97C248.02 202.45 247.96 201.97 247.91 201.42C247.78 200.22 247.68 199.02 247.6 197.81C247.49 195.89 247.45 193.97 247.48 192.04C243.62 191.54 241.48 188.92 239.98 185.7C237.46 180.14 232.98 176.79 227.71 174.28C226.71 173.79 225.58 172.89 224.71 174.28C224.428 174.794 224.344 175.394 224.472 175.967C224.601 176.54 224.935 177.046 225.41 177.39C226.282 178.123 227.235 178.754 228.25 179.27C230.77 180.54 231.5 182.62 231.5 185.27C231.5 187.92 230.45 188.27 228.45 186.89C224.95 184.42 221.45 181.89 218.01 179.4C216.45 178.27 214.93 177.1 213.45 179.49C214.91 184.26 214.18 189 213.34 193.8Z" fill="#9E634B"/>
<path d="M215.87 172.52C213.36 174.23 211.02 176.04 213.53 179.46C215.01 177.07 216.53 178.24 218.09 179.37C221.56 181.89 225.03 184.37 228.53 186.86C230.53 188.28 231.53 187.93 231.58 185.24C231.63 182.55 230.85 180.5 228.33 179.24C227.315 178.724 226.362 178.093 225.49 177.36C225.015 177.016 224.681 176.51 224.552 175.937C224.424 175.364 224.508 174.765 224.79 174.25C225.61 172.85 226.71 173.75 227.79 174.25C233.1 176.76 237.54 180.11 240.06 185.67C241.51 188.89 243.7 191.51 247.56 192.01C247.647 191.542 247.882 191.114 248.23 190.79C249.01 190.242 249.901 189.873 250.84 189.71C259.98 186.78 268.99 183.46 277.96 180.05C277.7 179.74 277.46 177.75 277.19 177.82C271.317 169.186 265.45 160.556 259.59 151.93C255.79 146.32 254.95 146.11 249.34 149.93C238.16 157.43 227.003 164.96 215.87 172.52Z" fill="#FDFDFD"/>
<path d="M219.66 107.73C218.897 109.3 218.625 111.063 218.88 112.79C219.17 117.52 219.45 122.25 219.66 126.98C219.87 131.71 219.72 136.71 220.98 141.47C226.65 131.79 232.59 122.25 237.98 112.39C240.5 107.976 242.647 103.36 244.4 98.5898H244.27L239.45 101.96C238.88 103.05 221.09 108.18 219.66 107.73Z" fill="#FDFDFD"/>
<path d="M235.71 212.41L236.66 212.5L236.45 211.9L235.71 212.41Z" fill="#FDFDFD"/>
<path d="M236.56 212.68C236.06 214.38 237.56 215.2 238.26 216.29C242.06 222.05 246.07 227.67 249.83 233.46C256.68 243.98 256.32 242.92 265.77 236.46C269.71 233.77 273.7 231.17 278.13 228.21L298.52 214.32C299.083 213.932 299.479 213.345 299.629 212.678C299.779 212.011 299.672 211.312 299.33 210.72L296.7 206.23C283.52 209.78 270.07 212.14 256.58 214.36C253.1 214.92 250.82 214.77 249.69 211.16C248.016 211.21 246.346 211.36 244.69 211.61C242 212.13 239 210.55 236.56 212.68Z" fill="#FDFDFD"/>
<path d="M248.12 202.92C248.05 202.41 247.99 201.92 247.94 201.37C248 201.89 248.05 202.4 248.12 202.92Z" fill="#749C08"/>
<path d="M277.14 177.8C277.41 177.73 277.65 179.72 277.91 180.03H277.99C277.99 179.26 277.99 178.46 277.99 177.63L277.14 177.8Z" fill="#749C08"/>
<path d="M278 180H277.92C277.92 180 277.92 180.05 278 180Z" fill="#749C08"/>
<path d="M244.22 98.5498L239.4 101.92C238.88 103.05 221.09 108.18 219.66 107.73" stroke="#C2C1C1" stroke-width="3" stroke-miterlimit="10"/>
<path d="M207.56 96.6201L210.16 100.26C211.03 101.39 211.42 103.85 212.87 106.26" stroke="#C2C1C1" stroke-width="3" stroke-miterlimit="10"/>
<path d="M226.62 345.3L225.44 300.16L219.38 372.32L223.24 358.81L226.62 345.3Z" fill="#1E2023"/>
<path d="M276.88 278C276.88 278 231.69 277.74 220.23 254.82C220.23 254.82 223.52 275.46 223.62 288.66C223.62 288.66 211.77 263.75 212.2 254.82L212.14 255.06C212.14 255.06 202 277.76 175.8 265.89C175.8 265.89 197.33 275.08 211.49 253.02C211.49 253.02 220.9 252.68 222.79 254.85C224.68 257.02 258.64 282.15 276.88 278Z" fill="#1E2023"/>
<path d="M253.15 87.6899C253.9 89.1299 254.64 90.5799 255.35 92.0399C256.06 93.4999 256.74 94.9699 257.44 96.4399C257.53 96.6299 257.61 96.7799 257.7 97.0099C258.012 97.814 258.012 98.7059 257.7 99.5099C257.497 100.063 257.166 100.559 256.732 100.957C256.299 101.355 255.777 101.644 255.21 101.8L252.77 102.38L250.4 102.9L251.02 100.26L255.54 103.26L256.65 104.03L256.93 104.22L257.07 104.31L257.29 104.48C257.585 104.72 257.85 104.996 258.08 105.3C258.536 105.929 258.816 106.668 258.892 107.442C258.968 108.215 258.836 108.995 258.51 109.7L258.41 109.91L258.21 110.14C256.4 112.24 254.55 114.3 252.7 116.36C250.85 118.42 249.01 120.5 247.14 122.54C243.38 126.62 239.64 130.71 235.79 134.7C233.89 136.7 231.966 138.7 230.02 140.7C228.09 142.7 226.14 144.7 224.16 146.61C220.23 150.53 216.24 154.39 212.1 158.12C215.43 153.66 218.89 149.31 222.42 145.03C224.17 142.87 225.95 140.75 227.75 138.64C229.55 136.53 231.33 134.4 233.16 132.32C236.78 128.11 240.49 124 244.16 119.87C246.01 117.81 247.91 115.79 249.79 113.75C251.67 111.71 253.54 109.67 255.46 107.67L255.17 108.11C255.235 107.996 255.27 107.867 255.27 107.735C255.27 107.603 255.235 107.474 255.17 107.36C255.138 107.295 255.094 107.238 255.04 107.19L254.91 107.08L254.64 106.88L253.57 106.05L249.32 102.68L246.55 100.47L249.93 100.04L252.34 99.7299L254.68 99.4599C254.901 99.4337 255.113 99.3534 255.296 99.2261C255.479 99.0988 255.628 98.9284 255.73 98.7299C255.842 98.5173 255.9 98.2804 255.9 98.0399C255.909 97.9201 255.909 97.7997 255.9 97.6799C255.9 97.5199 255.79 97.2999 255.74 97.1099C255.3 95.5599 254.82 94.0099 254.4 92.4399C253.98 90.8699 253.54 89.2699 253.15 87.6899Z" fill="#1E2023"/>
<path d="M199.12 94C198.82 95.49 198.47 97 198.12 98.42L197 102.7C196.959 102.919 196.967 103.144 197.022 103.36C197.077 103.576 197.179 103.778 197.32 103.95C197.449 104.112 197.613 104.242 197.8 104.33C197.894 104.369 197.991 104.399 198.09 104.42H198.47C199.97 104.57 201.47 104.76 202.94 104.96L206.32 105.41L203.56 107.6L199.31 111L198.23 111.83L197.97 112.03L197.83 112.14H197.78C197.728 112.19 197.685 112.247 197.65 112.31C197.581 112.423 197.545 112.553 197.545 112.685C197.545 112.817 197.581 112.947 197.65 113.06L197.72 113.23C199.2 116.99 200.55 120.79 201.9 124.59C203.25 128.39 204.52 132.22 205.74 136.07C206.36 137.99 206.96 139.92 207.52 141.86C208.08 143.8 208.68 145.73 209.21 147.69C210.3 151.58 211.3 155.51 212.13 159.49C210.27 155.87 208.59 152.19 206.99 148.49C206.17 146.64 205.39 144.78 204.63 142.9C203.87 141.02 203.1 139.17 202.38 137.28C200.914 133.52 199.5 129.74 198.14 125.94C196.8 122.13 195.47 118.33 194.25 114.47L194.33 114.66C194.004 113.956 193.872 113.178 193.947 112.406C194.023 111.635 194.304 110.897 194.76 110.27C194.981 109.956 195.247 109.676 195.55 109.44L195.77 109.28L195.91 109.18L196.18 108.99L197.3 108.22L201.82 105.22L202.43 107.86C200.96 107.54 199.5 107.22 198.04 106.86C197.8 106.808 197.562 106.742 197.33 106.66C197.071 106.563 196.823 106.439 196.59 106.29C196.132 105.992 195.746 105.596 195.46 105.13C195.189 104.684 195.02 104.185 194.963 103.667C194.906 103.148 194.963 102.624 195.13 102.13C195.79 100.66 196.4 99.37 197.06 97.99C197.72 96.61 198.4 95.3 199.12 94Z" fill="#1E2023"/>
<path d="M172.8 105.52C172.8 105.52 159 118.36 155 117.5" stroke="#1E2023" stroke-width="3" stroke-miterlimit="10"/>
<path d="M277.08 156.2L269.85 139.83" stroke="#1E2023" stroke-width="3" stroke-miterlimit="10"/>
<path d="M211.18 171.39C211.848 171.39 212.39 170.848 212.39 170.18C212.39 169.512 211.848 168.97 211.18 168.97C210.511 168.97 209.97 169.512 209.97 170.18C209.97 170.848 210.511 171.39 211.18 171.39Z" fill="#1E2023"/>
<path d="M210.94 191.9C211.609 191.9 212.15 191.358 212.15 190.69C212.15 190.022 211.609 189.48 210.94 189.48C210.272 189.48 209.73 190.022 209.73 190.69C209.73 191.358 210.272 191.9 210.94 191.9Z" fill="#1E2023"/>
<path d="M210.7 212.4C211.368 212.4 211.91 211.858 211.91 211.19C211.91 210.522 211.368 209.98 210.7 209.98C210.032 209.98 209.49 210.522 209.49 211.19C209.49 211.858 210.032 212.4 210.7 212.4Z" fill="#1E2023"/>
<path d="M210.46 232.9C211.128 232.9 211.67 232.358 211.67 231.69C211.67 231.022 211.128 230.48 210.46 230.48C209.792 230.48 209.25 231.022 209.25 231.69C209.25 232.358 209.792 232.9 210.46 232.9Z" fill="#1E2023"/>
<defs>
<linearGradient id="paint0_linear_20_553" x1="135.338" y1="392.671" x2="182.642" y2="498.13" gradientUnits="userSpaceOnUse">
<stop stop-color="#80A203"/>
<stop offset="1" stop-color="#156728"/>
</linearGradient>
<radialGradient id="paint1_radial_20_553" cx="0" cy="0" r="1" gradientUnits="userSpaceOnUse" gradientTransform="translate(70.7495 454.75) rotate(135) scale(77.8759 74.6946)">
<stop offset="0.14835" stop-color="#003422"/>
<stop offset="1" stop-color="#20685A" stop-opacity="0"/>
</radialGradient>
<radialGradient id="paint2_radial_20_553" cx="0" cy="0" r="1" gradientUnits="userSpaceOnUse" gradientTransform="translate(188.454 457.993) rotate(155.101) scale(95.558 51.1463)">
<stop offset="0.21875" stop-color="#005040"/>
<stop offset="1" stop-color="#20685A" stop-opacity="0"/>
</radialGradient>
<linearGradient id="paint3_linear_20_553" x1="93.0218" y1="209.796" x2="128.141" y2="288.09" gradientUnits="userSpaceOnUse">
<stop stop-color="#80A203"/>
<stop offset="1" stop-color="#156728"/>
</linearGradient>
<radialGradient id="paint4_radial_20_553" cx="0" cy="0" r="1" gradientUnits="userSpaceOnUse" gradientTransform="translate(45.0711 255.884) rotate(135) scale(57.8158 55.454)">
<stop offset="0.14835" stop-color="#003422"/>
<stop offset="1" stop-color="#20685A" stop-opacity="0"/>
</radialGradient>
<radialGradient id="paint5_radial_20_553" cx="0" cy="0" r="1" gradientUnits="userSpaceOnUse" gradientTransform="translate(132.457 258.293) rotate(155.101) scale(70.9432 37.9715)">
<stop offset="0.21875" stop-color="#005040"/>
<stop offset="1" stop-color="#20685A" stop-opacity="0"/>
</radialGradient>
<linearGradient id="paint6_linear_20_553" x1="334.957" y1="373.66" x2="370.076" y2="451.954" gradientUnits="userSpaceOnUse">
<stop stop-color="#80A203"/>
<stop offset="1" stop-color="#156728"/>
</linearGradient>
<radialGradient id="paint7_radial_20_553" cx="0" cy="0" r="1" gradientUnits="userSpaceOnUse" gradientTransform="translate(287.007 419.748) rotate(135) scale(57.8158 55.454)">
<stop offset="0.14835" stop-color="#003422"/>
<stop offset="1" stop-color="#20685A" stop-opacity="0"/>
</radialGradient>
<radialGradient id="paint8_radial_20_553" cx="0" cy="0" r="1" gradientUnits="userSpaceOnUse" gradientTransform="translate(374.392 422.156) rotate(155.101) scale(70.9432 37.9715)">
<stop offset="0.21875" stop-color="#005040"/>
<stop offset="1" stop-color="#20685A" stop-opacity="0"/>
</radialGradient>
<linearGradient id="paint9_linear_20_553" x1="277.397" y1="307.3" x2="299.713" y2="357.052" gradientUnits="userSpaceOnUse">
<stop stop-color="#80A203"/>
<stop offset="1" stop-color="#156728"/>
</linearGradient>
<radialGradient id="paint10_radial_20_553" cx="0" cy="0" r="1" gradientUnits="userSpaceOnUse" gradientTransform="translate(246.926 336.586) rotate(135) scale(36.7396 35.2387)">
<stop offset="0.14835" stop-color="#003422"/>
<stop offset="1" stop-color="#20685A" stop-opacity="0"/>
</radialGradient>
<radialGradient id="paint11_radial_20_553" cx="0" cy="0" r="1" gradientUnits="userSpaceOnUse" gradientTransform="translate(302.456 338.116) rotate(155.101) scale(45.0815 24.1293)">
<stop offset="0.21875" stop-color="#005040"/>
<stop offset="1" stop-color="#20685A" stop-opacity="0"/>
</radialGradient>
<linearGradient id="paint12_linear_20_553" x1="173.382" y1="359.921" x2="153.656" y2="357.903" gradientUnits="userSpaceOnUse">
<stop stop-color="#80A203"/>
<stop offset="1" stop-color="#156728"/>
</linearGradient>
<radialGradient id="paint13_radial_20_553" cx="0" cy="0" r="1" gradientUnits="userSpaceOnUse" gradientTransform="translate(169.699 345.001) rotate(-105) scale(13.3598 12.8141)">
<stop offset="0.14835" stop-color="#003422"/>
<stop offset="1" stop-color="#20685A" stop-opacity="0"/>
</radialGradient>
<radialGradient id="paint14_radial_20_553" cx="0" cy="0" r="1" gradientUnits="userSpaceOnUse" gradientTransform="translate(159.121 362.21) rotate(-84.8992) scale(16.3932 8.77428)">
<stop offset="0.21875" stop-color="#005040"/>
<stop offset="1" stop-color="#20685A" stop-opacity="0"/>
</radialGradient>
<linearGradient id="paint15_linear_20_553" x1="255.747" y1="352.22" x2="284.8" y2="541.529" gradientUnits="userSpaceOnUse">
<stop stop-color="#003422"/>
<stop offset="0.220402" stop-color="#005F32" stop-opacity="0.98"/>
<stop offset="0.730062" stop-color="#84AC00"/>
</linearGradient>
<linearGradient id="paint16_linear_20_553" x1="254.747" y1="376.22" x2="283.8" y2="565.529" gradientUnits="userSpaceOnUse">
<stop stop-color="#003422"/>
<stop offset="0.220402" stop-color="#005F32" stop-opacity="0.98"/>
<stop offset="0.730062" stop-color="#84AC00"/>
</linearGradient>
<linearGradient id="paint17_linear_20_553" x1="281.405" y1="303.665" x2="353.346" y2="490.062" gradientUnits="userSpaceOnUse">
<stop stop-color="#003422"/>
<stop offset="0.220402" stop-color="#005F32" stop-opacity="0.98"/>
<stop offset="0.730062" stop-color="#84AC00"/>
</linearGradient>
<linearGradient id="paint18_linear_20_553" x1="291.405" y1="298.665" x2="363.346" y2="485.062" gradientUnits="userSpaceOnUse">
<stop stop-color="#003422"/>
<stop offset="0.220402" stop-color="#005F32" stop-opacity="0.98"/>
<stop offset="0.730062" stop-color="#84AC00"/>
</linearGradient>
<clipPath id="clip0_20_553">
<rect x="137.741" y="387.741" width="94.7523" height="94.7523" rx="22" transform="rotate(45 137.741 387.741)" fill="white"/>
</clipPath>
<clipPath id="clip1_20_553">
<rect x="94.8057" y="206.136" width="70.345" height="70.345" rx="16" transform="rotate(45 94.8057 206.136)" fill="white"/>
</clipPath>
<clipPath id="clip2_20_553">
<rect x="336.741" y="370" width="70.345" height="70.345" rx="16" transform="rotate(45 336.741 370)" fill="white"/>
</clipPath>
<clipPath id="clip3_20_553">
<rect x="278.53" y="304.974" width="44.7014" height="44.7014" rx="7" transform="rotate(45 278.53 304.974)" fill="white"/>
</clipPath>
<clipPath id="clip4_20_553">
<rect x="173.908" y="360.701" width="16.255" height="16.255" rx="8.1275" transform="rotate(165 173.908 360.701)" fill="white"/>
</clipPath>
</defs>
</svg>
