<svg id="Capa_1" data-name="Capa 1" xmlns="http://www.w3.org/2000/svg" viewBox="0 0 202 192"><defs><style>.cls-1{fill:#fff;}</style></defs><path class="cls-1" d="M91.1,21.38c.83.12,1.67.22,2.49.36a18.5,18.5,0,0,1,10.24,5.47l8,8.08q8.34,8.41,16.67,16.85c1.32,1.33,2.62,2.67,3.94,4a13.87,13.87,0,0,1,.16,19.42c-6.33,6.44-12.74,12.79-19.13,19.18L99.19,109a11.47,11.47,0,0,1-17.07-.29c-.56-.6-1.17-1.16-1.71-1.77a12.9,12.9,0,0,1,.48-17.8q9.3-9.33,18.64-18.64a9.24,9.24,0,0,0,0-13.42l-3.8-3.79c-4-4-9.57-4.05-13.54-.09Q65,70.25,48,87.39a14.94,14.94,0,0,0-4.49,11.33A14.71,14.71,0,0,0,47.83,109q15.78,15.83,31.61,31.61a13.66,13.66,0,0,0,19.36-.06q12.74-12.74,25.45-25.48l13.12-13.16L147,92.27a15.15,15.15,0,0,1,21.64,0l7.55,7.55.39.41c-1.06,1.1-2.05,2.2-3.11,3.24-3.35,3.3-6.73,6.57-10.1,9.85L142.2,134l-12.09,11.79q-10.62,10.35-21.25,20.7c-1.53,1.49-3,3-4.65,4.38a24.31,24.31,0,0,1-14.16,5.61,3.46,3.46,0,0,0-.52.11H87.12a3.14,3.14,0,0,0-.51-.12,24.72,24.72,0,0,1-9.52-2.57,30,30,0,0,1-8-6.26c-6.15-6.3-12.36-12.54-18.54-18.81L34.31,132.39c-5.2-5.26-10.37-10.56-15.61-15.77-4.94-4.91-7.28-10.74-6.6-17.7a20,20,0,0,1,5.65-12.23c3.16-3.26,6.39-6.46,9.59-9.69L44.39,59.85c3.19-3.2,6.37-6.43,9.55-9.64Q65.61,38.47,77.29,26.74a17.78,17.78,0,0,1,9.71-5c.8-.14,1.61-.25,2.41-.37Z"/><rect class="cls-1" x="147.18" y="44.42" width="30.93" height="30.67" rx="12" transform="translate(89.89 -97.5) rotate(45)"/></svg>