<?xml version="1.0" encoding="UTF-8"?>
<svg id="Camada_2" data-name="Camada 2" xmlns="http://www.w3.org/2000/svg" viewBox="0 0 350.89 492.51">
  <defs>
    <style>
      .cls-1, .cls-2 {
        fill: #fff;
      }
    </style>
  </defs>
  <g id="Capa_1" data-name="Capa 1">
    <g>
      <path class="cls-1" d="m163.29,0c1.71.24,3.43.44,5.14.74,8.28,1.45,15.27,5.31,21.14,11.28,5.47,5.57,10.94,11.12,16.42,16.67,11.46,11.6,22.94,23.19,34.4,34.78,2.71,2.74,5.41,5.51,8.13,8.24,10.95,11.02,11.22,28.99.33,40.07-13.06,13.29-26.3,26.4-39.47,39.58-9.8,9.81-19.6,19.6-29.4,29.4-10.32,10.32-25.25,10.07-35.22-.58-1.16-1.24-2.41-2.4-3.55-3.67-9.51-10.64-9.1-26.6,1-36.72,12.8-12.84,25.64-25.65,38.47-38.48,7.95-7.95,7.94-19.72-.02-27.69-2.61-2.61-5.22-5.22-7.84-7.84-8.19-8.18-19.75-8.35-27.95-.18-23.58,23.49-47.11,47.03-70.61,70.6-6.4,6.42-9.52,14.31-9.28,23.37.22,8.2,3.19,15.41,9.01,21.24,21.7,21.79,43.45,43.53,65.23,65.24,11.11,11.06,28.87,10.96,39.96-.13,17.52-17.52,35.02-35.06,52.53-52.59,9.03-9.05,18.06-18.1,27.08-27.15,6.62-6.64,13.24-13.29,19.87-19.92,12.51-12.51,32.15-12.49,44.67.03,5.19,5.19,10.39,10.39,15.58,15.58.32.32.62.65.79.83-2.17,2.28-4.22,4.56-6.41,6.7-6.93,6.8-13.9,13.55-20.86,20.33-14.56,14.18-29.13,28.37-43.69,42.55-8.32,8.11-16.63,16.23-24.95,24.33-14.62,14.25-29.23,28.5-43.87,42.73-3.15,3.06-6.22,6.24-9.6,9.04-8.45,7.01-18.25,10.8-29.21,11.56-.36.02-.71.16-1.07.24h-4.98c-.35-.08-.69-.22-1.05-.25-6.92-.43-13.45-2.26-19.66-5.32-6.42-3.17-11.65-7.82-16.61-12.9-12.69-13.01-25.51-25.89-38.27-38.82-11.13-11.28-22.27-22.56-33.41-33.83-10.73-10.86-21.39-21.79-32.22-32.55C3.68,186.43-1.16,174.39.24,160.04c.95-9.73,4.88-18.21,11.68-25.24,6.51-6.74,13.18-13.35,19.78-20,11.73-11.8,23.47-23.59,35.2-35.39,6.58-6.62,13.13-13.27,19.71-19.89,16.05-16.16,32.08-32.35,48.19-48.46,5.54-5.54,12.29-8.94,20.03-10.3C156.48.46,158.14.25,159.81,0c1.16,0,2.32,0,3.49,0Z"/>
      <rect class="cls-1" x="279.02" y="47.55" width="63.83" height="63.29" rx="12" ry="12" transform="translate(474.8 355.06) rotate(-135)"/>
    </g>
    <g>
      <path class="cls-1" d="m76.27,371.12v62.45c0,3.96-4.54,6.19-7.68,3.78l-5.2-4-46.37-35.75v38.37c0,4.02-3.26,7.28-7.28,7.28h-5.6v-62.24c0-3.96,4.54-6.19,7.68-3.78l5.2,4,46.37,35.75v-38.62c0-4.04,3.29-7.31,7.34-7.28l5.54.04Z"/>
      <path class="cls-1" d="m158.6,371.12v5.1c0,4.3-3.48,7.78-7.78,7.78h-21.79v55.42c0,2.11-1.71,3.83-3.83,3.83h-5.23c-2.11,0-3.83-1.71-3.83-3.83v-55.42h-21.79c-4.3,0-7.78-3.48-7.78-7.78v-5.1h72.02Z"/>
      <path class="cls-1" d="m169.01,434.03v-63.01h3.77c5.03,0,9.11,4.08,9.11,9.11v63.01h-3.77c-5.03,0-9.11-4.08-9.11-9.11Z"/>
      <path class="cls-1" d="m264.63,430.16h0c0,7.11-5.77,12.88-12.88,12.88h-42.87l-.1.1h-16.28l.1-.1,9.89-12.88,17.72-22.98,8.14-10.51,9.89-12.78h-32.97c-7.11,0-12.88-5.77-12.88-12.88h0s55.74,0,55.74,0h16.18l-9.99,12.88-17.93,23.29-8.14,10.51-9.69,12.47h46.06Z"/>
      <path class="cls-1" d="m346.75,377.46v29.02c0,19.75-15.62,36.29-35.37,36.66-20.2.38-36.76-15.94-36.76-36.06v-29.62c0-3.56,2.88-6.44,6.44-6.44h0c3.56,0,6.44,2.88,6.44,6.44v29.13c0,12.61,9.86,23.29,22.46,23.67,13.1.4,23.9-10.16,23.9-23.17v-29.62c0-3.56,2.88-6.44,6.44-6.44h0c3.56,0,6.44,2.88,6.44,6.44Z"/>
    </g>
  </g>
</svg>