<svg width="535" height="236" viewBox="0 0 535 236" fill="none" xmlns="http://www.w3.org/2000/svg">
<path d="M96 177.974C145.377 170.14 187.701 173.128 220 214.539" stroke="url(#paint0_linear_331_79)" stroke-width="42" stroke-linecap="round"/>
<path d="M96 177.974C145.377 170.14 187.701 173.128 220 214.539" stroke="white" stroke-linecap="round" stroke-linejoin="round"/>
<path d="M79.1146 104.25C85.8594 104.25 91.2978 101.971 95.4297 97.4141C99.5009 92.7352 101.536 86.6285 101.536 79.0937C101.536 71.3767 99.5009 65.2092 95.4297 60.5911C91.237 55.9731 85.7986 53.6641 79.1146 53.6641C72.4306 53.6641 66.9618 55.9731 62.7083 60.5911C58.6372 65.2092 56.6016 71.3767 56.6016 79.0937C56.6016 86.6285 58.6372 92.7352 62.7083 97.4141C66.901 101.971 72.3698 104.25 79.1146 104.25ZM150.482 79.0937C150.482 88.9375 148.72 98.0217 145.195 106.346C141.549 114.975 136.506 122.51 130.065 128.951C123.503 135.331 115.816 140.313 107.005 143.898C98.1945 147.362 88.8976 149.094 79.1146 149.094C69.2101 149.094 59.8828 147.362 51.1328 143.898C42.6259 140.435 34.9089 135.391 27.9818 128.768C21.2977 122.023 16.2543 114.61 12.8516 106.529C9.50955 98.204 7.83854 89.059 7.83854 79.0937C7.83854 69.1285 9.50955 59.9835 12.8516 51.6588C16.3759 43.395 21.4193 35.921 27.9818 29.237C34.6658 22.7352 42.3221 17.6918 50.9505 14.1068C59.6398 10.7647 69.0278 9.09374 79.1146 9.09374C89.0799 9.09374 98.4375 10.7647 107.188 14.1068C115.877 17.6311 123.594 22.6745 130.339 29.237C136.78 35.7995 141.793 43.2734 145.378 51.6588C148.78 60.105 150.482 69.25 150.482 79.0937ZM237.344 104.25C244.089 104.25 249.527 101.971 253.659 97.4141C257.73 92.7352 259.766 86.6285 259.766 79.0937C259.766 71.3767 257.73 65.2092 253.659 60.5911C249.466 55.9731 244.028 53.6641 237.344 53.6641C230.66 53.6641 225.191 55.9731 220.938 60.5911C216.866 65.2092 214.831 71.3767 214.831 79.0937C214.831 86.6285 216.866 92.7352 220.938 97.4141C225.13 101.971 230.599 104.25 237.344 104.25ZM308.711 79.0937C308.711 88.9375 306.949 98.0217 303.425 106.346C299.779 114.975 294.735 122.51 288.294 128.951C281.732 135.331 274.045 140.313 265.234 143.898C256.424 147.362 247.127 149.094 237.344 149.094C227.439 149.094 218.112 147.362 209.362 143.898C200.855 140.435 193.138 135.391 186.211 128.768C179.527 122.023 174.484 114.61 171.081 106.529C167.739 98.204 166.068 89.059 166.068 79.0937C166.068 69.1285 167.739 59.9835 171.081 51.6588C174.605 43.395 179.648 35.921 186.211 29.237C192.895 22.7352 200.551 17.6918 209.18 14.1068C217.869 10.7647 227.257 9.09374 237.344 9.09374C247.309 9.09374 256.667 10.7647 265.417 14.1068C274.106 17.6311 281.823 22.6745 288.568 29.237C295.009 35.7995 300.022 43.2734 303.607 51.6588C307.01 60.105 308.711 69.25 308.711 79.0937ZM381.81 112.271C385.273 112.271 388.129 110.964 390.378 108.352C392.504 105.921 393.568 102.64 393.568 98.5078C393.568 94.4366 392.504 91.0642 390.378 88.3906C388.008 85.8993 385.152 84.6536 381.81 84.6536C378.346 84.6536 375.551 85.8993 373.425 88.3906C371.176 91.0035 370.052 94.3759 370.052 98.5078C370.052 102.761 371.176 106.043 373.425 108.352C375.43 110.964 378.225 112.271 381.81 112.271ZM326.393 186.19V51.2943H370.052V63.7812C374.002 58.5555 378.407 54.697 383.268 52.2057C388.069 49.5929 393.416 48.2864 399.31 48.2864C410.734 48.2864 419.879 52.9045 426.745 62.1406C433.733 71.4983 437.227 83.8637 437.227 99.237C437.227 114.003 433.672 125.943 426.563 135.057C419.271 144.293 410.187 148.911 399.31 148.911C393.173 148.911 387.765 147.544 383.086 144.81C378.346 142.197 374.063 138.156 370.234 132.687C370.477 134.328 370.721 136.819 370.964 140.161C371.207 143.807 371.328 146.785 371.328 149.094V186.19H326.393ZM443.151 138.794L455.273 109.719C460.135 113 464.753 115.613 469.128 117.557C473.563 119.259 477.148 120.109 479.883 120.109C482.313 120.109 484.197 119.623 485.534 118.651C486.749 117.8 487.357 116.494 487.357 114.732C487.357 112.362 484.622 110.63 479.154 109.536C477.513 109.172 476.085 108.838 474.87 108.534C466.12 106.529 459.709 103.308 455.638 98.8724C451.567 94.6189 449.531 88.9679 449.531 81.9193C449.531 72.0147 453.694 63.9028 462.018 57.5833C470.343 51.3854 481.037 48.2864 494.102 48.2864C500.907 48.2864 507.257 48.8941 513.151 50.1094C519.227 51.5069 524.879 53.3906 530.104 55.7604L518.893 84.1068C514.336 81.0686 510.508 78.9115 507.409 77.6354C503.945 76.2378 500.998 75.5391 498.568 75.5391C496.441 75.5391 494.77 75.9644 493.555 76.8151C492.279 77.7873 491.641 78.9722 491.641 80.3698C491.641 82.6788 495.195 84.6233 502.305 86.2031C502.912 86.3246 503.672 86.5069 504.583 86.75C505.495 86.9323 506.102 87.0538 506.406 87.1146C515.642 89.4236 522.357 92.5833 526.55 96.5937C530.925 100.969 533.112 106.529 533.112 113.273C533.112 123.907 528.889 132.475 520.443 138.977C511.875 145.721 500.603 149.094 486.628 149.094C479.093 149.094 471.619 148.213 464.206 146.451C457.522 144.931 450.504 142.379 443.151 138.794Z" fill="url(#paint1_linear_331_79)"/>
<ellipse cx="78.5" cy="97.5391" rx="36.5" ry="48" fill="url(#paint2_linear_331_79)"/>
<ellipse cx="237.5" cy="97.5391" rx="36.5" ry="48" fill="url(#paint3_linear_331_79)"/>
<circle cx="78" cy="127.539" r="18" fill="black"/>
<circle cx="237" cy="127.539" r="18" fill="black"/>
<circle cx="87.5" cy="113.039" r="5.5" fill="white" fill-opacity="0.93"/>
<circle cx="246.5" cy="113.039" r="5.5" fill="white" fill-opacity="0.93"/>
<defs>
<linearGradient id="paint0_linear_331_79" x1="158" y1="174.539" x2="112.635" y2="228.2" gradientUnits="userSpaceOnUse">
<stop stop-color="#003E24"/>
<stop offset="1" stop-color="#749D08"/>
</linearGradient>
<linearGradient id="paint1_linear_331_79" x1="267.5" y1="0.539072" x2="52" y2="234.539" gradientUnits="userSpaceOnUse">
<stop stop-color="#003E24"/>
<stop offset="1" stop-color="#749D08"/>
</linearGradient>
<linearGradient id="paint2_linear_331_79" x1="78.5" y1="49.5391" x2="78.5" y2="145.539" gradientUnits="userSpaceOnUse">
<stop stop-color="#749D08"/>
<stop offset="1" stop-color="#749D08"/>
</linearGradient>
<linearGradient id="paint3_linear_331_79" x1="237.5" y1="49.5391" x2="237.5" y2="145.539" gradientUnits="userSpaceOnUse">
<stop stop-color="#749D08"/>
<stop offset="1" stop-color="#749D08"/>
</linearGradient>
</defs>
</svg>
