<svg width="3791" height="2403" viewBox="0 0 3791 2403" fill="none" xmlns="http://www.w3.org/2000/svg">
<g opacity="0.45" clip-path="url(#clip0_12_13)">
<mask id="mask0_12_13" style="mask-type:luminance" maskUnits="userSpaceOnUse" x="0" y="0" width="3791" height="2404">
<path d="M0 2403L3791 2403L3791 0L-0.000210077 0.00033142L0 2403Z" fill="white"/>
</mask>
<g mask="url(#mask0_12_13)">
<path d="M3791 2403L0 2403L-0.000210077 0.00033142L3791 0L3791 2403Z" fill="url(#paint0_linear_12_13)"/>
<path d="M3790.5 -1975C2140 -1975 802 -1090.76 802 0.000278385C802 1090.76 2140 1975 3790.5 1975C5441 1975 6779 1090.76 6779 -0.000244141C6779 -1090.76 5441 -1975 3790.5 -1975Z" fill="url(#paint1_radial_12_13)"/>
<path d="M1682.69 -223.203C780.094 -744.319 -539.881 -147.848 -1265.55 1109.05C-1991.22 2365.95 -1847.8 3807.32 -945.195 4328.44C-42.5948 4849.55 1277.38 4253.08 2003.05 2996.18C2728.72 1739.28 2585.29 297.914 1682.69 -223.203Z" fill="url(#paint2_radial_12_13)"/>
</g>
</g>
<defs>
<linearGradient id="paint0_linear_12_13" x1="3719.5" y1="2271.5" x2="82.9999" y2="87.5004" gradientUnits="userSpaceOnUse">
<stop stop-color="#80A203"/>
<stop offset="1" stop-color="#156728"/>
</linearGradient>
<radialGradient id="paint1_radial_12_13" cx="0" cy="0" r="1" gradientUnits="userSpaceOnUse" gradientTransform="translate(3790.5 1.71223e-05) rotate(-90) scale(1975 2988.5)">
<stop offset="0.14835" stop-color="#003422"/>
<stop offset="1" stop-color="#20685A" stop-opacity="0"/>
</radialGradient>
<radialGradient id="paint2_radial_12_13" cx="0" cy="0" r="1" gradientUnits="userSpaceOnUse" gradientTransform="translate(368.75 2052.62) rotate(-60) scale(2627.89 1887.13)">
<stop offset="0.21875" stop-color="#005040"/>
<stop offset="1" stop-color="#20685A" stop-opacity="0"/>
</radialGradient>
<clipPath id="clip0_12_13">
<rect width="3791" height="2403" fill="white" transform="translate(3791 2403) rotate(180)"/>
</clipPath>
</defs>
</svg>
