<svg id="Capa_1" data-name="Capa 1" xmlns="http://www.w3.org/2000/svg" viewBox="0 0 2421 923"><defs><style>.cls-1{opacity:0.36;}.cls-2{fill:#003e24;}.cls-3{fill:#749d08;}</style></defs><g class="cls-1"><path class="cls-2" d="M718.52,756.29,794.13,904H628.73L553.11,756.29,474,601.52l-3.55-7.09c-26-42.53-72.07-70.89-125.23-70.89H197.49V904H49.81V77H572a221.41,221.41,0,0,1,157.13,65c40.17,41.35,65,96.88,65,158.31a224,224,0,0,1-130,203.22,197.41,197.41,0,0,1-63.8,17.72ZM572,375.86a68.92,68.92,0,0,0,30.72-7.09,75,75,0,0,0,44.89-68.53c0-27.17-14.18-46.07-22.45-54.34-9.45-9.46-27.17-21.27-53.16-21.27H197.49V377Z"/><path class="cls-3" d="M696.08,699.34,771.7,847H606.29L530.68,699.34,451.52,544.57,448,537.48c-26-42.53-72.07-70.89-125.24-70.89H175.06V847H27.38V20h522.2A221.42,221.42,0,0,1,706.72,85c40.17,41.35,65,96.88,65,158.32a224,224,0,0,1-130,203.21,197.23,197.23,0,0,1-63.8,17.72ZM549.58,318.91a68.86,68.86,0,0,0,30.72-7.09,75,75,0,0,0,44.9-68.52A77.94,77.94,0,0,0,602.75,189c-9.45-9.45-27.17-21.27-53.17-21.27H175.06V320.09Z"/><path class="cls-2" d="M1319.52,567.16V356.94h37.54V567.16Z"/><path class="cls-2" d="M832.42,413.7v19.52H967.56v37.54H832.42V510.4a19.36,19.36,0,0,0,19.22,19.22H1005.1v37.54H851.64a56.65,56.65,0,0,1-56.45-56.76V413.7a56.65,56.65,0,0,1,56.45-56.76H1005.1v37.54H851.64A19.36,19.36,0,0,0,832.42,413.7Z"/><path class="cls-2" d="M1086.48,462.05a67.67,67.67,0,0,0,67.57,67.57h67.57V489.38h-67.57V451.84h105.11V567.16H1154.05a105.11,105.11,0,0,1,0-210.22h105.11v37.54H1154.05A67.67,67.67,0,0,0,1086.48,462.05Z"/><path class="cls-2" d="M1578.68,415.2V414a19.36,19.36,0,0,0-19.22-19.22h-85.28A19.36,19.36,0,0,0,1455,414v1.2a19.36,19.36,0,0,0,19.22,19.22h75.67a65.92,65.92,0,0,1,49,21.63c.9.9,1.5,1.8,2.41,2.7a66.37,66.37,0,0,1-51.36,108.41h-65.76a66.39,66.39,0,0,1-66.37-66.37h37.54a28.83,28.83,0,0,0,28.83,28.83h65.76a28.83,28.83,0,1,0,0-57.66h-75.67a56.13,56.13,0,0,1-39.34-15.91,52.69,52.69,0,0,1-7.21-9,55.78,55.78,0,0,1-9.91-32.14v-1.2a56.65,56.65,0,0,1,56.46-56.76h85.28a56.91,56.91,0,0,1,56.76,56.76v1.2Z"/><path class="cls-2" d="M1876.59,357.24v37.54H1790.4V567.46h-37.54V394.78h-86.18V357.24Z"/><path class="cls-2" d="M2106.92,529.92l19.22,37.54h-42l-19.22-37.54-20.12-39.34-.9-1.8a37.22,37.22,0,0,0-31.83-18h-37.54v96.7H1937V357.24h132.74a56.29,56.29,0,0,1,39.94,16.52A57.53,57.53,0,0,1,2126.14,414a56.9,56.9,0,0,1-33,51.65,50,50,0,0,1-16.22,4.51Zm-37.23-96.7a17.5,17.5,0,0,0,7.8-1.8A19.07,19.07,0,0,0,2088.91,414a19.82,19.82,0,0,0-5.71-13.81,18.93,18.93,0,0,0-13.51-5.41h-95.2v38.74Z"/><path class="cls-2" d="M2389.51,462.05a105.11,105.11,0,1,1-105.1-105.11A105.22,105.22,0,0,1,2389.51,462.05Zm-37.53,0a67.57,67.57,0,1,0-67.57,67.57A67.68,67.68,0,0,0,2352,462.05Z"/></g></svg>