<svg id="Capa_1" data-name="Capa 1" xmlns="http://www.w3.org/2000/svg" viewBox="0 0 3103 459"><defs><style>.cls-1{opacity:1;}.cls-2{fill:#265842;}</style></defs><g class="cls-1"><path class="cls-2" d="M181.27,61.38c.58.08,1.16.15,1.73.25a12.9,12.9,0,0,1,7.14,3.81q2.76,2.82,5.54,5.62L207.29,82.8c.91.93,1.82,1.86,2.74,2.78a9.66,9.66,0,0,1,.11,13.52c-4.41,4.49-8.88,8.91-13.32,13.36q-4.95,5-9.92,9.92a8,8,0,0,1-11.88-.2c-.39-.42-.82-.81-1.2-1.23a9,9,0,0,1,.34-12.39q6.48-6.51,13-13a6.42,6.42,0,0,0,0-9.34l-2.64-2.64a6.41,6.41,0,0,0-9.44-.06q-11.93,11.88-23.82,23.82a10.41,10.41,0,0,0-3.13,7.88,10.24,10.24,0,0,0,3,7.17q11,11,22,22a9.5,9.5,0,0,0,13.48,0l17.72-17.74,9.14-9.16c2.24-2.24,4.47-4.49,6.71-6.72a10.54,10.54,0,0,1,15.07,0l5.26,5.25.26.28c-.73.77-1.42,1.54-2.16,2.26q-3.51,3.45-7,6.86l-14.74,14.36L208.43,148q-7.4,7.22-14.8,14.42c-1.06,1-2.1,2.1-3.24,3a16.94,16.94,0,0,1-9.85,3.9,2.33,2.33,0,0,0-.36.08H178.5a2.33,2.33,0,0,0-.36-.08,17.24,17.24,0,0,1-6.63-1.8,20.75,20.75,0,0,1-5.6-4.35c-4.28-4.39-8.61-8.74-12.92-13.1l-11.27-11.41c-3.62-3.67-7.22-7.36-10.87-11a14.63,14.63,0,0,1-4.6-12.32,14,14,0,0,1,3.94-8.52c2.2-2.27,4.45-4.5,6.68-6.74,3.95-4,7.92-8,11.87-12q3.33-3.35,6.65-6.71c5.42-5.45,10.83-10.92,16.26-16.35a12.32,12.32,0,0,1,6.76-3.47c.56-.1,1.12-.17,1.68-.26Z"/><rect class="cls-2" x="220.32" y="77.43" width="21.54" height="21.36" rx="10.68" transform="translate(129.98 -137.6) rotate(45)"/><path class="cls-2" d="M343.52,61.38c.58.08,1.16.15,1.74.25a12.91,12.91,0,0,1,7.13,3.81l5.54,5.62L369.54,82.8c.92.93,1.82,1.86,2.74,2.78a9.64,9.64,0,0,1,.11,13.52c-4.4,4.49-8.87,8.91-13.31,13.36l-9.93,9.92a8,8,0,0,1-11.88-.2c-.39-.42-.81-.81-1.19-1.23a9,9,0,0,1,.33-12.39q6.48-6.51,13-13a6.42,6.42,0,0,0,0-9.34l-2.64-2.64a6.4,6.4,0,0,0-9.43-.06q-11.94,11.88-23.83,23.82a10.41,10.41,0,0,0-3.13,7.88,10.28,10.28,0,0,0,3,7.17q11,11,22,22a9.5,9.5,0,0,0,13.48,0q8.88-8.87,17.73-17.74l9.14-9.16c2.23-2.24,4.46-4.49,6.7-6.72a10.54,10.54,0,0,1,15.07,0l5.26,5.25.27.28c-.74.77-1.43,1.54-2.17,2.26-2.33,2.3-4.69,4.58-7,6.86l-14.74,14.36L370.69,148q-7.4,7.22-14.8,14.42c-1.07,1-2.1,2.1-3.24,3a17,17,0,0,1-9.86,3.9,2.33,2.33,0,0,0-.36.08h-1.68a2.21,2.21,0,0,0-.35-.08,17.19,17.19,0,0,1-6.63-1.8,20.79,20.79,0,0,1-5.61-4.35c-4.28-4.39-8.6-8.74-12.91-13.1L304,138.69c-3.62-3.67-7.22-7.36-10.88-11a14.62,14.62,0,0,1-4.59-12.32,13.91,13.91,0,0,1,3.94-8.52c2.19-2.27,4.44-4.5,6.67-6.74l11.88-12q3.33-3.35,6.65-6.71c5.41-5.45,10.82-10.92,16.26-16.35a12.29,12.29,0,0,1,6.75-3.47c.56-.1,1.13-.17,1.69-.26Z"/><rect class="cls-2" x="382.57" y="77.43" width="21.54" height="21.36" rx="10.68" transform="translate(177.51 -252.33) rotate(45)"/><path class="cls-2" d="M505.78,61.38c.58.08,1.16.15,1.73.25a12.94,12.94,0,0,1,7.14,3.81q2.76,2.82,5.54,5.62L531.8,82.8c.91.93,1.82,1.86,2.74,2.78a9.66,9.66,0,0,1,.11,13.52c-4.41,4.49-8.88,8.91-13.32,13.36l-9.92,9.92a8,8,0,0,1-11.88-.2c-.4-.42-.82-.81-1.2-1.23a9,9,0,0,1,.34-12.39q6.48-6.51,13-13a6.43,6.43,0,0,0,0-9.34L509,83.59a6.4,6.4,0,0,0-9.43-.06q-11.93,11.88-23.82,23.82a10.41,10.41,0,0,0-3.13,7.88,10.24,10.24,0,0,0,3,7.17q11,11,22,22a9.5,9.5,0,0,0,13.48,0l17.72-17.74,9.14-9.16,6.7-6.72a10.56,10.56,0,0,1,15.08,0L565,116l.27.28c-.73.77-1.42,1.54-2.16,2.26q-3.51,3.45-7,6.86l-14.74,14.36L532.94,148q-7.4,7.22-14.8,14.42c-1.06,1-2.1,2.1-3.24,3a16.94,16.94,0,0,1-9.85,3.9,2.33,2.33,0,0,0-.36.08H503a2.33,2.33,0,0,0-.36-.08,17.24,17.24,0,0,1-6.63-1.8,20.75,20.75,0,0,1-5.6-4.35c-4.29-4.39-8.61-8.74-12.92-13.1l-11.27-11.41c-3.62-3.67-7.22-7.36-10.87-11a14.63,14.63,0,0,1-4.6-12.32,14,14,0,0,1,3.94-8.52c2.2-2.27,4.45-4.5,6.68-6.74,3.95-4,7.92-8,11.87-12q3.33-3.35,6.65-6.71c5.42-5.45,10.83-10.92,16.26-16.35a12.32,12.32,0,0,1,6.76-3.47c.56-.1,1.12-.17,1.68-.26Z"/><rect class="cls-2" x="544.83" y="77.43" width="21.54" height="21.36" rx="10.68" transform="translate(225.03 -367.06) rotate(45)"/><path class="cls-2" d="M668,61.38c.58.08,1.16.15,1.74.25a12.91,12.91,0,0,1,7.13,3.81q2.76,2.82,5.54,5.62L694.05,82.8c.92.93,1.82,1.86,2.74,2.78a9.64,9.64,0,0,1,.11,13.52c-4.4,4.49-8.87,8.91-13.31,13.36l-9.93,9.92a8,8,0,0,1-11.88-.2c-.39-.42-.81-.81-1.2-1.23a9,9,0,0,1,.34-12.39q6.48-6.51,13-13a6.42,6.42,0,0,0,0-9.34l-2.64-2.64a6.4,6.4,0,0,0-9.43-.06Q649.88,95.41,638,107.35a10.41,10.41,0,0,0-3.13,7.88,10.28,10.28,0,0,0,3,7.17q11,11,22,22a9.5,9.5,0,0,0,13.48,0l17.73-17.74,9.13-9.16c2.24-2.24,4.47-4.49,6.71-6.72a10.54,10.54,0,0,1,15.07,0l5.26,5.25.27.28c-.74.77-1.43,1.54-2.17,2.26-2.33,2.3-4.69,4.58-7,6.86l-14.74,14.36L695.2,148,680.4,162.4c-1.07,1-2.1,2.1-3.24,3a17,17,0,0,1-9.86,3.9,2.33,2.33,0,0,0-.36.08h-1.68a2.21,2.21,0,0,0-.35-.08,17.19,17.19,0,0,1-6.63-1.8,20.64,20.64,0,0,1-5.61-4.35c-4.28-4.39-8.61-8.74-12.91-13.1l-11.27-11.41c-3.63-3.67-7.22-7.36-10.88-11A14.62,14.62,0,0,1,613,115.38a13.91,13.91,0,0,1,3.94-8.52c2.19-2.27,4.44-4.5,6.67-6.74l11.88-12q3.33-3.35,6.65-6.71C647.57,76,653,70.54,658.42,65.11a12.29,12.29,0,0,1,6.75-3.47c.56-.1,1.13-.17,1.69-.26Z"/><rect class="cls-2" x="707.08" y="77.43" width="21.54" height="21.36" rx="10.68" transform="translate(272.55 -481.79) rotate(45)"/><path class="cls-2" d="M830.29,61.38c.58.08,1.16.15,1.73.25a12.91,12.91,0,0,1,7.13,3.81l5.55,5.62c3.86,3.92,7.74,7.83,11.6,11.74.92.93,1.83,1.86,2.75,2.78a9.66,9.66,0,0,1,.11,13.52c-4.41,4.49-8.88,8.91-13.32,13.36l-9.92,9.92a8,8,0,0,1-11.88-.2c-.4-.42-.82-.81-1.2-1.23a9,9,0,0,1,.34-12.39q6.48-6.51,13-13a6.43,6.43,0,0,0,0-9.34l-2.65-2.64a6.4,6.4,0,0,0-9.43-.06q-11.93,11.88-23.82,23.82a10.37,10.37,0,0,0-3.13,7.88,10.19,10.19,0,0,0,3,7.17q11,11,22,22a9.5,9.5,0,0,0,13.48,0l17.72-17.74,9.14-9.16,6.7-6.72a10.56,10.56,0,0,1,15.08,0l5.25,5.25.27.28c-.73.77-1.42,1.54-2.16,2.26q-3.51,3.45-7,6.86l-14.74,14.36L857.45,148q-7.4,7.22-14.8,14.42c-1.06,1-2.1,2.1-3.24,3a16.94,16.94,0,0,1-9.85,3.9,2.09,2.09,0,0,0-.36.08h-1.68a2.33,2.33,0,0,0-.36-.08,17.24,17.24,0,0,1-6.63-1.8,20.59,20.59,0,0,1-5.6-4.35c-4.29-4.39-8.61-8.74-12.92-13.1l-11.27-11.41c-3.62-3.67-7.22-7.36-10.87-11a14.63,14.63,0,0,1-4.6-12.32,14,14,0,0,1,3.94-8.52c2.2-2.27,4.45-4.5,6.68-6.74,4-4,7.91-8,11.87-12q3.33-3.35,6.65-6.71c5.42-5.45,10.83-10.92,16.26-16.35a12.32,12.32,0,0,1,6.76-3.47c.56-.1,1.12-.17,1.68-.26Z"/><rect class="cls-2" x="869.34" y="77.43" width="21.54" height="21.36" rx="10.68" transform="translate(320.08 -596.52) rotate(45)"/><path class="cls-2" d="M992.54,61.38c.58.08,1.16.15,1.74.25a12.91,12.91,0,0,1,7.13,3.81q2.76,2.82,5.54,5.62l11.61,11.74c.91.93,1.82,1.86,2.74,2.78a9.64,9.64,0,0,1,.11,13.52c-4.4,4.49-8.87,8.91-13.32,13.36l-9.92,9.92a8,8,0,0,1-11.88-.2c-.39-.42-.81-.81-1.2-1.23a9,9,0,0,1,.34-12.39q6.48-6.51,13-13a6.42,6.42,0,0,0,0-9.34l-2.64-2.64a6.4,6.4,0,0,0-9.43-.06q-11.94,11.88-23.83,23.82a10.41,10.41,0,0,0-3.13,7.88,10.28,10.28,0,0,0,3,7.17q11,11,22,22a9.5,9.5,0,0,0,13.48,0l17.73-17.74,9.13-9.16c2.24-2.24,4.47-4.49,6.71-6.72a10.54,10.54,0,0,1,15.07,0l5.26,5.25.26.28c-.73.77-1.42,1.54-2.16,2.26-2.33,2.3-4.69,4.58-7,6.86l-14.74,14.36-8.42,8.21-14.8,14.42c-1.07,1-2.1,2.1-3.24,3a17,17,0,0,1-9.86,3.9,2.33,2.33,0,0,0-.36.08h-1.68a2.21,2.21,0,0,0-.35-.08,17.29,17.29,0,0,1-6.64-1.8,20.75,20.75,0,0,1-5.6-4.35c-4.28-4.39-8.61-8.74-12.91-13.1L953,138.69c-3.62-3.67-7.21-7.36-10.87-11a14.66,14.66,0,0,1-4.6-12.32,14,14,0,0,1,3.94-8.52c2.2-2.27,4.45-4.5,6.68-6.74l11.88-12q3.33-3.35,6.65-6.71c5.41-5.45,10.82-10.92,16.26-16.35a12.29,12.29,0,0,1,6.75-3.47c.56-.1,1.13-.17,1.69-.26Z"/><rect class="cls-2" x="1031.59" y="77.43" width="21.54" height="21.36" rx="10.68" transform="translate(367.6 -711.25) rotate(45)"/><path class="cls-2" d="M1154.8,61.38c.58.08,1.16.15,1.73.25a12.91,12.91,0,0,1,7.13,3.81l5.55,5.62q5.79,5.88,11.6,11.74c.92.93,1.83,1.86,2.75,2.78a9.66,9.66,0,0,1,.11,13.52c-4.41,4.49-8.88,8.91-13.32,13.36l-9.92,9.92a8,8,0,0,1-11.88-.2c-.4-.42-.82-.81-1.2-1.23a9,9,0,0,1,.33-12.39l13-13a6.42,6.42,0,0,0,0-9.34L1158,83.59a6.4,6.4,0,0,0-9.43-.06q-11.94,11.88-23.82,23.82a10.37,10.37,0,0,0-3.13,7.88,10.23,10.23,0,0,0,3,7.17q11,11,22,22a9.5,9.5,0,0,0,13.48,0l17.72-17.74,9.14-9.16,6.7-6.72a10.56,10.56,0,0,1,15.08,0l5.25,5.25.27.28c-.73.77-1.43,1.54-2.16,2.26q-3.51,3.45-7,6.86l-14.74,14.36L1182,148q-7.39,7.22-14.8,14.42c-1.06,1-2.1,2.1-3.24,3a17,17,0,0,1-9.86,3.9,2.33,2.33,0,0,0-.36.08H1152a2,2,0,0,0-.35-.08,17.24,17.24,0,0,1-6.63-1.8,20.79,20.79,0,0,1-5.61-4.35c-4.28-4.39-8.6-8.74-12.91-13.1l-11.27-11.41c-3.62-3.67-7.22-7.36-10.87-11a14.63,14.63,0,0,1-4.6-12.32,14,14,0,0,1,3.94-8.52c2.2-2.27,4.44-4.5,6.67-6.74l11.88-12q3.33-3.35,6.65-6.71c5.42-5.45,10.82-10.92,16.26-16.35a12.32,12.32,0,0,1,6.76-3.47c.56-.1,1.12-.17,1.68-.26Z"/><rect class="cls-2" x="1193.85" y="77.43" width="21.54" height="21.36" rx="10.68" transform="translate(415.12 -825.99) rotate(45)"/><path class="cls-2" d="M1317.05,61.38c.58.08,1.16.15,1.74.25a12.91,12.91,0,0,1,7.13,3.81q2.76,2.82,5.54,5.62l11.61,11.74c.91.93,1.82,1.86,2.74,2.78a9.65,9.65,0,0,1,.11,13.52c-4.4,4.49-8.87,8.91-13.32,13.36l-9.92,9.92a8,8,0,0,1-11.88-.2c-.39-.42-.81-.81-1.2-1.23a9,9,0,0,1,.34-12.39q6.48-6.51,13-13a6.42,6.42,0,0,0,0-9.34l-2.64-2.64a6.4,6.4,0,0,0-9.43-.06Q1298.9,95.41,1287,107.35a10.41,10.41,0,0,0-3.13,7.88,10.28,10.28,0,0,0,3,7.17q11,11,22,22a9.5,9.5,0,0,0,13.48,0l17.73-17.74,9.13-9.16c2.24-2.24,4.47-4.49,6.71-6.72a10.54,10.54,0,0,1,15.07,0l5.26,5.25.26.28c-.73.77-1.42,1.54-2.16,2.26-2.33,2.3-4.69,4.58-7,6.86l-14.74,14.36-8.41,8.21-14.8,14.42c-1.07,1-2.1,2.1-3.24,3a17,17,0,0,1-9.86,3.9,2.33,2.33,0,0,0-.36.08h-1.68a2.21,2.21,0,0,0-.35-.08,17.29,17.29,0,0,1-6.64-1.8,20.75,20.75,0,0,1-5.6-4.35c-4.28-4.39-8.61-8.74-12.91-13.1l-11.28-11.41c-3.62-3.67-7.21-7.36-10.87-11a14.66,14.66,0,0,1-4.6-12.32,14,14,0,0,1,3.94-8.52c2.2-2.27,4.45-4.5,6.68-6.74l11.88-12q3.33-3.35,6.65-6.71c5.41-5.45,10.82-10.92,16.25-16.35a12.32,12.32,0,0,1,6.76-3.47c.56-.1,1.12-.17,1.69-.26Z"/><rect class="cls-2" x="1356.1" y="77.43" width="21.54" height="21.36" rx="10.68" transform="translate(462.65 -940.72) rotate(45)"/><path class="cls-2" d="M1479.31,61.38c.57.08,1.16.15,1.73.25a12.91,12.91,0,0,1,7.13,3.81l5.54,5.62,11.61,11.74,2.74,2.78a9.65,9.65,0,0,1,.12,13.52c-4.41,4.49-8.88,8.91-13.32,13.36l-9.92,9.92a8,8,0,0,1-11.89-.2c-.39-.42-.81-.81-1.19-1.23a9,9,0,0,1,.33-12.39q6.48-6.51,13-13a6.42,6.42,0,0,0,0-9.34l-2.65-2.64a6.4,6.4,0,0,0-9.43-.06q-11.94,11.88-23.82,23.82a10.34,10.34,0,0,0-3.13,7.88,10.23,10.23,0,0,0,3,7.17q11,11,22,22a9.51,9.51,0,0,0,13.49,0l17.72-17.74,9.14-9.16c2.23-2.24,4.46-4.49,6.7-6.72a10.54,10.54,0,0,1,15.07,0l5.26,5.25.27.28c-.73.77-1.43,1.54-2.16,2.26q-3.51,3.45-7,6.86l-14.74,14.36-8.42,8.21q-7.4,7.22-14.8,14.42c-1.06,1-2.1,2.1-3.24,3a17,17,0,0,1-9.86,3.9,2.33,2.33,0,0,0-.36.08h-1.68a2,2,0,0,0-.35-.08,17.24,17.24,0,0,1-6.63-1.8,20.79,20.79,0,0,1-5.61-4.35c-4.28-4.39-8.6-8.74-12.91-13.1l-11.27-11.41c-3.62-3.67-7.22-7.36-10.87-11a14.63,14.63,0,0,1-4.6-12.32,14,14,0,0,1,3.94-8.52c2.2-2.27,4.44-4.5,6.67-6.74l11.88-12q3.33-3.35,6.65-6.71c5.42-5.45,10.82-10.92,16.26-16.35a12.32,12.32,0,0,1,6.76-3.47c.56-.1,1.12-.17,1.68-.26Z"/><rect class="cls-2" x="1518.35" y="77.43" width="21.54" height="21.36" rx="10.68" transform="translate(510.17 -1055.45) rotate(45)"/><path class="cls-2" d="M1641.56,61.38c.58.08,1.16.15,1.73.25a12.9,12.9,0,0,1,7.14,3.81q2.76,2.82,5.54,5.62l11.61,11.74c.91.93,1.82,1.86,2.74,2.78a9.65,9.65,0,0,1,.11,13.52c-4.4,4.49-8.87,8.91-13.32,13.36l-9.92,9.92a8,8,0,0,1-11.88-.2c-.39-.42-.82-.81-1.2-1.23a9,9,0,0,1,.34-12.39q6.48-6.51,13-13a6.42,6.42,0,0,0,0-9.34l-2.64-2.64a6.4,6.4,0,0,0-9.43-.06q-11.94,11.88-23.83,23.82a10.41,10.41,0,0,0-3.13,7.88,10.24,10.24,0,0,0,3,7.17q11,11,22,22a9.5,9.5,0,0,0,13.48,0l17.72-17.74,9.14-9.16c2.24-2.24,4.47-4.49,6.71-6.72a10.54,10.54,0,0,1,15.07,0l5.26,5.25.26.28c-.73.77-1.42,1.54-2.16,2.26q-3.51,3.45-7,6.86l-14.74,14.36-8.41,8.21-14.81,14.42c-1.06,1-2.1,2.1-3.23,3a17,17,0,0,1-9.86,3.9,2.33,2.33,0,0,0-.36.08h-1.68a2.49,2.49,0,0,0-.35-.08,17.29,17.29,0,0,1-6.64-1.8,20.75,20.75,0,0,1-5.6-4.35c-4.28-4.39-8.61-8.74-12.92-13.1L1602,138.69c-3.62-3.67-7.22-7.36-10.87-11a14.63,14.63,0,0,1-4.6-12.32,14,14,0,0,1,3.94-8.52c2.2-2.27,4.45-4.5,6.68-6.74,4-4,7.92-8,11.87-12q3.33-3.35,6.65-6.71c5.42-5.45,10.83-10.92,16.26-16.35a12.32,12.32,0,0,1,6.76-3.47c.56-.1,1.12-.17,1.68-.26Z"/><rect class="cls-2" x="1680.61" y="77.43" width="21.54" height="21.36" rx="10.68" transform="translate(557.69 -1170.18) rotate(45)"/><path class="cls-2" d="M1803.82,61.38c.57.08,1.15.15,1.73.25a12.91,12.91,0,0,1,7.13,3.81l5.54,5.62,11.61,11.74,2.74,2.78a9.65,9.65,0,0,1,.12,13.52c-4.41,4.49-8.88,8.91-13.32,13.36l-9.92,9.92a8,8,0,0,1-11.89-.2c-.39-.42-.81-.81-1.19-1.23a9,9,0,0,1,.33-12.39q6.48-6.51,13-13a6.43,6.43,0,0,0,0-9.34L1807,83.59a6.4,6.4,0,0,0-9.43-.06q-11.94,11.88-23.83,23.82a10.41,10.41,0,0,0-3.13,7.88,10.28,10.28,0,0,0,3,7.17q11,11,22,22a9.51,9.51,0,0,0,13.49,0l17.72-17.74,9.14-9.16c2.23-2.24,4.46-4.49,6.7-6.72a10.54,10.54,0,0,1,15.07,0l5.26,5.25.27.28c-.73.77-1.43,1.54-2.16,2.26q-3.51,3.45-7,6.86l-14.74,14.36L1831,148q-7.39,7.22-14.8,14.42c-1.06,1-2.1,2.1-3.24,3a17,17,0,0,1-9.86,3.9,2.33,2.33,0,0,0-.36.08H1801a2,2,0,0,0-.35-.08,17.24,17.24,0,0,1-6.63-1.8,20.79,20.79,0,0,1-5.61-4.35c-4.28-4.39-8.6-8.74-12.91-13.1l-11.27-11.41c-3.62-3.67-7.22-7.36-10.87-11a14.63,14.63,0,0,1-4.6-12.32,13.91,13.91,0,0,1,3.94-8.52c2.2-2.27,4.44-4.5,6.67-6.74l11.88-12q3.33-3.35,6.65-6.71c5.42-5.45,10.82-10.92,16.26-16.35a12.32,12.32,0,0,1,6.76-3.47c.56-.1,1.12-.17,1.68-.26Z"/><rect class="cls-2" x="1842.86" y="77.43" width="21.54" height="21.36" rx="10.68" transform="translate(605.21 -1284.91) rotate(45)"/><path class="cls-2" d="M1966.07,61.38c.58.08,1.16.15,1.73.25a12.9,12.9,0,0,1,7.14,3.81q2.76,2.82,5.54,5.62l11.61,11.74c.91.93,1.82,1.86,2.74,2.78a9.66,9.66,0,0,1,.11,13.52c-4.41,4.49-8.87,8.91-13.32,13.36l-9.92,9.92a8,8,0,0,1-11.88-.2c-.39-.42-.82-.81-1.2-1.23a9,9,0,0,1,.34-12.39q6.48-6.51,13-13a6.42,6.42,0,0,0,0-9.34l-2.64-2.64a6.41,6.41,0,0,0-9.44-.06q-11.92,11.88-23.82,23.82a10.41,10.41,0,0,0-3.13,7.88,10.24,10.24,0,0,0,3,7.17q11,11,22,22a9.5,9.5,0,0,0,13.48,0l17.72-17.74,9.14-9.16c2.24-2.24,4.47-4.49,6.71-6.72a10.54,10.54,0,0,1,15.07,0l5.26,5.25.26.28c-.73.77-1.42,1.54-2.16,2.26q-3.51,3.45-7,6.86l-14.74,14.36-8.42,8.21q-7.39,7.22-14.8,14.42c-1.06,1-2.1,2.1-3.23,3a17,17,0,0,1-9.86,3.9,2.33,2.33,0,0,0-.36.08h-1.68a2.33,2.33,0,0,0-.36-.08,17.29,17.29,0,0,1-6.63-1.8,20.75,20.75,0,0,1-5.6-4.35c-4.28-4.39-8.61-8.74-12.92-13.1l-11.27-11.41c-3.62-3.67-7.22-7.36-10.87-11a14.63,14.63,0,0,1-4.6-12.32,14,14,0,0,1,3.94-8.52c2.2-2.27,4.45-4.5,6.68-6.74,3.95-4,7.92-8,11.87-12q3.33-3.35,6.65-6.71c5.42-5.45,10.83-10.92,16.26-16.35a12.32,12.32,0,0,1,6.76-3.47c.56-.1,1.12-.17,1.68-.26Z"/><rect class="cls-2" x="2005.12" y="77.43" width="21.54" height="21.36" rx="10.68" transform="translate(652.74 -1399.64) rotate(45)"/><path class="cls-2" d="M2128.32,61.38c.58.08,1.16.15,1.74.25a12.91,12.91,0,0,1,7.13,3.81l5.54,5.62,11.61,11.74,2.74,2.78a9.64,9.64,0,0,1,.11,13.52c-4.4,4.49-8.87,8.91-13.31,13.36l-9.92,9.92a8,8,0,0,1-11.89-.2c-.39-.42-.81-.81-1.19-1.23a9,9,0,0,1,.33-12.39q6.48-6.51,13-13a6.42,6.42,0,0,0,0-9.34l-2.64-2.64a6.4,6.4,0,0,0-9.43-.06q-11.94,11.88-23.83,23.82a10.41,10.41,0,0,0-3.13,7.88,10.28,10.28,0,0,0,3,7.17q11,11,22,22a9.5,9.5,0,0,0,13.48,0q8.88-8.87,17.73-17.74l9.14-9.16c2.23-2.24,4.46-4.49,6.7-6.72a10.54,10.54,0,0,1,15.07,0l5.26,5.25.27.28c-.74.77-1.43,1.54-2.16,2.26-2.34,2.3-4.7,4.58-7,6.86l-14.74,14.36-8.42,8.21q-7.39,7.22-14.8,14.42c-1.07,1-2.1,2.1-3.24,3a17,17,0,0,1-9.86,3.9,2.33,2.33,0,0,0-.36.08h-1.68a2.21,2.21,0,0,0-.35-.08,17.24,17.24,0,0,1-6.63-1.8,20.79,20.79,0,0,1-5.61-4.35c-4.28-4.39-8.6-8.74-12.91-13.1l-11.27-11.41c-3.62-3.67-7.22-7.36-10.88-11a14.62,14.62,0,0,1-4.59-12.32,13.91,13.91,0,0,1,3.94-8.52c2.19-2.27,4.44-4.5,6.67-6.74l11.88-12q3.33-3.35,6.65-6.71c5.41-5.45,10.82-10.92,16.26-16.35a12.29,12.29,0,0,1,6.76-3.47c.55-.1,1.12-.17,1.68-.26Z"/><rect class="cls-2" x="2167.37" y="77.43" width="21.54" height="21.36" rx="10.68" transform="translate(700.26 -1514.37) rotate(45)"/><path class="cls-2" d="M2290.58,61.38c.58.08,1.16.15,1.73.25a12.9,12.9,0,0,1,7.14,3.81q2.76,2.82,5.54,5.62L2316.6,82.8c.91.93,1.82,1.86,2.74,2.78a9.66,9.66,0,0,1,.11,13.52c-4.41,4.49-8.88,8.91-13.32,13.36l-9.92,9.92a8,8,0,0,1-11.88-.2c-.39-.42-.82-.81-1.2-1.23a9,9,0,0,1,.34-12.39q6.48-6.51,13-13a6.42,6.42,0,0,0,0-9.34l-2.64-2.64a6.41,6.41,0,0,0-9.44-.06q-11.93,11.88-23.82,23.82a10.41,10.41,0,0,0-3.13,7.88,10.24,10.24,0,0,0,3,7.17q11,11,22,22a9.5,9.5,0,0,0,13.48,0l17.72-17.74,9.14-9.16c2.24-2.24,4.47-4.49,6.71-6.72a10.54,10.54,0,0,1,15.07,0l5.26,5.25.26.28c-.73.77-1.42,1.54-2.16,2.26q-3.51,3.45-7,6.86l-14.74,14.36-8.42,8.21q-7.39,7.22-14.8,14.42c-1.06,1-2.1,2.1-3.24,3a16.94,16.94,0,0,1-9.85,3.9,2.33,2.33,0,0,0-.36.08h-1.68a2.33,2.33,0,0,0-.36-.08,17.24,17.24,0,0,1-6.63-1.8,20.75,20.75,0,0,1-5.6-4.35c-4.28-4.39-8.61-8.74-12.92-13.1L2251,138.69c-3.62-3.67-7.22-7.36-10.87-11a14.63,14.63,0,0,1-4.6-12.32,14,14,0,0,1,3.94-8.52c2.2-2.27,4.45-4.5,6.68-6.74,4-4,7.92-8,11.87-12q3.33-3.35,6.65-6.71c5.42-5.45,10.83-10.92,16.26-16.35a12.32,12.32,0,0,1,6.76-3.47c.56-.1,1.12-.17,1.68-.26Z"/><rect class="cls-2" x="2329.63" y="77.43" width="21.54" height="21.36" rx="10.68" transform="translate(747.78 -1629.1) rotate(45)"/><path class="cls-2" d="M2452.83,61.38c.58.08,1.16.15,1.74.25a12.91,12.91,0,0,1,7.13,3.81l5.54,5.62,11.61,11.74c.92.93,1.82,1.86,2.74,2.78a9.64,9.64,0,0,1,.11,13.52c-4.4,4.49-8.87,8.91-13.31,13.36l-9.93,9.92a8,8,0,0,1-11.88-.2c-.39-.42-.81-.81-1.19-1.23a9,9,0,0,1,.33-12.39q6.48-6.51,13-13a6.42,6.42,0,0,0,0-9.34l-2.64-2.64a6.4,6.4,0,0,0-9.43-.06q-11.94,11.88-23.83,23.82a10.41,10.41,0,0,0-3.13,7.88,10.28,10.28,0,0,0,3,7.17q11,11,22,22a9.5,9.5,0,0,0,13.48,0q8.88-8.87,17.73-17.74l9.14-9.16c2.23-2.24,4.46-4.49,6.7-6.72a10.54,10.54,0,0,1,15.07,0l5.26,5.25.27.28c-.74.77-1.43,1.54-2.17,2.26-2.33,2.3-4.69,4.58-7,6.86l-14.74,14.36L2480,148l-14.8,14.42c-1.07,1-2.1,2.1-3.24,3a17,17,0,0,1-9.86,3.9,2.33,2.33,0,0,0-.36.08h-1.68a2.21,2.21,0,0,0-.35-.08,17.19,17.19,0,0,1-6.63-1.8,20.79,20.79,0,0,1-5.61-4.35c-4.28-4.39-8.6-8.74-12.91-13.1l-11.27-11.41c-3.62-3.67-7.22-7.36-10.88-11a14.62,14.62,0,0,1-4.59-12.32,13.91,13.91,0,0,1,3.94-8.52c2.19-2.27,4.44-4.5,6.67-6.74l11.88-12q3.33-3.35,6.65-6.71c5.41-5.45,10.82-10.92,16.26-16.35a12.29,12.29,0,0,1,6.75-3.47c.56-.1,1.13-.17,1.69-.26Z"/><rect class="cls-2" x="2491.88" y="77.43" width="21.54" height="21.36" rx="10.68" transform="translate(795.31 -1743.84) rotate(45)"/><path class="cls-2" d="M2615.09,61.38c.58.08,1.16.15,1.73.25a12.94,12.94,0,0,1,7.14,3.81q2.76,2.82,5.54,5.62,5.79,5.88,11.61,11.74c.91.93,1.82,1.86,2.74,2.78A9.66,9.66,0,0,1,2644,99.1c-4.41,4.49-8.88,8.91-13.32,13.36l-9.92,9.92a8,8,0,0,1-11.88-.2c-.4-.42-.82-.81-1.2-1.23a9,9,0,0,1,.34-12.39q6.48-6.51,13-13a6.43,6.43,0,0,0,0-9.34l-2.65-2.64a6.4,6.4,0,0,0-9.43-.06q-11.92,11.88-23.82,23.82a10.41,10.41,0,0,0-3.13,7.88,10.24,10.24,0,0,0,3,7.17q11,11,22,22a9.5,9.5,0,0,0,13.48,0l17.72-17.74,9.14-9.16,6.7-6.72a10.56,10.56,0,0,1,15.08,0l5.25,5.25.27.28c-.73.77-1.42,1.54-2.16,2.26q-3.51,3.45-7,6.86l-14.74,14.36-8.42,8.21q-7.39,7.22-14.8,14.42c-1.06,1-2.1,2.1-3.24,3a16.94,16.94,0,0,1-9.85,3.9,2.33,2.33,0,0,0-.36.08h-1.68a2.33,2.33,0,0,0-.36-.08,17.24,17.24,0,0,1-6.63-1.8,20.75,20.75,0,0,1-5.6-4.35c-4.29-4.39-8.61-8.74-12.92-13.1l-11.27-11.41c-3.62-3.67-7.22-7.36-10.87-11a14.63,14.63,0,0,1-4.6-12.32,14,14,0,0,1,3.94-8.52c2.2-2.27,4.45-4.5,6.68-6.74,3.95-4,7.92-8,11.87-12q3.33-3.35,6.65-6.71c5.42-5.45,10.83-10.92,16.26-16.35a12.32,12.32,0,0,1,6.76-3.47c.56-.1,1.12-.17,1.68-.26Z"/><rect class="cls-2" x="2654.14" y="77.43" width="21.54" height="21.36" rx="10.68" transform="translate(842.83 -1858.57) rotate(45)"/><path class="cls-2" d="M2777.34,61.38c.58.08,1.16.15,1.74.25a12.91,12.91,0,0,1,7.13,3.81q2.76,2.82,5.54,5.62l11.61,11.74c.92.93,1.82,1.86,2.74,2.78a9.64,9.64,0,0,1,.11,13.52c-4.4,4.49-8.87,8.91-13.31,13.36l-9.93,9.92a8,8,0,0,1-11.88-.2c-.39-.42-.81-.81-1.2-1.23a9,9,0,0,1,.34-12.39q6.48-6.51,13-13a6.42,6.42,0,0,0,0-9.34l-2.64-2.64a6.4,6.4,0,0,0-9.43-.06q-11.94,11.88-23.83,23.82a10.41,10.41,0,0,0-3.13,7.88,10.28,10.28,0,0,0,3,7.17q11,11,22,22a9.5,9.5,0,0,0,13.48,0l17.73-17.74,9.13-9.16c2.24-2.24,4.47-4.49,6.71-6.72a10.54,10.54,0,0,1,15.07,0l5.26,5.25.26.28c-.73.77-1.42,1.54-2.16,2.26-2.33,2.3-4.69,4.58-7,6.86l-14.74,14.36-8.42,8.21-14.8,14.42c-1.07,1-2.1,2.1-3.24,3a17,17,0,0,1-9.86,3.9,2.33,2.33,0,0,0-.36.08h-1.68a2.21,2.21,0,0,0-.35-.08,17.19,17.19,0,0,1-6.63-1.8,20.64,20.64,0,0,1-5.61-4.35c-4.28-4.39-8.61-8.74-12.91-13.1l-11.27-11.41c-3.63-3.67-7.22-7.36-10.88-11a14.62,14.62,0,0,1-4.59-12.32,13.91,13.91,0,0,1,3.94-8.52c2.19-2.27,4.44-4.5,6.67-6.74l11.88-12q3.33-3.35,6.65-6.71c5.41-5.45,10.82-10.92,16.26-16.35a12.29,12.29,0,0,1,6.75-3.47c.56-.1,1.13-.17,1.69-.26Z"/><rect class="cls-2" x="2816.39" y="77.43" width="21.54" height="21.36" rx="10.68" transform="translate(890.35 -1973.3) rotate(45)"/><path class="cls-2" d="M2939.6,61.38c.58.08,1.16.15,1.73.25a12.91,12.91,0,0,1,7.13,3.81l5.55,5.62c3.86,3.92,7.74,7.83,11.6,11.74.92.93,1.83,1.86,2.75,2.78a9.66,9.66,0,0,1,.11,13.52c-4.41,4.49-8.88,8.91-13.32,13.36l-9.92,9.92a8,8,0,0,1-11.88-.2c-.4-.42-.82-.81-1.2-1.23a9,9,0,0,1,.34-12.39q6.48-6.51,13-13a6.43,6.43,0,0,0,0-9.34l-2.65-2.64a6.4,6.4,0,0,0-9.43-.06q-11.94,11.88-23.82,23.82a10.37,10.37,0,0,0-3.13,7.88,10.19,10.19,0,0,0,3,7.17q11,11,22,22a9.5,9.5,0,0,0,13.48,0l17.72-17.74,9.14-9.16,6.7-6.72a10.56,10.56,0,0,1,15.08,0l5.25,5.25.27.28c-.73.77-1.42,1.54-2.16,2.26q-3.51,3.45-7,6.86l-14.74,14.36-8.42,8.21q-7.4,7.22-14.8,14.42c-1.06,1-2.1,2.1-3.24,3a17,17,0,0,1-9.85,3.9,2.09,2.09,0,0,0-.36.08h-1.68a2.33,2.33,0,0,0-.36-.08,17.24,17.24,0,0,1-6.63-1.8,20.59,20.59,0,0,1-5.6-4.35c-4.29-4.39-8.61-8.74-12.92-13.1l-11.27-11.41c-3.62-3.67-7.22-7.36-10.87-11a14.63,14.63,0,0,1-4.6-12.32,14,14,0,0,1,3.94-8.52c2.2-2.27,4.45-4.5,6.68-6.74,4-4,7.91-8,11.87-12q3.33-3.35,6.65-6.71c5.42-5.45,10.83-10.92,16.26-16.35a12.32,12.32,0,0,1,6.76-3.47c.56-.1,1.12-.17,1.68-.26Z"/><rect class="cls-2" x="2978.65" y="77.43" width="21.54" height="21.36" rx="10.68" transform="translate(937.88 -2088.03) rotate(45)"/><path class="cls-2" d="M99.1,169.32c.58.08,1.16.15,1.73.25a12.91,12.91,0,0,1,7.13,3.81l5.55,5.62c3.86,3.91,7.74,7.82,11.6,11.74.92.92,1.83,1.86,2.75,2.78A9.66,9.66,0,0,1,128,207c-4.41,4.49-8.88,8.91-13.32,13.36q-5,4.95-9.92,9.92a8,8,0,0,1-11.88-.2c-.4-.42-.82-.81-1.2-1.24A9,9,0,0,1,92,216.49l13-13a6.43,6.43,0,0,0,0-9.34l-2.65-2.65a6.41,6.41,0,0,0-9.43-.06q-11.94,11.89-23.82,23.83a10.36,10.36,0,0,0-3.13,7.88,10.19,10.19,0,0,0,3,7.17q11,11,22,22a9.51,9.51,0,0,0,13.48,0q8.87-8.87,17.72-17.75l9.14-9.16,6.7-6.72a10.56,10.56,0,0,1,15.08,0l5.25,5.26.27.28c-.73.77-1.42,1.54-2.16,2.26q-3.51,3.45-7,6.86l-14.74,14.36-8.42,8.21-14.8,14.42c-1.06,1-2.1,2.1-3.24,3.05a17,17,0,0,1-9.85,3.9,2.09,2.09,0,0,0-.36.08H96.33a1.55,1.55,0,0,0-.36-.08,17.42,17.42,0,0,1-6.63-1.8,20.79,20.79,0,0,1-5.6-4.35c-4.29-4.39-8.61-8.74-12.92-13.1L59.55,246.62c-3.62-3.66-7.22-7.35-10.87-11a14.64,14.64,0,0,1-4.6-12.32A13.92,13.92,0,0,1,48,214.8c2.2-2.27,4.44-4.5,6.68-6.75l11.87-11.94c2.22-2.23,4.43-4.48,6.65-6.71q8.13-8.19,16.26-16.35a12.4,12.4,0,0,1,6.76-3.48l1.68-.25Z"/><rect class="cls-2" x="138.15" y="185.36" width="21.54" height="21.36" rx="10.68" transform="translate(182.24 -47.88) rotate(45)"/><path class="cls-2" d="M261.35,169.32c.58.08,1.16.15,1.74.25a12.91,12.91,0,0,1,7.13,3.81l5.54,5.62,11.61,11.74c.91.92,1.82,1.86,2.74,2.78a9.64,9.64,0,0,1,.11,13.52c-4.4,4.49-8.87,8.91-13.32,13.36L267,230.32a8,8,0,0,1-11.88-.2c-.39-.42-.81-.81-1.2-1.24a9,9,0,0,1,.34-12.39q6.48-6.5,13-13a6.42,6.42,0,0,0,0-9.34l-2.64-2.65a6.41,6.41,0,0,0-9.43-.06q-11.94,11.89-23.83,23.83a10.39,10.39,0,0,0-3.13,7.88,10.28,10.28,0,0,0,3,7.17q11,11,22,22a9.51,9.51,0,0,0,13.48,0l17.73-17.75q4.56-4.58,9.13-9.16l6.71-6.72a10.55,10.55,0,0,1,15.07,0l5.26,5.26.26.28c-.73.77-1.42,1.54-2.16,2.26-2.33,2.3-4.69,4.58-7,6.86l-14.74,14.36-8.42,8.21-14.8,14.42c-1.07,1-2.1,2.1-3.24,3.05a17,17,0,0,1-9.86,3.9,2.33,2.33,0,0,0-.36.08h-1.68a1.47,1.47,0,0,0-.35-.08,17.47,17.47,0,0,1-6.64-1.8,21,21,0,0,1-5.6-4.35c-4.28-4.39-8.61-8.74-12.91-13.1L221.8,246.62c-3.62-3.66-7.21-7.35-10.87-11a14.67,14.67,0,0,1-4.6-12.32,14,14,0,0,1,3.94-8.52c2.2-2.27,4.45-4.5,6.68-6.75l11.88-11.94c2.22-2.23,4.43-4.48,6.65-6.71q8.11-8.19,16.26-16.35a12.34,12.34,0,0,1,6.75-3.48l1.69-.25Z"/><rect class="cls-2" x="300.4" y="185.36" width="21.54" height="21.36" rx="10.68" transform="translate(229.76 -162.61) rotate(45)"/><path class="cls-2" d="M423.61,169.32c.57.08,1.16.15,1.73.25a12.91,12.91,0,0,1,7.13,3.81c1.85,1.87,3.69,3.75,5.55,5.62l11.6,11.74c.92.92,1.83,1.86,2.75,2.78a9.66,9.66,0,0,1,.11,13.52c-4.41,4.49-8.88,8.91-13.32,13.36q-5,4.95-9.92,9.92a8,8,0,0,1-11.89-.2c-.39-.42-.81-.81-1.19-1.24a9,9,0,0,1,.33-12.39q6.48-6.5,13-13a6.42,6.42,0,0,0,0-9.34l-2.65-2.65a6.41,6.41,0,0,0-9.43-.06q-11.94,11.89-23.82,23.83a10.36,10.36,0,0,0-3.13,7.88,10.23,10.23,0,0,0,3,7.17q11,11,22,22a9.52,9.52,0,0,0,13.49,0q8.86-8.87,17.72-17.75l9.14-9.16,6.7-6.72a10.56,10.56,0,0,1,15.08,0l5.25,5.26.27.28c-.73.77-1.43,1.54-2.16,2.26q-3.51,3.45-7,6.86l-14.74,14.36-8.42,8.21L436,270.34c-1.06,1-2.1,2.1-3.24,3.05a17,17,0,0,1-9.86,3.9,2.33,2.33,0,0,0-.36.08h-1.68a1.37,1.37,0,0,0-.35-.08,17.42,17.42,0,0,1-6.63-1.8,21,21,0,0,1-5.61-4.35c-4.28-4.39-8.6-8.74-12.91-13.1l-11.27-11.42c-3.62-3.66-7.22-7.35-10.87-11a14.64,14.64,0,0,1-4.6-12.32,13.92,13.92,0,0,1,3.94-8.52c2.2-2.27,4.44-4.5,6.67-6.75l11.88-11.94c2.22-2.23,4.43-4.48,6.65-6.71,5.42-5.46,10.82-10.92,16.26-16.35a12.4,12.4,0,0,1,6.76-3.48l1.68-.25Z"/><rect class="cls-2" x="462.66" y="185.36" width="21.54" height="21.36" rx="10.68" transform="translate(277.28 -277.34) rotate(45)"/><path class="cls-2" d="M585.86,169.32c.58.08,1.16.15,1.73.25a12.9,12.9,0,0,1,7.14,3.81l5.54,5.62,11.61,11.74c.91.92,1.82,1.86,2.74,2.78a9.65,9.65,0,0,1,.11,13.52c-4.4,4.49-8.87,8.91-13.32,13.36l-9.92,9.92a8,8,0,0,1-11.88-.2c-.39-.42-.81-.81-1.2-1.24a9,9,0,0,1,.34-12.39l13-13a6.42,6.42,0,0,0,0-9.34l-2.64-2.65a6.41,6.41,0,0,0-9.43-.06q-11.94,11.89-23.83,23.83a10.39,10.39,0,0,0-3.13,7.88,10.24,10.24,0,0,0,3,7.17q11,11,22,22a9.51,9.51,0,0,0,13.48,0q8.87-8.87,17.72-17.75,4.57-4.58,9.14-9.16l6.71-6.72a10.55,10.55,0,0,1,15.07,0l5.26,5.26.26.28c-.73.77-1.42,1.54-2.16,2.26-2.33,2.3-4.69,4.58-7,6.86l-14.74,14.36L613,255.92l-14.81,14.42c-1.06,1-2.09,2.1-3.23,3.05a17,17,0,0,1-9.86,3.9,2.33,2.33,0,0,0-.36.08h-1.68a1.59,1.59,0,0,0-.35-.08,17.47,17.47,0,0,1-6.64-1.8,21,21,0,0,1-5.6-4.35c-4.28-4.39-8.61-8.74-12.91-13.1l-11.28-11.42c-3.62-3.66-7.22-7.35-10.87-11a14.67,14.67,0,0,1-4.6-12.32,13.92,13.92,0,0,1,3.94-8.52c2.2-2.27,4.45-4.5,6.68-6.75l11.87-11.94L560,189.4q8.12-8.19,16.25-16.35a12.4,12.4,0,0,1,6.76-3.48l1.69-.25Z"/><rect class="cls-2" x="624.91" y="185.36" width="21.54" height="21.36" rx="10.68" transform="translate(324.81 -392.07) rotate(45)"/><path class="cls-2" d="M748.12,169.32c.57.08,1.15.15,1.73.25a12.91,12.91,0,0,1,7.13,3.81l5.54,5.62,11.61,11.74c.92.92,1.83,1.86,2.74,2.78A9.65,9.65,0,0,1,777,207c-4.41,4.49-8.88,8.91-13.32,13.36q-5,4.95-9.92,9.92a8,8,0,0,1-11.89-.2c-.39-.42-.81-.81-1.19-1.24a9,9,0,0,1,.33-12.39l13-13a6.42,6.42,0,0,0,0-9.34l-2.65-2.65a6.41,6.41,0,0,0-9.43-.06Q730,203.35,718.08,215.29a10.72,10.72,0,0,0-.1,15.05q11,11,22,22a9.52,9.52,0,0,0,13.49,0q8.87-8.87,17.72-17.75l9.14-9.16,6.7-6.72a10.55,10.55,0,0,1,15.07,0l5.26,5.26.27.28c-.73.77-1.43,1.54-2.16,2.26q-3.51,3.45-7,6.86L783.7,247.71l-8.42,8.21-14.8,14.42c-1.06,1-2.1,2.1-3.24,3.05a17,17,0,0,1-9.86,3.9,2.33,2.33,0,0,0-.36.08h-1.68a1.37,1.37,0,0,0-.35-.08,17.42,17.42,0,0,1-6.63-1.8,21,21,0,0,1-5.61-4.35c-4.28-4.39-8.6-8.74-12.91-13.1l-11.27-11.42c-3.62-3.66-7.22-7.35-10.87-11a14.64,14.64,0,0,1-4.6-12.32A13.86,13.86,0,0,1,697,214.8c2.2-2.27,4.44-4.5,6.67-6.75l11.88-11.94c2.22-2.23,4.43-4.48,6.65-6.71,5.42-5.46,10.82-10.92,16.26-16.35a12.4,12.4,0,0,1,6.76-3.48l1.68-.25Z"/><rect class="cls-2" x="787.16" y="185.36" width="21.54" height="21.36" rx="10.68" transform="translate(372.33 -506.8) rotate(45)"/><path class="cls-2" d="M910.37,169.32c.58.08,1.16.15,1.73.25a12.9,12.9,0,0,1,7.14,3.81l5.54,5.62,11.61,11.74c.91.92,1.82,1.86,2.74,2.78a9.65,9.65,0,0,1,.11,13.52c-4.4,4.49-8.87,8.91-13.32,13.36L916,230.32a8,8,0,0,1-11.88-.2c-.39-.42-.82-.81-1.2-1.24a9,9,0,0,1,.34-12.39l13-13a6.42,6.42,0,0,0,0-9.34l-2.64-2.65a6.42,6.42,0,0,0-9.44-.06q-11.92,11.89-23.82,23.83a10.39,10.39,0,0,0-3.13,7.88,10.24,10.24,0,0,0,3,7.17q11,11,22,22a9.51,9.51,0,0,0,13.48,0q8.87-8.87,17.72-17.75,4.57-4.58,9.14-9.16l6.71-6.72a10.55,10.55,0,0,1,15.07,0l5.26,5.26.26.28c-.73.77-1.42,1.54-2.16,2.26q-3.51,3.45-7,6.86L946,247.71l-8.41,8.21-14.81,14.42c-1.06,1-2.1,2.1-3.23,3.05a17,17,0,0,1-9.86,3.9,2.33,2.33,0,0,0-.36.08H907.6a1.59,1.59,0,0,0-.35-.08,17.47,17.47,0,0,1-6.64-1.8,21,21,0,0,1-5.6-4.35c-4.28-4.39-8.61-8.74-12.92-13.1q-5.62-5.72-11.27-11.42c-3.62-3.66-7.22-7.35-10.87-11a14.64,14.64,0,0,1-4.6-12.32,13.92,13.92,0,0,1,3.94-8.52c2.2-2.27,4.45-4.5,6.68-6.75l11.87-11.94c2.22-2.23,4.44-4.48,6.65-6.71q8.13-8.19,16.26-16.35a12.4,12.4,0,0,1,6.76-3.48l1.68-.25Z"/><rect class="cls-2" x="949.42" y="185.36" width="21.54" height="21.36" rx="10.68" transform="translate(419.85 -621.54) rotate(45)"/><path class="cls-2" d="M1072.63,169.32c.57.08,1.15.15,1.73.25a12.91,12.91,0,0,1,7.13,3.81L1087,179l11.61,11.74c.92.92,1.83,1.86,2.74,2.78a9.64,9.64,0,0,1,.11,13.52c-4.4,4.49-8.87,8.91-13.31,13.36q-5,4.95-9.92,9.92a8,8,0,0,1-11.89-.2c-.39-.42-.81-.81-1.19-1.24a9,9,0,0,1,.33-12.39q6.48-6.5,13-13a6.42,6.42,0,0,0,0-9.34l-2.64-2.65a6.41,6.41,0,0,0-9.43-.06q-11.94,11.89-23.83,23.83a10.39,10.39,0,0,0-3.13,7.88,10.28,10.28,0,0,0,3,7.17q11,11,22,22a9.52,9.52,0,0,0,13.49,0q8.87-8.87,17.72-17.75l9.14-9.16,6.7-6.72a10.55,10.55,0,0,1,15.07,0l5.26,5.26.27.28c-.73.77-1.43,1.54-2.16,2.26-2.34,2.3-4.7,4.58-7,6.86l-14.74,14.36-8.42,8.21L1085,270.34c-1.06,1-2.1,2.1-3.24,3.05a17,17,0,0,1-9.86,3.9,2.33,2.33,0,0,0-.36.08h-1.68a1.37,1.37,0,0,0-.35-.08,17.42,17.42,0,0,1-6.63-1.8,21,21,0,0,1-5.61-4.35c-4.28-4.39-8.6-8.74-12.91-13.1l-11.27-11.42c-3.62-3.66-7.22-7.35-10.87-11a14.61,14.61,0,0,1-4.6-12.32,13.86,13.86,0,0,1,3.94-8.52c2.2-2.27,4.44-4.5,6.67-6.75l11.88-11.94c2.22-2.23,4.43-4.48,6.65-6.71,5.42-5.46,10.82-10.92,16.26-16.35a12.37,12.37,0,0,1,6.76-3.48l1.68-.25Z"/><rect class="cls-2" x="1111.67" y="185.36" width="21.54" height="21.36" rx="10.68" transform="translate(467.38 -736.27) rotate(45)"/><path class="cls-2" d="M1234.88,169.32c.58.08,1.16.15,1.73.25a12.9,12.9,0,0,1,7.14,3.81l5.54,5.62,11.61,11.74c.91.92,1.82,1.86,2.74,2.78a9.66,9.66,0,0,1,.11,13.52c-4.41,4.49-8.87,8.91-13.32,13.36l-9.92,9.92a8,8,0,0,1-11.88-.2c-.39-.42-.82-.81-1.2-1.24a9,9,0,0,1,.34-12.39q6.48-6.5,13-13a6.42,6.42,0,0,0,0-9.34l-2.64-2.65a6.42,6.42,0,0,0-9.44-.06q-11.92,11.89-23.82,23.83a10.39,10.39,0,0,0-3.13,7.88,10.24,10.24,0,0,0,3,7.17q11,11,22,22a9.51,9.51,0,0,0,13.48,0q8.87-8.87,17.72-17.75,4.57-4.58,9.14-9.16l6.71-6.72a10.55,10.55,0,0,1,15.07,0l5.26,5.26.26.28c-.73.77-1.42,1.54-2.16,2.26q-3.51,3.45-7,6.86l-14.74,14.36-8.42,8.21-14.8,14.42c-1.06,1-2.1,2.1-3.24,3.05a16.94,16.94,0,0,1-9.85,3.9,2.33,2.33,0,0,0-.36.08h-1.68a1.55,1.55,0,0,0-.36-.08,17.47,17.47,0,0,1-6.63-1.8,21,21,0,0,1-5.6-4.35c-4.28-4.39-8.61-8.74-12.92-13.1q-5.62-5.72-11.27-11.42c-3.62-3.66-7.22-7.35-10.87-11a14.64,14.64,0,0,1-4.6-12.32,13.92,13.92,0,0,1,3.94-8.52c2.2-2.27,4.45-4.5,6.68-6.75l11.87-11.94c2.22-2.23,4.43-4.48,6.65-6.71q8.13-8.19,16.26-16.35a12.4,12.4,0,0,1,6.76-3.48l1.68-.25Z"/><rect class="cls-2" x="1273.93" y="185.36" width="21.54" height="21.36" rx="10.68" transform="translate(514.9 -851) rotate(45)"/><path class="cls-2" d="M1397.13,169.32c.58.08,1.16.15,1.74.25a12.91,12.91,0,0,1,7.13,3.81l5.54,5.62,11.61,11.74c.92.92,1.83,1.86,2.74,2.78A9.64,9.64,0,0,1,1426,207c-4.4,4.49-8.87,8.91-13.31,13.36l-9.93,9.92a8,8,0,0,1-11.88-.2c-.39-.42-.81-.81-1.19-1.24a9,9,0,0,1,.33-12.39q6.48-6.5,13-13a6.42,6.42,0,0,0,0-9.34l-2.64-2.65a6.41,6.41,0,0,0-9.43-.06q-11.94,11.89-23.83,23.83a10.39,10.39,0,0,0-3.13,7.88,10.28,10.28,0,0,0,3,7.17q11,11,22,22a9.51,9.51,0,0,0,13.48,0q8.88-8.87,17.73-17.75l9.14-9.16,6.7-6.72a10.55,10.55,0,0,1,15.07,0l5.26,5.26.27.28c-.74.77-1.43,1.54-2.17,2.26-2.33,2.3-4.69,4.58-7,6.86l-14.74,14.36-8.42,8.21-14.8,14.42c-1.07,1-2.1,2.1-3.24,3.05a17,17,0,0,1-9.86,3.9,2.33,2.33,0,0,0-.36.08h-1.68a1.47,1.47,0,0,0-.35-.08,17.37,17.37,0,0,1-6.63-1.8,21,21,0,0,1-5.61-4.35c-4.28-4.39-8.6-8.74-12.91-13.1q-5.64-5.72-11.27-11.42c-3.62-3.66-7.22-7.35-10.88-11a14.63,14.63,0,0,1-4.59-12.32,13.86,13.86,0,0,1,3.94-8.52c2.19-2.27,4.44-4.5,6.67-6.75l11.88-11.94c2.22-2.23,4.43-4.48,6.65-6.71q8.12-8.19,16.26-16.35a12.37,12.37,0,0,1,6.76-3.48l1.68-.25Z"/><rect class="cls-2" x="1436.18" y="185.36" width="21.54" height="21.36" rx="10.68" transform="translate(562.42 -965.73) rotate(45)"/><path class="cls-2" d="M1559.39,169.32c.58.08,1.16.15,1.73.25a12.9,12.9,0,0,1,7.14,3.81l5.54,5.62,11.61,11.74c.91.92,1.82,1.86,2.74,2.78a9.66,9.66,0,0,1,.11,13.52c-4.41,4.49-8.88,8.91-13.32,13.36l-9.92,9.92a8,8,0,0,1-11.88-.2c-.39-.42-.82-.81-1.2-1.24a9,9,0,0,1,.34-12.39q6.48-6.5,13-13a6.43,6.43,0,0,0,0-9.34c-.88-.88-1.76-1.77-2.65-2.65a6.41,6.41,0,0,0-9.43-.06q-11.93,11.89-23.82,23.83a10.39,10.39,0,0,0-3.13,7.88,10.24,10.24,0,0,0,3,7.17q11,11,22,22a9.51,9.51,0,0,0,13.48,0q8.87-8.87,17.72-17.75l9.14-9.16,6.7-6.72a10.56,10.56,0,0,1,15.08,0l5.26,5.26.26.28c-.73.77-1.42,1.54-2.16,2.26q-3.51,3.45-7,6.86L1595,247.71l-8.42,8.21-14.8,14.42c-1.06,1-2.1,2.1-3.24,3.05a16.94,16.94,0,0,1-9.85,3.9,2.33,2.33,0,0,0-.36.08h-1.68a1.55,1.55,0,0,0-.36-.08,17.42,17.42,0,0,1-6.63-1.8,21,21,0,0,1-5.6-4.35c-4.28-4.39-8.61-8.74-12.92-13.1q-5.62-5.72-11.27-11.42c-3.62-3.66-7.22-7.35-10.87-11a14.64,14.64,0,0,1-4.6-12.32,13.92,13.92,0,0,1,3.94-8.52c2.2-2.27,4.45-4.5,6.68-6.75l11.87-11.94c2.22-2.23,4.43-4.48,6.65-6.71q8.13-8.19,16.26-16.35a12.4,12.4,0,0,1,6.76-3.48l1.68-.25Z"/><rect class="cls-2" x="1598.44" y="185.36" width="21.54" height="21.36" rx="10.68" transform="translate(609.95 -1080.46) rotate(45)"/><path class="cls-2" d="M1721.64,169.32c.58.08,1.16.15,1.74.25a12.91,12.91,0,0,1,7.13,3.81l5.54,5.62,11.61,11.74c.92.92,1.82,1.86,2.74,2.78a9.64,9.64,0,0,1,.11,13.52c-4.4,4.49-8.87,8.91-13.31,13.36l-9.93,9.92a8,8,0,0,1-11.88-.2c-.39-.42-.81-.81-1.19-1.24a9,9,0,0,1,.33-12.39q6.48-6.5,13-13a6.42,6.42,0,0,0,0-9.34l-2.64-2.65a6.41,6.41,0,0,0-9.43-.06q-11.94,11.89-23.83,23.83a10.39,10.39,0,0,0-3.13,7.88,10.28,10.28,0,0,0,3,7.17q11,11,22,22a9.51,9.51,0,0,0,13.48,0q8.88-8.87,17.73-17.75,4.56-4.58,9.13-9.16l6.71-6.72a10.55,10.55,0,0,1,15.07,0l5.26,5.26.27.28c-.74.77-1.43,1.54-2.17,2.26-2.33,2.3-4.69,4.58-7,6.86l-14.74,14.36-8.42,8.21L1734,270.34c-1.07,1-2.1,2.1-3.24,3.05a17,17,0,0,1-9.86,3.9,2.33,2.33,0,0,0-.36.08h-1.68a1.47,1.47,0,0,0-.35-.08,17.37,17.37,0,0,1-6.63-1.8,21,21,0,0,1-5.61-4.35c-4.28-4.39-8.6-8.74-12.91-13.1q-5.64-5.72-11.27-11.42c-3.62-3.66-7.22-7.35-10.88-11a14.63,14.63,0,0,1-4.59-12.32,13.86,13.86,0,0,1,3.94-8.52c2.19-2.27,4.44-4.5,6.67-6.75l11.88-11.94c2.22-2.23,4.43-4.48,6.65-6.71q8.12-8.19,16.26-16.35a12.37,12.37,0,0,1,6.75-3.48l1.69-.25Z"/><rect class="cls-2" x="1760.69" y="185.36" width="21.54" height="21.36" rx="10.68" transform="translate(657.47 -1195.19) rotate(45)"/><path class="cls-2" d="M1883.9,169.32c.58.08,1.16.15,1.73.25a13,13,0,0,1,7.14,3.81l5.54,5.62,11.61,11.74c.91.92,1.82,1.86,2.74,2.78a9.66,9.66,0,0,1,.11,13.52c-4.41,4.49-8.88,8.91-13.32,13.36l-9.92,9.92a8,8,0,0,1-11.88-.2c-.4-.42-.82-.81-1.2-1.24a9,9,0,0,1,.34-12.39q6.48-6.5,13-13a6.43,6.43,0,0,0,0-9.34c-.88-.88-1.76-1.77-2.65-2.65a6.41,6.41,0,0,0-9.43-.06q-11.92,11.89-23.82,23.83a10.39,10.39,0,0,0-3.13,7.88,10.24,10.24,0,0,0,3,7.17q11,11,22,22a9.51,9.51,0,0,0,13.48,0q8.87-8.87,17.72-17.75l9.14-9.16,6.7-6.72a10.56,10.56,0,0,1,15.08,0l5.25,5.26.27.28c-.73.77-1.42,1.54-2.16,2.26q-3.51,3.45-7,6.86l-14.74,14.36-8.42,8.21-14.8,14.42c-1.06,1-2.1,2.1-3.24,3.05a16.94,16.94,0,0,1-9.85,3.9,2.09,2.09,0,0,0-.36.08h-1.68a1.55,1.55,0,0,0-.36-.08,17.42,17.42,0,0,1-6.63-1.8,20.79,20.79,0,0,1-5.6-4.35c-4.29-4.39-8.61-8.74-12.92-13.1l-11.27-11.42c-3.62-3.66-7.22-7.35-10.87-11a14.64,14.64,0,0,1-4.6-12.32,13.92,13.92,0,0,1,3.94-8.52c2.2-2.27,4.45-4.5,6.68-6.75l11.87-11.94c2.22-2.23,4.43-4.48,6.65-6.71q8.13-8.19,16.26-16.35a12.4,12.4,0,0,1,6.76-3.48l1.68-.25Z"/><rect class="cls-2" x="1922.95" y="185.36" width="21.54" height="21.36" rx="10.68" transform="translate(704.99 -1309.92) rotate(45)"/><path class="cls-2" d="M2046.15,169.32c.58.08,1.16.15,1.74.25a12.91,12.91,0,0,1,7.13,3.81l5.54,5.62,11.61,11.74c.92.92,1.82,1.86,2.74,2.78A9.64,9.64,0,0,1,2075,207c-4.4,4.49-8.87,8.91-13.32,13.36l-9.92,9.92a8,8,0,0,1-11.88-.2c-.39-.42-.81-.81-1.2-1.24a9,9,0,0,1,.34-12.39q6.48-6.5,13-13a6.42,6.42,0,0,0,0-9.34l-2.64-2.65a6.41,6.41,0,0,0-9.43-.06q-11.94,11.89-23.83,23.83a10.39,10.39,0,0,0-3.13,7.88,10.28,10.28,0,0,0,3,7.17q11,11,22,22a9.51,9.51,0,0,0,13.48,0l17.73-17.75q4.56-4.58,9.13-9.16l6.71-6.72a10.55,10.55,0,0,1,15.07,0l5.26,5.26.26.28c-.73.77-1.42,1.54-2.16,2.26-2.33,2.3-4.69,4.58-7,6.86l-14.74,14.36-8.42,8.21-14.8,14.42c-1.07,1-2.1,2.1-3.24,3.05a17,17,0,0,1-9.86,3.9,2.33,2.33,0,0,0-.36.08h-1.68a1.47,1.47,0,0,0-.35-.08,17.37,17.37,0,0,1-6.63-1.8,20.84,20.84,0,0,1-5.61-4.35c-4.28-4.39-8.61-8.74-12.91-13.1l-11.28-11.42c-3.62-3.66-7.21-7.35-10.87-11a14.63,14.63,0,0,1-4.59-12.32,13.9,13.9,0,0,1,3.93-8.52c2.2-2.27,4.45-4.5,6.68-6.75l11.88-11.94c2.22-2.23,4.43-4.48,6.65-6.71q8.12-8.19,16.26-16.35a12.37,12.37,0,0,1,6.75-3.48l1.69-.25Z"/><rect class="cls-2" x="2085.2" y="185.36" width="21.54" height="21.36" rx="10.68" transform="translate(752.52 -1424.66) rotate(45)"/><path class="cls-2" d="M2208.41,169.32c.58.08,1.16.15,1.73.25a12.91,12.91,0,0,1,7.13,3.81l5.55,5.62c3.86,3.91,7.74,7.82,11.6,11.74.92.92,1.83,1.86,2.75,2.78a9.66,9.66,0,0,1,.11,13.52c-4.41,4.49-8.88,8.91-13.32,13.36l-9.92,9.92a8,8,0,0,1-11.88-.2c-.4-.42-.82-.81-1.2-1.24a9,9,0,0,1,.34-12.39q6.48-6.5,13-13a6.43,6.43,0,0,0,0-9.34l-2.65-2.65a6.41,6.41,0,0,0-9.43-.06q-11.94,11.89-23.82,23.83a10.36,10.36,0,0,0-3.13,7.88,10.23,10.23,0,0,0,3,7.17q11,11,22,22a9.51,9.51,0,0,0,13.48,0q8.86-8.87,17.72-17.75l9.14-9.16,6.7-6.72a10.56,10.56,0,0,1,15.08,0l5.25,5.26.27.28c-.73.77-1.43,1.54-2.16,2.26q-3.51,3.45-7,6.86L2244,247.71l-8.42,8.21-14.8,14.42c-1.06,1-2.1,2.1-3.24,3.05a17,17,0,0,1-9.85,3.9,2.09,2.09,0,0,0-.36.08h-1.69a1.37,1.37,0,0,0-.35-.08,17.42,17.42,0,0,1-6.63-1.8,20.79,20.79,0,0,1-5.6-4.35c-4.29-4.39-8.61-8.74-12.92-13.1l-11.27-11.42c-3.62-3.66-7.22-7.35-10.87-11a14.64,14.64,0,0,1-4.6-12.32,13.92,13.92,0,0,1,3.94-8.52c2.2-2.27,4.44-4.5,6.67-6.75l11.88-11.94c2.22-2.23,4.43-4.48,6.65-6.71q8.13-8.19,16.26-16.35a12.4,12.4,0,0,1,6.76-3.48l1.68-.25Z"/><rect class="cls-2" x="2247.46" y="185.36" width="21.54" height="21.36" rx="10.68" transform="translate(800.04 -1539.39) rotate(45)"/><path class="cls-2" d="M2370.66,169.32c.58.08,1.16.15,1.74.25a12.91,12.91,0,0,1,7.13,3.81l5.54,5.62,11.61,11.74c.91.92,1.82,1.86,2.74,2.78a9.64,9.64,0,0,1,.11,13.52c-4.4,4.49-8.87,8.91-13.32,13.36l-9.92,9.92a8,8,0,0,1-11.88-.2c-.39-.42-.81-.81-1.2-1.24a9,9,0,0,1,.34-12.39q6.48-6.5,13-13a6.42,6.42,0,0,0,0-9.34l-2.64-2.65a6.41,6.41,0,0,0-9.43-.06q-11.94,11.89-23.83,23.83a10.39,10.39,0,0,0-3.13,7.88,10.28,10.28,0,0,0,3,7.17q11,11,22,22a9.51,9.51,0,0,0,13.48,0l17.73-17.75q4.56-4.58,9.13-9.16l6.71-6.72a10.55,10.55,0,0,1,15.07,0c1.75,1.76,3.51,3.51,5.26,5.26l.26.28c-.73.77-1.42,1.54-2.16,2.26-2.33,2.3-4.69,4.58-7,6.86l-14.74,14.36-8.42,8.21L2383,270.34c-1.07,1-2.1,2.1-3.24,3.05a17,17,0,0,1-9.86,3.9,2.33,2.33,0,0,0-.36.08h-1.68a1.47,1.47,0,0,0-.35-.08,17.47,17.47,0,0,1-6.64-1.8,21,21,0,0,1-5.6-4.35c-4.28-4.39-8.61-8.74-12.91-13.1l-11.28-11.42c-3.62-3.66-7.21-7.35-10.87-11a14.67,14.67,0,0,1-4.6-12.32,14,14,0,0,1,3.94-8.52c2.2-2.27,4.45-4.5,6.68-6.75l11.88-11.94c2.22-2.23,4.43-4.48,6.65-6.71q8.11-8.19,16.25-16.35a12.4,12.4,0,0,1,6.76-3.48l1.69-.25Z"/><rect class="cls-2" x="2409.71" y="185.36" width="21.54" height="21.36" rx="10.68" transform="translate(847.56 -1654.12) rotate(45)"/><path class="cls-2" d="M2532.92,169.32c.57.08,1.16.15,1.73.25a12.91,12.91,0,0,1,7.13,3.81c1.85,1.87,3.69,3.75,5.55,5.62l11.6,11.74c.92.92,1.83,1.86,2.75,2.78a9.66,9.66,0,0,1,.11,13.52c-4.41,4.49-8.88,8.91-13.32,13.36q-5,4.95-9.92,9.92a8,8,0,0,1-11.89-.2c-.39-.42-.81-.81-1.19-1.24a9,9,0,0,1,.33-12.39q6.48-6.5,13-13a6.42,6.42,0,0,0,0-9.34l-2.65-2.65a6.41,6.41,0,0,0-9.43-.06q-11.94,11.89-23.82,23.83a10.36,10.36,0,0,0-3.13,7.88,10.23,10.23,0,0,0,3,7.17q11,11,22,22a9.52,9.52,0,0,0,13.49,0q8.86-8.87,17.72-17.75l9.14-9.16,6.7-6.72a10.56,10.56,0,0,1,15.08,0l5.25,5.26.27.28c-.73.77-1.43,1.54-2.16,2.26q-3.51,3.45-7,6.86l-14.74,14.36-8.42,8.21-14.8,14.42c-1.06,1-2.1,2.1-3.24,3.05a17,17,0,0,1-9.86,3.9,2.33,2.33,0,0,0-.36.08h-1.68a1.37,1.37,0,0,0-.35-.08,17.42,17.42,0,0,1-6.63-1.8,21,21,0,0,1-5.61-4.35c-4.28-4.39-8.6-8.74-12.91-13.1l-11.27-11.42c-3.62-3.66-7.22-7.35-10.87-11a14.64,14.64,0,0,1-4.6-12.32,13.92,13.92,0,0,1,3.94-8.52c2.2-2.27,4.44-4.5,6.67-6.75l11.88-11.94c2.22-2.23,4.43-4.48,6.65-6.71,5.42-5.46,10.82-10.92,16.26-16.35a12.4,12.4,0,0,1,6.76-3.48l1.68-.25Z"/><rect class="cls-2" x="2571.96" y="185.36" width="21.54" height="21.36" rx="10.68" transform="translate(895.09 -1768.85) rotate(45)"/><path class="cls-2" d="M2695.17,169.32c.58.08,1.16.15,1.73.25a12.9,12.9,0,0,1,7.14,3.81l5.54,5.62,11.61,11.74c.91.92,1.82,1.86,2.74,2.78A9.65,9.65,0,0,1,2724,207c-4.4,4.49-8.87,8.91-13.32,13.36l-9.92,9.92a8,8,0,0,1-11.88-.2c-.39-.42-.81-.81-1.2-1.24a9,9,0,0,1,.34-12.39l13-13a6.42,6.42,0,0,0,0-9.34l-2.64-2.65a6.41,6.41,0,0,0-9.43-.06q-11.94,11.89-23.83,23.83a10.39,10.39,0,0,0-3.13,7.88,10.24,10.24,0,0,0,3,7.17q11,11,22,22a9.51,9.51,0,0,0,13.48,0q8.86-8.87,17.72-17.75,4.58-4.58,9.14-9.16l6.71-6.72a10.55,10.55,0,0,1,15.07,0l5.26,5.26.26.28c-.73.77-1.42,1.54-2.16,2.26q-3.51,3.45-7,6.86l-14.74,14.36-8.41,8.21-14.81,14.42c-1.06,1-2.09,2.1-3.23,3.05a17,17,0,0,1-9.86,3.9,2.33,2.33,0,0,0-.36.08h-1.68a1.59,1.59,0,0,0-.35-.08,17.47,17.47,0,0,1-6.64-1.8,21,21,0,0,1-5.6-4.35c-4.28-4.39-8.61-8.74-12.91-13.1l-11.28-11.42c-3.62-3.66-7.22-7.35-10.87-11a14.67,14.67,0,0,1-4.6-12.32,13.92,13.92,0,0,1,3.94-8.52c2.2-2.27,4.45-4.5,6.68-6.75l11.87-11.94,6.66-6.71q8.11-8.19,16.25-16.35a12.4,12.4,0,0,1,6.76-3.48l1.69-.25Z"/><rect class="cls-2" x="2734.22" y="185.36" width="21.54" height="21.36" rx="10.68" transform="translate(942.61 -1883.58) rotate(45)"/><path class="cls-2" d="M2857.43,169.32c.57.08,1.15.15,1.73.25a12.91,12.91,0,0,1,7.13,3.81l5.54,5.62,11.61,11.74c.92.92,1.83,1.86,2.74,2.78a9.65,9.65,0,0,1,.12,13.52c-4.41,4.49-8.88,8.91-13.32,13.36l-9.92,9.92a8,8,0,0,1-11.89-.2c-.39-.42-.81-.81-1.19-1.24a9,9,0,0,1,.33-12.39l13-13a6.42,6.42,0,0,0,0-9.34l-2.65-2.65a6.41,6.41,0,0,0-9.43-.06q-11.94,11.89-23.82,23.83a10.7,10.7,0,0,0-.1,15.05q11,11,22,22a9.52,9.52,0,0,0,13.49,0q8.86-8.87,17.72-17.75l9.14-9.16,6.7-6.72a10.55,10.55,0,0,1,15.07,0l5.26,5.26.27.28c-.73.77-1.43,1.54-2.16,2.26q-3.51,3.45-7,6.86L2893,247.71l-8.42,8.21-14.8,14.42c-1.06,1-2.1,2.1-3.24,3.05a17,17,0,0,1-9.86,3.9,2.33,2.33,0,0,0-.36.08h-1.68a1.37,1.37,0,0,0-.35-.08,17.42,17.42,0,0,1-6.63-1.8,21,21,0,0,1-5.61-4.35c-4.28-4.39-8.6-8.74-12.91-13.1l-11.27-11.42c-3.62-3.66-7.22-7.35-10.87-11a14.64,14.64,0,0,1-4.6-12.32,13.86,13.86,0,0,1,3.94-8.52c2.2-2.27,4.44-4.5,6.67-6.75l11.88-11.94c2.22-2.23,4.43-4.48,6.65-6.71,5.42-5.46,10.82-10.92,16.26-16.35a12.4,12.4,0,0,1,6.76-3.48l1.68-.25Z"/><rect class="cls-2" x="2896.47" y="185.36" width="21.54" height="21.36" rx="10.68" transform="translate(990.13 -1998.31) rotate(45)"/><path class="cls-2" d="M179.18,277.26c.58.08,1.16.15,1.73.25a13,13,0,0,1,7.14,3.8q2.76,2.82,5.54,5.63l11.61,11.73,2.74,2.79a9.65,9.65,0,0,1,.11,13.52c-4.41,4.48-8.87,8.91-13.32,13.35l-9.92,9.93a8,8,0,0,1-11.88-.2c-.39-.42-.82-.81-1.2-1.24a9,9,0,0,1,.34-12.39l13-13a6.42,6.42,0,0,0,0-9.34l-2.64-2.65a6.42,6.42,0,0,0-9.44-.06Q161,311.29,149.14,323.22a10.42,10.42,0,0,0-3.13,7.89,10.24,10.24,0,0,0,3,7.17q11,11,22,22a9.51,9.51,0,0,0,13.48,0q8.86-8.87,17.72-17.75,4.58-4.58,9.14-9.16l6.71-6.72a10.55,10.55,0,0,1,15.07,0l5.26,5.26.26.28c-.73.77-1.42,1.54-2.16,2.26l-7,6.86-14.74,14.36-8.41,8.21-14.81,14.41c-1.06,1-2.1,2.11-3.23,3.05a16.86,16.86,0,0,1-9.86,3.9,2.37,2.37,0,0,0-.36.09h-1.68a2.37,2.37,0,0,0-.36-.09,17.27,17.27,0,0,1-6.63-1.79,21,21,0,0,1-5.6-4.35c-4.28-4.39-8.61-8.74-12.92-13.1q-5.62-5.72-11.27-11.42c-3.62-3.66-7.22-7.35-10.87-11a14.64,14.64,0,0,1-4.6-12.32,13.92,13.92,0,0,1,3.94-8.52c2.2-2.28,4.45-4.5,6.68-6.75l11.87-11.94q3.33-3.36,6.65-6.71,8.13-8.19,16.26-16.35a12.4,12.4,0,0,1,6.76-3.48c.56-.1,1.12-.17,1.68-.25Z"/><rect class="cls-2" x="218.23" y="293.3" width="21.54" height="21.36" rx="10.68" transform="translate(282.02 -72.89) rotate(45)"/><path class="cls-2" d="M341.44,277.26c.57.08,1.15.15,1.73.25a13,13,0,0,1,7.13,3.8c1.85,1.88,3.69,3.76,5.54,5.63l11.61,11.73,2.74,2.79A9.64,9.64,0,0,1,370.3,315c-4.4,4.48-8.87,8.91-13.31,13.35l-9.92,9.93a8,8,0,0,1-11.89-.2c-.39-.42-.81-.81-1.19-1.24a9,9,0,0,1,.33-12.39l13-13a6.42,6.42,0,0,0,0-9.34l-2.64-2.65a6.41,6.41,0,0,0-9.43-.06q-11.94,11.89-23.83,23.82a10.42,10.42,0,0,0-3.13,7.89,10.28,10.28,0,0,0,3,7.17q11,11,22,22a9.51,9.51,0,0,0,13.48,0q8.88-8.87,17.73-17.75l9.14-9.16,6.7-6.72a10.55,10.55,0,0,1,15.07,0l5.26,5.26.27.28c-.74.77-1.43,1.54-2.16,2.26l-7,6.86q-7.38,7.17-14.74,14.36l-8.42,8.21-14.8,14.41c-1.07,1-2.1,2.11-3.24,3.05a16.84,16.84,0,0,1-9.86,3.9,2.37,2.37,0,0,0-.36.09h-1.68a2.25,2.25,0,0,0-.35-.09,17.23,17.23,0,0,1-6.63-1.79,21,21,0,0,1-5.61-4.35c-4.28-4.39-8.6-8.74-12.91-13.1q-5.64-5.72-11.27-11.42c-3.62-3.66-7.22-7.35-10.88-11a14.63,14.63,0,0,1-4.59-12.32,13.86,13.86,0,0,1,3.94-8.52c2.19-2.28,4.44-4.5,6.67-6.75l11.88-11.94q3.33-3.36,6.65-6.71c5.42-5.46,10.82-10.92,16.26-16.35a12.37,12.37,0,0,1,6.76-3.48c.55-.1,1.12-.17,1.68-.25Z"/><rect class="cls-2" x="380.48" y="293.3" width="21.54" height="21.36" rx="10.68" transform="translate(329.54 -187.62) rotate(45)"/><path class="cls-2" d="M503.69,277.26c.58.08,1.16.15,1.73.25a13,13,0,0,1,7.14,3.8q2.76,2.82,5.54,5.63l11.61,11.73,2.74,2.79a9.66,9.66,0,0,1,.11,13.52c-4.41,4.48-8.88,8.91-13.32,13.35l-9.92,9.93a8,8,0,0,1-11.88-.2c-.39-.42-.82-.81-1.2-1.24a9,9,0,0,1,.34-12.39l13-13a6.42,6.42,0,0,0,0-9.34l-2.64-2.65a6.42,6.42,0,0,0-9.44-.06q-11.93,11.89-23.82,23.82a10.42,10.42,0,0,0-3.13,7.89,10.24,10.24,0,0,0,3,7.17q11,11,22,22a9.51,9.51,0,0,0,13.48,0q8.87-8.87,17.72-17.75,4.58-4.58,9.14-9.16l6.71-6.72a10.55,10.55,0,0,1,15.07,0l5.26,5.26.26.28c-.73.77-1.42,1.54-2.16,2.26l-7,6.86-14.74,14.36-8.42,8.21-14.8,14.41c-1.06,1-2.1,2.11-3.24,3.05a16.81,16.81,0,0,1-9.85,3.9,2.37,2.37,0,0,0-.36.09h-1.68a2.37,2.37,0,0,0-.36-.09,17.23,17.23,0,0,1-6.63-1.79,21,21,0,0,1-5.6-4.35c-4.28-4.39-8.61-8.74-12.92-13.1q-5.62-5.72-11.27-11.42c-3.62-3.66-7.22-7.35-10.87-11a14.64,14.64,0,0,1-4.6-12.32,13.92,13.92,0,0,1,3.94-8.52c2.2-2.28,4.45-4.5,6.68-6.75l11.87-11.94q3.33-3.36,6.65-6.71,8.13-8.19,16.26-16.35a12.4,12.4,0,0,1,6.76-3.48c.56-.1,1.12-.17,1.68-.25Z"/><rect class="cls-2" x="542.74" y="293.3" width="21.54" height="21.36" rx="10.68" transform="translate(377.06 -302.35) rotate(45)"/><path class="cls-2" d="M665.94,277.26c.58.08,1.16.15,1.74.25a13,13,0,0,1,7.13,3.8c1.85,1.88,3.69,3.76,5.54,5.63L692,298.67l2.74,2.79a9.64,9.64,0,0,1,.11,13.52c-4.4,4.48-8.87,8.91-13.31,13.35l-9.93,9.93a8,8,0,0,1-11.88-.2c-.39-.42-.81-.81-1.19-1.24a9,9,0,0,1,.33-12.39l13-13a6.42,6.42,0,0,0,0-9.34l-2.64-2.65a6.41,6.41,0,0,0-9.43-.06q-11.94,11.89-23.83,23.82a10.42,10.42,0,0,0-3.13,7.89,10.28,10.28,0,0,0,3,7.17q11,11,22,22a9.51,9.51,0,0,0,13.48,0q8.88-8.87,17.73-17.75l9.14-9.16,6.7-6.72a10.55,10.55,0,0,1,15.07,0l5.26,5.26.27.28c-.74.77-1.43,1.54-2.17,2.26-2.33,2.29-4.69,4.57-7,6.86q-7.38,7.17-14.74,14.36l-8.42,8.21-14.8,14.41c-1.07,1-2.1,2.11-3.24,3.05a16.84,16.84,0,0,1-9.86,3.9,2.37,2.37,0,0,0-.36.09h-1.68a2.25,2.25,0,0,0-.35-.09,17.18,17.18,0,0,1-6.63-1.79,21,21,0,0,1-5.61-4.35c-4.28-4.39-8.6-8.74-12.91-13.1L626.4,354.56c-3.62-3.66-7.22-7.35-10.88-11a14.63,14.63,0,0,1-4.59-12.32,13.86,13.86,0,0,1,3.94-8.52c2.19-2.28,4.44-4.5,6.67-6.75l11.88-11.94q3.33-3.36,6.65-6.71,8.11-8.19,16.26-16.35a12.37,12.37,0,0,1,6.76-3.48c.55-.1,1.12-.17,1.68-.25Z"/><rect class="cls-2" x="704.99" y="293.3" width="21.54" height="21.36" rx="10.68" transform="translate(424.59 -417.09) rotate(45)"/><path class="cls-2" d="M828.2,277.26c.58.08,1.16.15,1.73.25a13,13,0,0,1,7.14,3.8q2.76,2.82,5.54,5.63l11.61,11.73,2.74,2.79a9.66,9.66,0,0,1,.11,13.52c-4.41,4.48-8.88,8.91-13.32,13.35l-9.92,9.93a8,8,0,0,1-11.88-.2c-.4-.42-.82-.81-1.2-1.24a9,9,0,0,1,.34-12.39q6.48-6.49,13-13a6.43,6.43,0,0,0,0-9.34l-2.65-2.65a6.41,6.41,0,0,0-9.43-.06q-11.93,11.89-23.82,23.82a10.42,10.42,0,0,0-3.13,7.89,10.24,10.24,0,0,0,3,7.17q11,11,22,22a9.51,9.51,0,0,0,13.48,0q8.87-8.87,17.72-17.75l9.14-9.16,6.7-6.72a10.56,10.56,0,0,1,15.08,0l5.25,5.26.27.28c-.73.77-1.42,1.54-2.16,2.26l-7,6.86-14.74,14.36-8.42,8.21-14.8,14.41c-1.06,1-2.1,2.11-3.24,3.05a16.81,16.81,0,0,1-9.85,3.9,2.37,2.37,0,0,0-.36.09h-1.68a2.37,2.37,0,0,0-.36-.09,17.23,17.23,0,0,1-6.63-1.79,21,21,0,0,1-5.6-4.35c-4.28-4.39-8.61-8.74-12.92-13.1q-5.62-5.72-11.27-11.42c-3.62-3.66-7.22-7.35-10.87-11a14.64,14.64,0,0,1-4.6-12.32,13.92,13.92,0,0,1,3.94-8.52c2.2-2.28,4.45-4.5,6.68-6.75l11.87-11.94q3.33-3.36,6.65-6.71,8.13-8.19,16.26-16.35a12.4,12.4,0,0,1,6.76-3.48c.56-.1,1.12-.17,1.68-.25Z"/><rect class="cls-2" x="867.25" y="293.3" width="21.54" height="21.36" rx="10.68" transform="translate(472.11 -531.82) rotate(45)"/><path class="cls-2" d="M990.45,277.26c.58.08,1.16.15,1.74.25a13,13,0,0,1,7.13,3.8q2.76,2.82,5.54,5.63l11.61,11.73,2.74,2.79a9.64,9.64,0,0,1,.11,13.52c-4.4,4.48-8.87,8.91-13.31,13.35l-9.93,9.93a8,8,0,0,1-11.88-.2c-.39-.42-.81-.81-1.2-1.24a9,9,0,0,1,.34-12.39q6.48-6.49,13-13a6.42,6.42,0,0,0,0-9.34l-2.64-2.65a6.41,6.41,0,0,0-9.43-.06q-11.94,11.89-23.83,23.82a10.42,10.42,0,0,0-3.13,7.89,10.28,10.28,0,0,0,3,7.17q11,11,22,22a9.51,9.51,0,0,0,13.48,0l17.73-17.75q4.56-4.58,9.13-9.16l6.71-6.72a10.55,10.55,0,0,1,15.07,0l5.26,5.26.27.28c-.74.77-1.43,1.54-2.17,2.26-2.33,2.29-4.69,4.57-7,6.86q-7.38,7.17-14.74,14.36l-8.42,8.21-14.8,14.41c-1.07,1-2.1,2.11-3.24,3.05a16.84,16.84,0,0,1-9.86,3.9,2.37,2.37,0,0,0-.36.09h-1.68a2.25,2.25,0,0,0-.35-.09,17.18,17.18,0,0,1-6.63-1.79,21,21,0,0,1-5.61-4.35c-4.28-4.39-8.61-8.74-12.91-13.1l-11.27-11.42c-3.63-3.66-7.22-7.35-10.88-11a14.63,14.63,0,0,1-4.59-12.32,13.86,13.86,0,0,1,3.94-8.52c2.19-2.28,4.44-4.5,6.67-6.75l11.88-11.94q3.33-3.36,6.65-6.71,8.11-8.19,16.26-16.35a12.37,12.37,0,0,1,6.75-3.48c.56-.1,1.13-.17,1.69-.25Z"/><rect class="cls-2" x="1029.5" y="293.3" width="21.54" height="21.36" rx="10.68" transform="translate(519.63 -646.55) rotate(45)"/><path class="cls-2" d="M1152.71,277.26c.58.08,1.16.15,1.73.25a13,13,0,0,1,7.13,3.8l5.55,5.63,11.6,11.73,2.75,2.79a9.66,9.66,0,0,1,.11,13.52c-4.41,4.48-8.88,8.91-13.32,13.35l-9.92,9.93a8,8,0,0,1-11.88-.2c-.4-.42-.82-.81-1.2-1.24a9,9,0,0,1,.34-12.39l13-13a6.43,6.43,0,0,0,0-9.34c-.88-.89-1.76-1.77-2.65-2.65a6.41,6.41,0,0,0-9.43-.06q-11.92,11.89-23.82,23.82a10.38,10.38,0,0,0-3.13,7.89,10.24,10.24,0,0,0,3,7.17q11,11,22,22a9.51,9.51,0,0,0,13.48,0q8.87-8.87,17.72-17.75l9.14-9.16,6.7-6.72a10.56,10.56,0,0,1,15.08,0l5.25,5.26.27.28c-.73.77-1.42,1.54-2.16,2.26l-7,6.86-14.74,14.36-8.42,8.21-14.8,14.41c-1.06,1-2.1,2.11-3.24,3.05a16.81,16.81,0,0,1-9.85,3.9,2.11,2.11,0,0,0-.36.09h-1.68a2.37,2.37,0,0,0-.36-.09,17.23,17.23,0,0,1-6.63-1.79,20.79,20.79,0,0,1-5.6-4.35c-4.29-4.39-8.61-8.74-12.92-13.1q-5.64-5.72-11.27-11.42c-3.62-3.66-7.22-7.35-10.87-11a14.64,14.64,0,0,1-4.6-12.32,13.92,13.92,0,0,1,3.94-8.52c2.2-2.28,4.45-4.5,6.68-6.75l11.87-11.94q3.33-3.36,6.65-6.71,8.13-8.19,16.26-16.35a12.4,12.4,0,0,1,6.76-3.48c.56-.1,1.12-.17,1.68-.25Z"/><rect class="cls-2" x="1191.76" y="293.3" width="21.54" height="21.36" rx="10.68" transform="translate(567.16 -761.28) rotate(45)"/><path class="cls-2" d="M1315,277.26c.58.08,1.16.15,1.74.25a13,13,0,0,1,7.13,3.8q2.76,2.82,5.54,5.63L1341,298.67l2.74,2.79a9.64,9.64,0,0,1,.11,13.52c-4.4,4.48-8.87,8.91-13.32,13.35l-9.92,9.93a8,8,0,0,1-11.88-.2c-.39-.42-.81-.81-1.2-1.24a9,9,0,0,1,.34-12.39l13-13a6.42,6.42,0,0,0,0-9.34l-2.64-2.65a6.41,6.41,0,0,0-9.43-.06q-11.94,11.89-23.83,23.82a10.42,10.42,0,0,0-3.13,7.89,10.28,10.28,0,0,0,3,7.17q11,11,22,22a9.51,9.51,0,0,0,13.48,0l17.73-17.75q4.56-4.58,9.13-9.16l6.71-6.72a10.55,10.55,0,0,1,15.07,0l5.26,5.26.26.28c-.73.77-1.42,1.54-2.16,2.26-2.33,2.29-4.69,4.57-7,6.86q-7.38,7.17-14.74,14.36l-8.42,8.21-14.8,14.41c-1.07,1-2.1,2.11-3.24,3.05a16.84,16.84,0,0,1-9.86,3.9,2.37,2.37,0,0,0-.36.09h-1.68a2.25,2.25,0,0,0-.35-.09,17.27,17.27,0,0,1-6.64-1.79,21,21,0,0,1-5.6-4.35c-4.28-4.39-8.61-8.74-12.91-13.1l-11.28-11.42c-3.62-3.66-7.21-7.35-10.87-11a14.63,14.63,0,0,1-4.59-12.32,13.9,13.9,0,0,1,3.93-8.52c2.2-2.28,4.45-4.5,6.68-6.75l11.88-11.94q3.33-3.36,6.65-6.71,8.12-8.19,16.26-16.35a12.37,12.37,0,0,1,6.75-3.48c.56-.1,1.13-.17,1.69-.25Z"/><rect class="cls-2" x="1354.01" y="293.3" width="21.54" height="21.36" rx="10.68" transform="translate(614.68 -876.01) rotate(45)"/><path class="cls-2" d="M1477.22,277.26c.58.08,1.16.15,1.73.25a13,13,0,0,1,7.13,3.8l5.55,5.63,11.6,11.73,2.75,2.79a9.66,9.66,0,0,1,.11,13.52c-4.41,4.48-8.88,8.91-13.32,13.35l-9.92,9.93a8,8,0,0,1-11.88-.2c-.4-.42-.82-.81-1.2-1.24a9,9,0,0,1,.33-12.39q6.5-6.49,13-13a6.42,6.42,0,0,0,0-9.34c-.88-.89-1.77-1.77-2.65-2.65a6.41,6.41,0,0,0-9.43-.06q-11.94,11.89-23.82,23.82a10.38,10.38,0,0,0-3.13,7.89,10.23,10.23,0,0,0,3,7.17q11,11,22,22a9.51,9.51,0,0,0,13.48,0q8.87-8.87,17.72-17.75l9.14-9.16,6.7-6.72a10.56,10.56,0,0,1,15.08,0l5.25,5.26.27.28c-.73.77-1.43,1.54-2.16,2.26l-7,6.86-14.74,14.36-8.42,8.21-14.8,14.41c-1.06,1-2.1,2.11-3.24,3.05a16.84,16.84,0,0,1-9.86,3.9,2,2,0,0,0-.35.09h-1.69a2,2,0,0,0-.35-.09,17.23,17.23,0,0,1-6.63-1.79,21,21,0,0,1-5.61-4.35c-4.28-4.39-8.6-8.74-12.91-13.1q-5.64-5.72-11.27-11.42c-3.62-3.66-7.22-7.35-10.87-11a14.64,14.64,0,0,1-4.6-12.32,13.92,13.92,0,0,1,3.94-8.52c2.2-2.28,4.44-4.5,6.67-6.75l11.88-11.94q3.33-3.36,6.65-6.71c5.42-5.46,10.82-10.92,16.26-16.35a12.4,12.4,0,0,1,6.76-3.48c.56-.1,1.12-.17,1.68-.25Z"/><rect class="cls-2" x="1516.27" y="293.3" width="21.54" height="21.36" rx="10.68" transform="translate(662.2 -990.74) rotate(45)"/><path class="cls-2" d="M1639.47,277.26c.58.08,1.16.15,1.74.25a13,13,0,0,1,7.13,3.8q2.76,2.82,5.54,5.63l11.61,11.73,2.74,2.79a9.65,9.65,0,0,1,.11,13.52c-4.4,4.48-8.87,8.91-13.32,13.35l-9.92,9.93a8,8,0,0,1-11.88-.2c-.39-.42-.81-.81-1.2-1.24a9,9,0,0,1,.34-12.39l13-13a6.42,6.42,0,0,0,0-9.34l-2.64-2.65a6.41,6.41,0,0,0-9.43-.06q-11.94,11.89-23.83,23.82a10.42,10.42,0,0,0-3.13,7.89,10.28,10.28,0,0,0,3,7.17q11,11,22,22a9.51,9.51,0,0,0,13.48,0l17.73-17.75q4.56-4.58,9.13-9.16l6.71-6.72a10.55,10.55,0,0,1,15.07,0l5.26,5.26.26.28c-.73.77-1.42,1.54-2.16,2.26-2.33,2.29-4.69,4.57-7,6.86l-14.74,14.36-8.41,8.21-14.8,14.41c-1.07,1-2.1,2.11-3.24,3.05a16.84,16.84,0,0,1-9.86,3.9,2.37,2.37,0,0,0-.36.09h-1.68a2.25,2.25,0,0,0-.35-.09,17.27,17.27,0,0,1-6.64-1.79,21,21,0,0,1-5.6-4.35c-4.28-4.39-8.61-8.74-12.91-13.1l-11.28-11.42c-3.62-3.66-7.21-7.35-10.87-11a14.67,14.67,0,0,1-4.6-12.32,13.92,13.92,0,0,1,3.94-8.52c2.2-2.28,4.45-4.5,6.68-6.75L1607,304.05q3.33-3.36,6.65-6.71,8.12-8.19,16.25-16.35a12.4,12.4,0,0,1,6.76-3.48c.56-.1,1.12-.17,1.69-.25Z"/><rect class="cls-2" x="1678.52" y="293.3" width="21.54" height="21.36" rx="10.68" transform="translate(709.73 -1105.47) rotate(45)"/><path class="cls-2" d="M1801.73,277.26c.57.08,1.16.15,1.73.25a13,13,0,0,1,7.13,3.8c1.85,1.88,3.69,3.76,5.54,5.63l11.61,11.73,2.75,2.79a9.66,9.66,0,0,1,.11,13.52c-4.41,4.48-8.88,8.91-13.32,13.35l-9.92,9.93a8,8,0,0,1-11.89-.2c-.39-.42-.81-.81-1.19-1.24a9,9,0,0,1,.33-12.39q6.48-6.49,13-13a6.42,6.42,0,0,0,0-9.34c-.88-.89-1.77-1.77-2.65-2.65a6.41,6.41,0,0,0-9.43-.06q-11.94,11.89-23.82,23.82a10.34,10.34,0,0,0-3.13,7.89,10.23,10.23,0,0,0,3,7.17q11,11,22,22a9.52,9.52,0,0,0,13.49,0q8.87-8.87,17.72-17.75l9.14-9.16,6.7-6.72a10.55,10.55,0,0,1,15.07,0l5.26,5.26.27.28c-.73.77-1.43,1.54-2.16,2.26l-7,6.86-14.74,14.36-8.42,8.21-14.8,14.41c-1.06,1-2.1,2.11-3.24,3.05a16.84,16.84,0,0,1-9.86,3.9,2.37,2.37,0,0,0-.36.09H1799a2,2,0,0,0-.35-.09,17.23,17.23,0,0,1-6.63-1.79,21,21,0,0,1-5.61-4.35c-4.28-4.39-8.6-8.74-12.91-13.1q-5.64-5.72-11.27-11.42c-3.62-3.66-7.22-7.35-10.87-11a14.64,14.64,0,0,1-4.6-12.32,13.92,13.92,0,0,1,3.94-8.52c2.2-2.28,4.44-4.5,6.67-6.75l11.88-11.94q3.33-3.36,6.65-6.71c5.42-5.46,10.82-10.92,16.26-16.35a12.4,12.4,0,0,1,6.76-3.48c.56-.1,1.12-.17,1.68-.25Z"/><rect class="cls-2" x="1840.77" y="293.3" width="21.54" height="21.36" rx="10.68" transform="translate(757.25 -1220.21) rotate(45)"/><path class="cls-2" d="M1964,277.26c.58.08,1.16.15,1.73.25a13,13,0,0,1,7.14,3.8q2.76,2.82,5.54,5.63L1990,298.67l2.74,2.79a9.65,9.65,0,0,1,.11,13.52c-4.4,4.48-8.87,8.91-13.32,13.35l-9.92,9.93a8,8,0,0,1-11.88-.2c-.39-.42-.82-.81-1.2-1.24a9,9,0,0,1,.34-12.39l13-13a6.42,6.42,0,0,0,0-9.34l-2.64-2.65a6.41,6.41,0,0,0-9.43-.06q-11.94,11.89-23.83,23.82a10.42,10.42,0,0,0-3.13,7.89,10.24,10.24,0,0,0,3,7.17q11,11,22,22a9.51,9.51,0,0,0,13.48,0q8.87-8.87,17.72-17.75,4.57-4.58,9.14-9.16l6.71-6.72a10.55,10.55,0,0,1,15.07,0l5.26,5.26.26.28c-.73.77-1.42,1.54-2.16,2.26l-7,6.86-14.74,14.36-8.41,8.21-14.81,14.41c-1.06,1-2.09,2.11-3.23,3.05a16.86,16.86,0,0,1-9.86,3.9,2.37,2.37,0,0,0-.36.09h-1.68a2.58,2.58,0,0,0-.35-.09,17.27,17.27,0,0,1-6.64-1.79,21,21,0,0,1-5.6-4.35c-4.28-4.39-8.61-8.74-12.92-13.1q-5.62-5.72-11.27-11.42c-3.62-3.66-7.22-7.35-10.87-11a14.64,14.64,0,0,1-4.6-12.32,13.92,13.92,0,0,1,3.94-8.52c2.2-2.28,4.45-4.5,6.68-6.75l11.87-11.94,6.65-6.71q8.13-8.19,16.26-16.35a12.4,12.4,0,0,1,6.76-3.48c.56-.1,1.12-.17,1.68-.25Z"/><rect class="cls-2" x="2003.03" y="293.3" width="21.54" height="21.36" rx="10.68" transform="translate(804.77 -1334.94) rotate(45)"/><path class="cls-2" d="M2126.24,277.26c.57.08,1.15.15,1.73.25a13,13,0,0,1,7.13,3.8c1.85,1.88,3.69,3.76,5.54,5.63l11.61,11.73,2.74,2.79a9.65,9.65,0,0,1,.12,13.52c-4.41,4.48-8.88,8.91-13.32,13.35l-9.92,9.93a8,8,0,0,1-11.89-.2c-.39-.42-.81-.81-1.19-1.24a9,9,0,0,1,.33-12.39q6.48-6.49,13-13a6.43,6.43,0,0,0,0-9.34l-2.65-2.65a6.41,6.41,0,0,0-9.43-.06q-11.94,11.89-23.82,23.82a10.39,10.39,0,0,0-3.14,7.89,10.28,10.28,0,0,0,3,7.17q11,11,22,22a9.52,9.52,0,0,0,13.49,0q8.87-8.87,17.72-17.75l9.14-9.16,6.7-6.72a10.55,10.55,0,0,1,15.07,0l5.26,5.26.27.28c-.73.77-1.43,1.54-2.16,2.26l-7,6.86q-7.38,7.17-14.74,14.36l-8.42,8.21-14.8,14.41c-1.06,1-2.1,2.11-3.24,3.05a16.84,16.84,0,0,1-9.86,3.9,2.37,2.37,0,0,0-.36.09h-1.68a2,2,0,0,0-.35-.09,17.23,17.23,0,0,1-6.63-1.79,21,21,0,0,1-5.61-4.35c-4.28-4.39-8.6-8.74-12.91-13.1q-5.64-5.72-11.27-11.42c-3.62-3.66-7.22-7.35-10.87-11a14.64,14.64,0,0,1-4.6-12.32,13.86,13.86,0,0,1,3.94-8.52c2.2-2.28,4.44-4.5,6.67-6.75l11.88-11.94q3.33-3.36,6.65-6.71c5.42-5.46,10.82-10.92,16.26-16.35a12.4,12.4,0,0,1,6.76-3.48c.56-.1,1.12-.17,1.68-.25Z"/><rect class="cls-2" x="2165.28" y="293.3" width="21.54" height="21.36" rx="10.68" transform="translate(852.3 -1449.67) rotate(45)"/><path class="cls-2" d="M2288.49,277.26c.58.08,1.16.15,1.73.25a13,13,0,0,1,7.14,3.8q2.76,2.82,5.54,5.63l11.61,11.73,2.74,2.79a9.65,9.65,0,0,1,.11,13.52c-4.41,4.48-8.87,8.91-13.32,13.35l-9.92,9.93a8,8,0,0,1-11.88-.2c-.39-.42-.82-.81-1.2-1.24a9,9,0,0,1,.34-12.39q6.48-6.49,13-13a6.42,6.42,0,0,0,0-9.34l-2.64-2.65a6.42,6.42,0,0,0-9.44-.06q-11.92,11.89-23.82,23.82a10.42,10.42,0,0,0-3.13,7.89,10.24,10.24,0,0,0,3,7.17q11,11,22,22a9.51,9.51,0,0,0,13.48,0q8.87-8.87,17.72-17.75,4.57-4.58,9.14-9.16l6.71-6.72a10.55,10.55,0,0,1,15.07,0c1.75,1.75,3.5,3.51,5.26,5.26l.26.28c-.73.77-1.42,1.54-2.16,2.26l-7,6.86-14.74,14.36-8.41,8.21-14.81,14.41c-1.06,1-2.1,2.11-3.23,3.05a16.86,16.86,0,0,1-9.86,3.9,2.37,2.37,0,0,0-.36.09h-1.68a2.37,2.37,0,0,0-.36-.09,17.27,17.27,0,0,1-6.63-1.79,21,21,0,0,1-5.6-4.35c-4.28-4.39-8.61-8.74-12.92-13.1q-5.62-5.72-11.27-11.42c-3.62-3.66-7.22-7.35-10.87-11a14.64,14.64,0,0,1-4.6-12.32,13.92,13.92,0,0,1,3.94-8.52c2.2-2.28,4.45-4.5,6.68-6.75L2256,304.05q3.33-3.36,6.65-6.71,8.13-8.19,16.26-16.35a12.4,12.4,0,0,1,6.76-3.48c.56-.1,1.12-.17,1.68-.25Z"/><rect class="cls-2" x="2327.54" y="293.3" width="21.54" height="21.36" rx="10.68" transform="translate(899.82 -1564.4) rotate(45)"/><path class="cls-2" d="M2450.75,277.26c.57.08,1.15.15,1.73.25a13,13,0,0,1,7.13,3.8c1.85,1.88,3.69,3.76,5.54,5.63l11.61,11.73,2.74,2.79a9.64,9.64,0,0,1,.11,13.52c-4.4,4.48-8.87,8.91-13.31,13.35l-9.92,9.93a8,8,0,0,1-11.89-.2c-.39-.42-.81-.81-1.19-1.24a9,9,0,0,1,.33-12.39q6.48-6.49,13-13a6.42,6.42,0,0,0,0-9.34l-2.64-2.65a6.41,6.41,0,0,0-9.43-.06q-11.94,11.89-23.83,23.82a10.42,10.42,0,0,0-3.13,7.89,10.28,10.28,0,0,0,3,7.17q11,11,22,22a9.51,9.51,0,0,0,13.48,0q8.88-8.87,17.73-17.75l9.14-9.16,6.7-6.72a10.55,10.55,0,0,1,15.07,0c1.76,1.75,3.51,3.51,5.26,5.26l.27.28c-.74.77-1.43,1.54-2.16,2.26l-7,6.86q-7.38,7.17-14.74,14.36l-8.42,8.21-14.8,14.41c-1.07,1-2.1,2.11-3.24,3.05a16.84,16.84,0,0,1-9.86,3.9,2.37,2.37,0,0,0-.36.09H2448a2.25,2.25,0,0,0-.35-.09,17.23,17.23,0,0,1-6.63-1.79,21,21,0,0,1-5.61-4.35c-4.28-4.39-8.6-8.74-12.91-13.1q-5.64-5.72-11.27-11.42c-3.62-3.66-7.22-7.35-10.88-11a14.63,14.63,0,0,1-4.59-12.32,13.86,13.86,0,0,1,3.94-8.52c2.19-2.28,4.44-4.5,6.67-6.75l11.88-11.94q3.33-3.36,6.65-6.71,8.12-8.19,16.26-16.35a12.37,12.37,0,0,1,6.76-3.48c.55-.1,1.12-.17,1.68-.25Z"/><rect class="cls-2" x="2489.79" y="293.3" width="21.54" height="21.36" rx="10.68" transform="translate(947.34 -1679.13) rotate(45)"/><path class="cls-2" d="M2613,277.26c.58.08,1.16.15,1.73.25a13,13,0,0,1,7.14,3.8q2.76,2.82,5.54,5.63L2639,298.67l2.74,2.79a9.66,9.66,0,0,1,.11,13.52c-4.41,4.48-8.88,8.91-13.32,13.35l-9.92,9.93a8,8,0,0,1-11.88-.2c-.39-.42-.82-.81-1.2-1.24a9,9,0,0,1,.34-12.39l13-13a6.42,6.42,0,0,0,0-9.34l-2.64-2.65a6.42,6.42,0,0,0-9.44-.06q-11.93,11.89-23.82,23.82a10.42,10.42,0,0,0-3.13,7.89,10.24,10.24,0,0,0,3,7.17q11,11,22,22a9.51,9.51,0,0,0,13.48,0q8.86-8.87,17.72-17.75,4.58-4.58,9.14-9.16l6.71-6.72a10.55,10.55,0,0,1,15.07,0c1.75,1.75,3.5,3.51,5.26,5.26l.26.28c-.73.77-1.42,1.54-2.16,2.26l-7,6.86-14.74,14.36-8.42,8.21-14.8,14.41c-1.06,1-2.1,2.11-3.24,3.05a16.81,16.81,0,0,1-9.85,3.9,2.37,2.37,0,0,0-.36.09h-1.68a2.37,2.37,0,0,0-.36-.09,17.23,17.23,0,0,1-6.63-1.79,21,21,0,0,1-5.6-4.35c-4.28-4.39-8.61-8.74-12.92-13.1q-5.62-5.72-11.27-11.42c-3.62-3.66-7.22-7.35-10.87-11a14.64,14.64,0,0,1-4.6-12.32,13.92,13.92,0,0,1,3.94-8.52c2.2-2.28,4.45-4.5,6.68-6.75l11.87-11.94q3.33-3.36,6.65-6.71,8.13-8.19,16.26-16.35a12.4,12.4,0,0,1,6.76-3.48c.56-.1,1.12-.17,1.68-.25Z"/><rect class="cls-2" x="2652.05" y="293.3" width="21.54" height="21.36" rx="10.68" transform="translate(994.87 -1793.86) rotate(45)"/><path class="cls-2" d="M2775.25,277.26c.58.08,1.16.15,1.74.25a13,13,0,0,1,7.13,3.8c1.85,1.88,3.69,3.76,5.54,5.63l11.61,11.73,2.74,2.79a9.64,9.64,0,0,1,.11,13.52c-4.4,4.48-8.87,8.91-13.31,13.35l-9.93,9.93a8,8,0,0,1-11.88-.2c-.39-.42-.81-.81-1.19-1.24a9,9,0,0,1,.33-12.39l13-13a6.42,6.42,0,0,0,0-9.34l-2.64-2.65a6.41,6.41,0,0,0-9.43-.06q-11.94,11.89-23.83,23.82a10.42,10.42,0,0,0-3.13,7.89,10.28,10.28,0,0,0,3,7.17q11,11,22,22a9.51,9.51,0,0,0,13.48,0q8.88-8.87,17.73-17.75l9.14-9.16,6.7-6.72a10.55,10.55,0,0,1,15.07,0c1.76,1.75,3.51,3.51,5.26,5.26l.27.28c-.74.77-1.43,1.54-2.17,2.26-2.33,2.29-4.69,4.57-7,6.86q-7.38,7.17-14.74,14.36l-8.42,8.21-14.8,14.41c-1.07,1-2.1,2.11-3.24,3.05a16.84,16.84,0,0,1-9.86,3.9,2.37,2.37,0,0,0-.36.09h-1.68a2.25,2.25,0,0,0-.35-.09,17.18,17.18,0,0,1-6.63-1.79,21,21,0,0,1-5.61-4.35c-4.28-4.39-8.6-8.74-12.91-13.1l-11.27-11.42c-3.62-3.66-7.22-7.35-10.88-11a14.63,14.63,0,0,1-4.59-12.32,13.86,13.86,0,0,1,3.94-8.52c2.19-2.28,4.44-4.5,6.67-6.75l11.88-11.94q3.33-3.36,6.65-6.71,8.11-8.19,16.26-16.35a12.37,12.37,0,0,1,6.75-3.48c.56-.1,1.13-.17,1.69-.25Z"/><rect class="cls-2" x="2814.3" y="293.3" width="21.54" height="21.36" rx="10.68" transform="translate(1042.39 -1908.59) rotate(45)"/><path class="cls-2" d="M2937.51,277.26c.58.08,1.16.15,1.73.25a13,13,0,0,1,7.14,3.8q2.76,2.82,5.54,5.63l11.61,11.73,2.74,2.79a9.66,9.66,0,0,1,.11,13.52c-4.41,4.48-8.88,8.91-13.32,13.35l-9.92,9.93a8,8,0,0,1-11.88-.2c-.4-.42-.82-.81-1.2-1.24a9,9,0,0,1,.34-12.39q6.48-6.49,13-13a6.43,6.43,0,0,0,0-9.34c-.88-.89-1.76-1.77-2.65-2.65a6.41,6.41,0,0,0-9.43-.06q-11.92,11.89-23.82,23.82a10.42,10.42,0,0,0-3.13,7.89,10.24,10.24,0,0,0,3,7.17q11,11,22,22a9.51,9.51,0,0,0,13.48,0q8.87-8.87,17.72-17.75l9.14-9.16,6.7-6.72a10.56,10.56,0,0,1,15.08,0l5.25,5.26.27.28c-.73.77-1.42,1.54-2.16,2.26l-7,6.86-14.74,14.36-8.42,8.21-14.8,14.41c-1.06,1-2.1,2.11-3.24,3.05a16.81,16.81,0,0,1-9.85,3.9,2.37,2.37,0,0,0-.36.09h-1.68a2.37,2.37,0,0,0-.36-.09,17.23,17.23,0,0,1-6.63-1.79,21,21,0,0,1-5.6-4.35c-4.29-4.39-8.61-8.74-12.92-13.1q-5.62-5.72-11.27-11.42c-3.62-3.66-7.22-7.35-10.87-11a14.64,14.64,0,0,1-4.6-12.32,13.92,13.92,0,0,1,3.94-8.52c2.2-2.28,4.45-4.5,6.68-6.75L2905,304.05q3.33-3.36,6.65-6.71,8.13-8.19,16.26-16.35a12.4,12.4,0,0,1,6.76-3.48c.56-.1,1.12-.17,1.68-.25Z"/><rect class="cls-2" x="2976.56" y="293.3" width="21.54" height="21.36" rx="10.68" transform="translate(1089.91 -2023.32) rotate(45)"/></g></svg>